<svg xmlns="http://www.w3.org/2000/svg" viewBox="0 0 117.16 98.44"><defs><style>.cls-1{fill:#f9af1e;}</style></defs><title>Asset 50</title><g id="Layer_2" data-name="Layer 2"><g id="Layer_1-2" data-name="Layer 1"><path class="cls-1" d="M116.78,67.7c0,4,.85,27.78,0,30.74H97.6l2.82-25.24s-10.72-.71-15.66-.85h-19c-2.54,0-5.07.14-7.61.28A66.09,66.09,0,0,1,55.85,79,33.38,33.38,0,0,1,45.56,92.8l-.85.43c-5.78,3.94-13.54,5.07-20.45,5.07-6.49,0-13.4-1.69-17.91-6.63a22.92,22.92,0,0,1-4.66-7.61A27.09,27.09,0,0,1,0,74.33a22.89,22.89,0,0,1,1.83-9.88,21.24,21.24,0,0,1,4.66-6.62,15.79,15.79,0,0,1,6.06-3.67A21.52,21.52,0,0,1,19,53a17,17,0,0,1,6.77,1.27,16,16,0,0,1,5.08,3.38A13.9,13.9,0,0,1,34,62.62a16.28,16.28,0,0,1,1.13,5.92,19.37,19.37,0,0,1-.71,4.8,11.41,11.41,0,0,1-2.11,4.37A12.36,12.36,0,0,1,28.49,81a10.64,10.64,0,0,1-5.22,1.26c-4.09,0-6.91-1.41-8.6-4.23A19.55,19.55,0,0,1,12.13,67.7h3.53a19.29,19.29,0,0,0,.42,4.09,8.56,8.56,0,0,0,1.13,3.38,6.48,6.48,0,0,0,2.39,2.4,8,8,0,0,0,9.45-1.69c1.7-1.69,2.54-4.37,2.54-8S30.46,61.07,28.07,59a13.14,13.14,0,0,0-9-3.24,16,16,0,0,0-5.78,1,13.82,13.82,0,0,0-4.94,3.1,15.07,15.07,0,0,0-3.38,5.5,24,24,0,0,0-1.27,8.32C3.67,88.57,21,97,33.14,91.11c3.11-1.55,5.65-2.82,7.76-5.5a35.74,35.74,0,0,0,5.36-9.45A113,113,0,0,0,50.07,64q1.7-6.76,3-14.38t2.54-14.81c1.13-6.21,2.11-13,4.51-18.76,2.26-5.22,8-11.28,8-11.28A51.74,51.74,0,0,0,56.84,6.49a29.35,29.35,0,0,0-8.32,3.81c-4.8,3.24-8.47,7.89-9.31,14-.57,4.09.28,9.73,5.22,9.73a4.15,4.15,0,0,0,3.38-1.41,4.56,4.56,0,0,0,1.27-3.39c0-1.69-.56-2.82-1.55-3.38a6,6,0,0,0-3-.85V21.58a9,9,0,0,1,5.78,2c1.55,1.27,2.26,3.25,2.26,5.79a8.09,8.09,0,0,1-2.4,5.92,8,8,0,0,1-5.78,2.4,8.64,8.64,0,0,1-7.2-3.11,12.59,12.59,0,0,1-2.53-8.18,20.12,20.12,0,0,1,2.53-10.15,28.63,28.63,0,0,1,6.49-7.76A32.63,32.63,0,0,1,58.11,1.55,99.91,99.91,0,0,1,73.48,0h1.27A34.76,34.76,0,0,1,89.56,3a33.15,33.15,0,0,1,11,8.18,50.41,50.41,0,0,1,7.76,12,80.87,80.87,0,0,1,5.07,14.25,108.09,108.09,0,0,1,2.68,15.09,129,129,0,0,1,.85,14.38ZM99.71,64.88a87.8,87.8,0,0,0,1.13-13.12,78,78,0,0,0-.56-9.59,60.61,60.61,0,0,0-2.12-10,78.09,78.09,0,0,0-3.52-9.59,34.68,34.68,0,0,0-9.59-12c-2-1.55-4.94-3.67-7.48-2.26C70.94,12,68.69,19.89,67.13,27.08c-.7,3-1.27,6.06-1.83,9.31s-1.13,6.63-1.69,10L63,49.79c-.42,2.53-.84,5.07-1.27,7.47s-1,4.8-1.55,7.05c-.14.57-.28,1-.42,1.41H86.32c4.51-.14,9-.28,13.68-.56Z"/></g></g></svg>