<svg xmlns="http://www.w3.org/2000/svg" viewBox="0 0 344.47 381.51"><defs><style>.cls-1{isolation:isolate;}.cls-2{fill:#dfdfdf;}.cls-2,.cls-5{mix-blend-mode:multiply;}.cls-3{fill:#fcd47b;}.cls-4{fill:#75323d;}.cls-5{fill:#f9e597;}.cls-6{fill:#dfeaf8;}.cls-7{fill:#fbe6e6;}.cls-8{fill:#f19383;}.cls-9{fill:#f5f9fd;}.cls-10{fill:#fff9fa;}.cls-11{fill:#f6b6af;}</style></defs><title>Asset 2</title><g class="cls-1"><g id="Layer_2" data-name="Layer 2"><g id="Layer_1-2" data-name="Layer 1"><ellipse class="cls-2" cx="169.24" cy="373.73" rx="166.57" ry="7.78"/><path class="cls-2" d="M314.1,265.86a103.63,103.63,0,0,0-11.8-7.55l-7.68-5c-28.92-19-39.63-26-40.91-26.66a20.6,20.6,0,0,0-8.41-2.6,16.32,16.32,0,0,0-7.74,1.54,37,37,0,0,0-7.43,4.58,107.66,107.66,0,0,0-13.63,12.42c-2.17,2.34-6.64,6.63-7.37,7.32l-5.66,4.84a16.08,16.08,0,0,1-5.08,3c-3.23-1.51-13.37-7-16.12-8.59C143.63,225,121,200.18,101.55,160.6c-.21-.45-.64-1.28-2.37-4.4a94.59,94.59,0,0,1-4.25-11.75c.24-.55,1.07-1.94,3.82-4.28l1.72-1.32a113.5,113.5,0,0,1,13.19-9.06A111.21,111.21,0,0,0,128.76,119a35.64,35.64,0,0,0,6-6.22,14,14,0,0,0,2.8-7,17.69,17.69,0,0,0-1.45-8.21c-.55-1.31-6.29-12.4-21.94-42.38l-4-7.62a109,109,0,0,0-5.08-10.33h0l-.21-.36,0-.08c0-.1-.11-.19-.16-.28l-.07-.11c0-.08-.09-.16-.14-.24l-.08-.12-.13-.23-.08-.12c0-.08-.09-.15-.13-.22l-.08-.12-.14-.21-.07-.12a1.64,1.64,0,0,1-.14-.22l-.07-.09-.2-.31c-2.88-4.26-5.34-6.06-9.41-6.88a27,27,0,0,0-3.23-.43c-5.81-.45-13.38.44-17.38,1a101.71,101.71,0,0,0-15.55,3.29A31.38,31.38,0,0,0,49,35.94l-.19.13-.18.15L42.7,41.3l-.15.12-.13.13A108.84,108.84,0,0,0,30,56.75h0l0,0c-7.2,10.54-11.71,20.9-13.79,31.66a79.27,79.27,0,0,0,.77,32.29c1,4.54,1.84,8,2.51,10.31h0c.89,3,2.25,7.4,3.56,11.61s2.75,8.84,3.16,10.36v.07l0,.07A188.15,188.15,0,0,0,42,191.48c20.79,37.68,62.34,83.24,98.81,108.32a186.47,186.47,0,0,0,22.6,13.42c7,3.55,13.69,6.41,19.56,8.94l6,2.62.44.2.78.35.18.08.62.27.23.1.69.3.1.05.84.37h0l.78.35.16.07.69.3.13.06,1.68.73h0l.79.34.11.05.78.33.06,0,1.72.73,0,0,.8.33.08,0c.87.35,1.73.71,2.61,1.05l0,0,.84.33,0,0c.88.34,1.77.69,2.66,1l.05,0q1.78.66,3.6,1.29l0,0c.9.31,1.82.62,2.74.91l0,0,.89.28h0c.92.29,1.84.57,2.78.83l.06,0,.92.26h0a95.84,95.84,0,0,0,18.32,3.29c14.48,1.11,28.9-1.43,44.09-7.77h0a116.93,116.93,0,0,0,18.05-9.4l.16-.11.15-.11,6.21-4.79.19-.14.17-.16a28.9,28.9,0,0,0,5.85-7.25,93.12,93.12,0,0,0,7-17.62,73.22,73.22,0,0,0,2.28-9.94c.55-3.77.46-6.53-.27-8.67C319.6,270.92,317.67,268.62,314.1,265.86Z"/><path class="cls-2" d="M212.56,117.33a88.88,88.88,0,0,0-21.44-10.28,12.44,12.44,0,0,0-3-.59h0a12.17,12.17,0,0,0-12.54,7.77c-2.15,6,1.34,12.63,7.76,14.71,21.77,7,38.86,26.08,44.61,49.7a11.45,11.45,0,0,0,2.68,5,12.9,12.9,0,0,0,12,3.82,12,12,0,0,0,7.66-5.07,10.87,10.87,0,0,0,1.56-8.72,95.17,95.17,0,0,0-21.64-41.14A91.33,91.33,0,0,0,212.56,117.33Z"/><path class="cls-2" d="M277.52,199a12.9,12.9,0,0,0,12.05,3.82c6.6-1.37,10.74-7.56,9.23-13.79a185.57,185.57,0,0,0-16.11-42.59,180.62,180.62,0,0,0-25.6-36.74,174.61,174.61,0,0,0-33.86-29.11A169.14,169.14,0,0,0,182.4,61a12.75,12.75,0,0,0-3-.6,12.18,12.18,0,0,0-12.54,7.77,10.89,10.89,0,0,0,.67,8.84,12.13,12.13,0,0,0,7.1,5.87A147.18,147.18,0,0,1,237.76,124,160.39,160.39,0,0,1,274.84,194,11.45,11.45,0,0,0,277.52,199Z"/><path class="cls-2" d="M344.15,202.07a269.08,269.08,0,0,0-23.36-61.8A262.76,262.76,0,0,0,283.7,87a252.66,252.66,0,0,0-49-42.09,244.27,244.27,0,0,0-58.94-28.27,12.94,12.94,0,0,0-3-.6h0a12.19,12.19,0,0,0-12.54,7.77c-2.14,6,1.34,12.64,7.77,14.71,36.19,11.7,69.4,33.33,96,62.56A243,243,0,0,1,320.2,207a11.35,11.35,0,0,0,2.68,5,12.9,12.9,0,0,0,12.05,3.82,12.1,12.1,0,0,0,7.66-5.07A10.88,10.88,0,0,0,344.15,202.07Z"/><path class="cls-3" d="M306.77,297.47a25.43,25.43,0,0,1-4.39,6.76l-5.83,5.58a109.63,109.63,0,0,1-16.46,10.87c-15.09,8.19-28.48,11.17-40.79,11.17-17,0-32-5.68-46.5-11.14-8.18-3.07-17.39-6.14-27.61-10.72a173.92,173.92,0,0,1-21.42-11.36c-37.78-23.3-82-67.68-105.07-105a198.93,198.93,0,0,1-18.18-38.29c-1.05-3.19-6.07-16.23-8.43-22.86q-1.2-3.39-3.18-10.39c-6.14-21.8-4.59-42.22,7.63-64.77A110.87,110.87,0,0,1,27.26,41l5.55-5.86a25.89,25.89,0,0,1,6.92-4.54c6.41-2.82,21.76-6.8,30.37-6.8a19.56,19.56,0,0,1,2.55.15c2.32.3,3.73,1,6.28,4.39l.61.85a98.58,98.58,0,0,1,6.8,11.9c1.6,2.76,28.53,48.52,29.56,50.64A14.28,14.28,0,0,1,117.43,98c0,2.92-2.07,6.57-6.24,11a106.47,106.47,0,0,1-13.55,12A134.55,134.55,0,0,0,83,133.69c-3.42,3.59-5.15,6.58-5.15,9,0,1.3,4.5,12.18,6,14.65s2.38,3.86,2.52,4.16c23.14,41.69,48.26,66.59,89.53,89.45.28.15,17.5,8.53,18.82,8.53q3.62,0,9.1-5.29l5.46-5.79s4.81-5.67,7.09-8.73a107.45,107.45,0,0,1,12-13.58q6.57-6.24,10.94-6.23h0a14.29,14.29,0,0,1,6.24,1.53c2.11,1,47.89,27.91,50.65,29.51q15.33,7.65,16.64,11.59C315.41,268.3,310.18,289.93,306.77,297.47Z"/><path class="cls-4" d="M317.92,260.51c-.89-2.45-3-4.73-6.76-7.36a102.07,102.07,0,0,0-12.35-7.05c-.89-.51-3.92-2.29-8-4.7-30.29-17.75-41.5-24.27-42.83-24.91a19.57,19.57,0,0,0-8.59-2.07,15.44,15.44,0,0,0-7.59,2.26,37.23,37.23,0,0,0-7.07,5.45,113.74,113.74,0,0,0-12.63,14.27c-2,2.66-6.11,7.57-6.78,8.36L200,250.35a16.1,16.1,0,0,1-4.84,3.56c-3.33-1.33-13.87-6.37-16.73-7.78-40.37-22.38-64.85-46.85-87.26-87.2-.24-.46-.74-1.3-2.71-4.47a107.38,107.38,0,0,1-5.14-12.1c.2-.6.93-2.14,3.49-4.85.56-.53,1.1-1,1.61-1.54a115.64,115.64,0,0,1,12.46-10.67,113.36,113.36,0,0,0,14.23-12.63,37.25,37.25,0,0,0,5.46-7.08,15.5,15.5,0,0,0,2.26-7.6,19.63,19.63,0,0,0-2.07-8.58c-.65-1.35-7.23-12.63-25.12-43.12l-4.55-7.74a92.07,92.07,0,0,0-7.83-13.4c-3.19-4.28-5.79-6-9.9-6.52a24.8,24.8,0,0,0-3.26-.2c-5.83,0-13.31,1.56-17.25,2.49a96.71,96.71,0,0,0-15.26,4.75,31.21,31.21,0,0,0-8.35,5.45l-.18.16-.17.18-5.55,5.86-.13.14-.13.15A116.28,116.28,0,0,0,11.82,54.73l0,0v0C5.42,66.52,1.71,77.86.47,89.43a88.88,88.88,0,0,0,3.24,34.15c1.34,4.73,2.44,8.34,3.29,10.72H7c1.13,3.16,2.81,7.66,4.44,12s3.43,9.14,3.94,10.72l0,.07,0,.07A205,205,0,0,0,34.11,196.5c23.62,38.23,68.54,83.11,106.82,106.72a181.79,181.79,0,0,0,23.56,12.37c7.29,3.19,14.14,5.69,20.19,7.89,2.17.79,4.22,1.53,6.22,2.29l.46.17c14.81,5.56,30.13,11.31,47.94,11.31,14.52,0,28.71-3.87,43.37-11.82h.05A116,116,0,0,0,300,314l.15-.12.15-.14,5.82-5.58.18-.16.16-.19a30.85,30.85,0,0,0,5.27-8.15,103.17,103.17,0,0,0,5.63-19.24,82,82,0,0,0,1.51-10.72C319.12,265.63,318.82,262.71,317.92,260.51ZM70.1,23.83a19.56,19.56,0,0,1,2.55.15c2.32.3,3.73,1,6.28,4.39a90.15,90.15,0,0,1,7.41,12.75c1.6,2.76,28.53,48.52,29.55,50.64A14.16,14.16,0,0,1,117.43,98c0,2.92-2.07,6.57-6.24,11a105.71,105.71,0,0,1-13.55,12A134.55,134.55,0,0,0,83,133.69c-3.42,3.59-5.15,6.58-5.15,9,0,1.3,4.5,12.18,6,14.65s2.38,3.86,2.52,4.16c23.14,41.69,48.26,66.59,89.53,89.45.28.15,17.5,8.53,18.82,8.53q3.62,0,9.1-5.29l5.46-5.79s4.82-5.67,7.09-8.73a107.45,107.45,0,0,1,12-13.58q6.57-6.24,10.94-6.23h0a14.29,14.29,0,0,1,6.24,1.53c2.11,1,47.89,27.91,50.66,29.51q15.31,7.65,16.63,11.59c2.53,5.85-2.7,27.48-6.11,35a25.43,25.43,0,0,1-4.39,6.76l-5.83,5.58a109.63,109.63,0,0,1-16.46,10.87c-15.09,8.19-28.48,11.17-40.79,11.17-17,0-32-5.68-46.5-11.14-13.55-5.09-29.91-10.17-49-22.08-37.78-23.3-82-67.68-105.07-105a198.93,198.93,0,0,1-18.18-38.29c-1.05-3.19-6.07-16.23-8.43-22.86q-1.2-3.39-3.18-10.39c-6.14-21.8-4.59-42.22,7.63-64.77A111.41,111.41,0,0,1,27.26,41l5.55-5.86a26.13,26.13,0,0,1,6.92-4.54C46.14,27.81,61.49,23.83,70.1,23.83Z"/><path class="cls-5" d="M165.19,310a173.92,173.92,0,0,1-21.42-11.36c-37.78-23.3-82-67.68-105.07-105a198.93,198.93,0,0,1-18.18-38.29c-1.05-3.19-6.07-16.23-8.43-22.86q-1.2-3.39-3.18-10.39c-6.14-21.8-4.59-42.22,7.63-64.77A110.87,110.87,0,0,1,27.26,41l5.55-5.86a25.89,25.89,0,0,1,6.92-4.54c6.41-2.82,21.76-6.8,30.37-6.8a19.56,19.56,0,0,1,2.55.15c2.32.3,3.73,1,6.28,4.39l.61.85A96.54,96.54,0,0,0,64.29,34a31.21,31.21,0,0,0-8.35,5.45l-.18.16-.17.17L50,45.62l-.14.14-.12.15A116.92,116.92,0,0,0,38.51,63v0c-6.37,11.76-10.08,23.1-11.32,34.67a88.92,88.92,0,0,0,3.24,34.15c1.34,4.73,2.44,8.34,3.29,10.72h0c1.13,3.16,2.81,7.66,4.44,12s3.42,9.14,3.94,10.72l0,.07,0,.07A205,205,0,0,0,60.81,204.8C83.93,242.22,127.46,286,165.19,310Z"/><path class="cls-6" d="M236.91,162.12a96.83,96.83,0,0,0-23.42-39.61A86.18,86.18,0,0,0,195.8,108.7,80.57,80.57,0,0,0,175,100.13a6.74,6.74,0,0,0-1.71-.22,6.9,6.9,0,0,0-1.7,13.58c24,6.14,44,26.33,52.11,52.68a6.89,6.89,0,0,0,13.18-4Z"/><path class="cls-4" d="M217.34,118.71A91.92,91.92,0,0,0,198.53,104a86,86,0,0,0-22.16-9.14,12.15,12.15,0,0,0-3.05-.39h0a12.3,12.3,0,0,0-3,24.21c22.24,5.68,40.74,24.47,48.28,49a12.3,12.3,0,1,0,23.51-7.22A102.3,102.3,0,0,0,217.34,118.71Zm8.1,50.3a6.84,6.84,0,0,1-1.71-2.84c-8.1-26.35-28.06-46.54-52.11-52.68a6.9,6.9,0,0,1,1.7-13.58,6.74,6.74,0,0,1,1.71.22,80.57,80.57,0,0,1,20.77,8.57,86.18,86.18,0,0,1,17.69,13.81,96.83,96.83,0,0,1,23.42,39.61,6.9,6.9,0,0,1-4.57,8.61,6.81,6.81,0,0,1-2,.31A6.9,6.9,0,0,1,225.44,169Z"/><path class="cls-7" d="M284.84,174.52A197.69,197.69,0,0,0,266,131.87a185.13,185.13,0,0,0-27.54-35.8,170.47,170.47,0,0,0-34.88-27.21A158.22,158.22,0,0,0,162.81,52a7.21,7.21,0,0,0-1.71-.21,6.89,6.89,0,0,0-1.7,13.57c25.72,6.57,49.26,20.55,68.59,39.87a177.23,177.23,0,0,1,43.67,73.33,6.91,6.91,0,0,0,6.59,4.87,6.91,6.91,0,0,0,6.59-8.92Z"/><path class="cls-4" d="M270.69,129.12a190.6,190.6,0,0,0-28.35-36.84,175.32,175.32,0,0,0-36-28.08,163.15,163.15,0,0,0-42.2-17.42,12.61,12.61,0,0,0-3.05-.38,12.29,12.29,0,0,0-3,24.2c24.3,6.21,47.16,19.51,66.11,38.46a172.16,172.16,0,0,1,42.33,71.09A12.3,12.3,0,1,0,290,172.93,203.18,203.18,0,0,0,270.69,129.12Zm7.56,54.32a6.91,6.91,0,0,1-6.59-4.87A177.23,177.23,0,0,0,228,105.24c-19.33-19.32-42.87-33.3-68.59-39.87a6.89,6.89,0,0,1,1.7-13.57,7.21,7.21,0,0,1,1.71.21,158.22,158.22,0,0,1,40.81,16.85A170.47,170.47,0,0,1,238.5,96.07,185.13,185.13,0,0,1,266,131.87a197.69,197.69,0,0,1,18.8,42.65,6.91,6.91,0,0,1-6.59,8.92Z"/><path class="cls-8" d="M331.07,184.69a289,289,0,0,0-27.52-62.4A270,270,0,0,0,263.3,70a249,249,0,0,0-51-39.75A230.44,230.44,0,0,0,152.8,5.62a6.69,6.69,0,0,0-1.71-.22A6.89,6.89,0,0,0,149.39,19c38.66,9.88,74,30.87,103,59.88,29.45,29.45,52.35,67.16,65.47,109.89a6.88,6.88,0,0,0,6.59,4.87,7.06,7.06,0,0,0,2-.3A6.9,6.9,0,0,0,331.07,184.69Z"/><path class="cls-9" d="M173.32,103.62a7.21,7.21,0,0,1,1.71.21,80.25,80.25,0,0,1,20.77,8.58,86.13,86.13,0,0,1,17.69,13.8,96.83,96.83,0,0,1,23.42,39.61c0,.06,0,.12,0,.18a6.84,6.84,0,0,0,0-3.88,96.83,96.83,0,0,0-23.42-39.61A86.18,86.18,0,0,0,195.8,108.7,80.57,80.57,0,0,0,175,100.13a6.74,6.74,0,0,0-1.71-.22,6.9,6.9,0,0,0-6.67,5.19,6.81,6.81,0,0,0,0,3.56A6.89,6.89,0,0,1,173.32,103.62Z"/><path class="cls-10" d="M161.1,55.5a6.74,6.74,0,0,1,1.71.22,157.84,157.84,0,0,1,40.81,16.84A170.18,170.18,0,0,1,238.5,99.78,184.82,184.82,0,0,1,266,135.58a197.4,197.4,0,0,1,18.8,42.64c0,.06,0,.12.05.18a6.84,6.84,0,0,0-.05-3.88A197.69,197.69,0,0,0,266,131.87a185.13,185.13,0,0,0-27.54-35.8,170.47,170.47,0,0,0-34.88-27.21A158.22,158.22,0,0,0,162.81,52a7.21,7.21,0,0,0-1.71-.21,6.9,6.9,0,0,0-6.63,8.75A6.88,6.88,0,0,1,161.1,55.5Z"/><path class="cls-11" d="M151.09,9.11a7.15,7.15,0,0,1,1.71.21A230.44,230.44,0,0,1,212.35,33.9a249.3,249.3,0,0,1,51,39.75A270.65,270.65,0,0,1,303.55,126a288.81,288.81,0,0,1,27.52,62.41s0,.11.05.17a6.93,6.93,0,0,0-.05-3.88,289,289,0,0,0-27.52-62.4A270,270,0,0,0,263.3,70a249,249,0,0,0-51-39.75A230.44,230.44,0,0,0,152.8,5.62a6.69,6.69,0,0,0-1.71-.22,6.9,6.9,0,0,0-6.63,8.75A6.89,6.89,0,0,1,151.09,9.11Z"/><path class="cls-4" d="M336.23,183.11a293.78,293.78,0,0,0-28-63.57,275.89,275.89,0,0,0-41.06-53.39,254.09,254.09,0,0,0-52.06-40.61A235.9,235.9,0,0,0,154.14.38a12.55,12.55,0,0,0-3-.38h0a12.3,12.3,0,0,0-3,24.21c37,9.44,71.74,29.66,100.54,58.46,29.33,29.33,51.5,66.55,64.13,107.66a12.3,12.3,0,0,0,15.36,8.14,12.29,12.29,0,0,0,8.14-15.36Zm-11.75,10.5a6.88,6.88,0,0,1-6.59-4.87c-13.12-42.73-36-80.44-65.47-109.89-29-29-64.37-50-103-59.88a6.89,6.89,0,0,1,1.7-13.57,6.69,6.69,0,0,1,1.71.22A230.44,230.44,0,0,1,212.35,30.2,249,249,0,0,1,263.3,70a270,270,0,0,1,40.25,52.34,289,289,0,0,1,27.52,62.4,6.9,6.9,0,0,1-4.57,8.62A7.06,7.06,0,0,1,324.48,193.61Z"/></g></g></g></svg>