<svg xmlns="http://www.w3.org/2000/svg" viewBox="0 0 287.01 370.61"><defs><style>.cls-1{isolation:isolate;}.cls-2{fill:#ddd;mix-blend-mode:multiply;}.cls-3{fill:#f19282;}.cls-4{fill:#75323d;}.cls-5{fill:#fad37c;}.cls-6{fill:#dde9f8;}.cls-7{fill:#f7b480;}.cls-8{fill:#fbe4e4;}.cls-9{fill:#f4a79f;}.cls-10{fill:#f2b85c;}.cls-11{fill:#c5d8ee;}.cls-12{fill:#f9c7a4;}.cls-13{fill:#ee7c6e;}.cls-14{fill:#757574;mix-blend-mode:color-burn;}</style></defs><title>Asset 3</title><g class="cls-1"><g id="Layer_2" data-name="Layer 2"><g id="Layer_1-2" data-name="Layer 1"><ellipse class="cls-2" cx="143.5" cy="363.43" rx="122.19" ry="7.18"/><path class="cls-2" d="M270.2,101.77,221.65,99c15.83-2.74,27.74-7.59,35.43-14.46a56.3,56.3,0,0,0,12.31-15,34.05,34.05,0,0,0,4.28-16.47c-.06-9.56-4.36-19.18-12.75-28.58a60.43,60.43,0,0,0-8.67-8.08h0l-.51-.38-.11-.08-1-.71,0,0-.5-.34-.14-.09-.94-.62-.1-.06-.49-.3-.17-.11-.85-.5a1.18,1.18,0,0,1-.19-.11l-.45-.25-.25-.13-.73-.39-.29-.14-.41-.21-.33-.16-.6-.28-.39-.18-.37-.16L243,11l-.46-.18-.5-.2-.32-.12-.52-.19-.32-.11-.59-.2L240,9.91l-.61-.19-.2-.06-.68-.18-.24-.07-.69-.17-.1,0-.74-.16L236.51,9l-.76-.14h0l-.79-.12-.2,0L234,8.6c-.66-.08-1.33-.14-2-.17-10.3-.59-20.79,3.82-31.18,13.1-8.23,7.35-14.72,19.76-19.29,36.87-1.43,5.37-2.55,10.72-3.42,15.77-.3-5.12-.81-10.57-1.63-16.07-2.61-17.52-7.65-30.57-15-38.79a63.41,63.41,0,0,0-9.18-8.55h0c-.41-.31-.82-.6-1.23-.89h0c-.61-.43-1.23-.84-1.85-1.23l0,0c-.61-.39-1.22-.76-1.84-1.11l0,0c-.6-.34-1.22-.67-1.83-1l-.05,0-1.23-.59h0l-.56-.26-.07,0-1.21-.5-.08,0-.53-.2-.09,0-1.2-.42-.11,0-.51-.17-.1,0-.6-.18h0l-.56-.16-.13,0-.5-.13-.1,0-.59-.14-.1,0-.49-.11-.16,0-.5-.1h-.09l-.59-.1-.13,0L134.65,3l-.16,0L134,3h-.06l-.59-.07h-.16l-.44,0h-.17l-.59,0c-.66,0-1.33-.06-2,0-9.56.06-19.17,4.35-28.58,12.75s-14.75,17.47-15.9,27a34.23,34.23,0,0,0,2.4,16.85A56.15,56.15,0,0,0,98.42,75.6c.19.22.39.43.59.65l.07.07.59.61.09.1.6.59.1.1.63.59.09.08.67.61,0,0,.71.62,0,0,.73.6.08.06.72.57.11.09.74.55.1.08.78.56.07,0c.56.4,1.13.79,1.72,1.17l0,0,.87.56.09,0,.87.54.1.06.9.53.08,0,.95.54h0c.67.37,1.35.73,2,1.09l0,0,1,.52.07,0,1,.5.07,0,1.07.5h0c1.12.52,2.28,1,3.47,1.5h0l1.18.48.05,0,1.2.46,0,0c1.65.62,3.37,1.23,5.15,1.81h0l1.33.43h0l1.36.42h0L132,94,83.44,91.21A17.82,17.82,0,0,0,64.65,108l-.24,4.28a17.83,17.83,0,0,0,16.77,18.79l2.33.13-.36,6.34-4.76,84.14L78,228l-16-.91h0a19.85,19.85,0,0,0-18.71-19.57l-18.47-1.05A19.86,19.86,0,0,0,3.87,225.16L0,293A19.85,19.85,0,0,0,18.71,313.9l18.47,1A19.85,19.85,0,0,0,57.53,300l.34,0,18.45,1a35.38,35.38,0,0,1,13.05,3.29l46.53,21.8a42,42,0,0,0,37.38-.91l91.06-48A17.07,17.07,0,0,0,272,255.31l-.3-.68,0,0a16.83,16.83,0,0,0-9.48-8.42,17.39,17.39,0,0,0-2.42-.67l.37-6.51,5.16-91.16.36-6.34,2.32.13a17.84,17.84,0,0,0,18.79-16.78l.24-4.28A17.83,17.83,0,0,0,270.2,101.77Z"/><path class="cls-3" d="M256,42.52c-.53-8.36-4.89-16.7-13-24.79s-16.42-12.45-24.79-13c-.56,0-1.13,0-1.69,0-9,0-18.13,4.53-27.07,13.47C173,34.69,170.19,72.92,169.76,88.59l-.07,2.48,2.48-.07c15.68-.43,53.93-3.22,70.43-19.71C252.11,61.78,256.62,52.1,256,42.52Z"/><path class="cls-4" d="M260.7,42.23c-.6-9.54-5.43-18.9-14.35-27.82S228.08.67,218.54.06c-.66,0-1.33-.06-2-.06C206.23,0,196,5,186.16,14.85c-7.81,7.8-13.59,20.55-17.18,37.9-1.12,5.44-1.94,10.84-2.53,15.94-.58-5.1-1.4-10.51-2.53-16-3.59-17.34-9.36-30.09-17.16-37.88C136.91,5,126.69,0,116.37,0c-.66,0-1.33,0-2,.06-9.54.61-18.9,5.43-27.82,14.35S72.82,32.69,72.22,42.23a34,34,0,0,0,3.34,16.69A56.33,56.33,0,0,0,87,74.61c7.81,7.8,20.56,13.58,37.9,17.17a209.34,209.34,0,0,0,35.72,3.92l2.48.07,1.76,0v.09l1.6,0,1.6,0v-.08l1.76,0,2.48-.07A209.6,209.6,0,0,0,208,91.77c17.35-3.59,30.1-9.37,37.89-17.16a56.33,56.33,0,0,0,11.44-15.69A34,34,0,0,0,260.7,42.23Zm-91,48.84.07-2.48c.43-15.67,3.2-53.9,19.72-70.42C198.42,9.23,207.53,4.7,216.55,4.7c.56,0,1.13,0,1.69,0,8.37.53,16.71,4.9,24.79,13s12.45,16.43,13,24.79c.61,9.58-3.9,19.26-13.41,28.77C226.1,87.78,187.85,90.57,172.17,91ZM160.74,91c-15.67-.43-53.9-3.2-70.42-19.72-9.51-9.51-14-19.19-13.41-28.77h0c.53-8.36,4.89-16.7,13-24.79s16.42-12.45,24.79-13c.56,0,1.13,0,1.69,0,9,0,18.13,4.53,27.07,13.47,16.49,16.49,19.28,54.74,19.72,70.42l.06,2.48Z"/><path class="cls-3" d="M143.44,18.17c-8.94-8.94-18-13.47-27.07-13.47-.56,0-1.13,0-1.69,0-8.37.53-16.71,4.9-24.79,13s-12.45,16.43-13,24.79h0c-.61,9.58,3.9,19.26,13.41,28.77C106.84,87.81,145.07,90.58,160.74,91l2.48.06-.06-2.48C162.72,72.91,159.93,34.66,143.44,18.17Z"/><path class="cls-5" d="M117.45,233.52l7.72,3.29a65.3,65.3,0,0,0,19,4.88l2.56.25V131H80v97H90.1A69.49,69.49,0,0,1,117.45,233.52Z"/><path class="cls-6" d="M176.45,242a22.5,22.5,0,0,1,2.45.14l2.59.29V131H151.41V242Z"/><path class="cls-5" d="M253,235V131H186.19v113.3h0l1.15.67A22,22,0,0,1,198.2,261.4l.41,3.56,48.19-27.71a17,17,0,0,1,4.39-1.78Z"/><path class="cls-7" d="M260,95.74H72.93a13.13,13.13,0,0,0-13.12,13.11v4.29a13.13,13.13,0,0,0,13.12,13.11H260a13.13,13.13,0,0,0,13.12-13.11v-4.29A13.13,13.13,0,0,0,260,95.74Z"/><path class="cls-4" d="M260,91H72.93a17.83,17.83,0,0,0-17.81,17.81v4.29A17.83,17.83,0,0,0,72.93,131h2.33v101.7H90.1a64.84,64.84,0,0,1,25.51,5.2l7.72,3.28a69.67,69.67,0,0,0,20.35,5.23l2.58.26.45,0v0h.46l4.26.43v-.43h25a18,18,0,0,1,1.93.11l2.61.29.93.1,1.92,1.11L185,249a17.25,17.25,0,0,1,8.52,12.94l.41,3.55.81,7.11L201,269l48.19-27.71a12.87,12.87,0,0,1,3.19-1.29l5.33-1.34V131H260a17.83,17.83,0,0,0,17.81-17.81v-4.29A17.83,17.83,0,0,0,260,91Zm13.12,22.1A13.13,13.13,0,0,1,260,126.25H72.93a13.13,13.13,0,0,1-13.12-13.11v-4.29A13.13,13.13,0,0,1,72.93,95.74H260a13.13,13.13,0,0,1,13.12,13.11ZM198.61,265l-.41-3.56a22,22,0,0,0-10.84-16.47l-1.15-.67h0V131H253V235l-1.78.44a17,17,0,0,0-4.39,1.78ZM80,131h66.76v111l-2.56-.25a65.3,65.3,0,0,1-19-4.88l-7.72-3.29A69.49,69.49,0,0,0,90.1,228H80Zm71.46,0h30.08V242.44l-2.59-.29a22.5,22.5,0,0,0-2.45-.14h-25Z"/><path class="cls-4" d="M202,91h0Z"/><path class="cls-4" d="M199.6,91h0Z"/><polygon class="cls-4" points="166.83 91.04 166.83 91.04 166.82 91.04 166.35 91.04 166.83 91.04"/><path class="cls-3" d="M54.49,296.26V228.47a15.15,15.15,0,0,0-15.11-14.33H20.88A15.15,15.15,0,0,0,5.75,229.27V297.2a15.15,15.15,0,0,0,15.13,15.13h18.5A15.15,15.15,0,0,0,54.49,298Z"/><path class="cls-8" d="M261.63,262.55a12.37,12.37,0,0,0,4.63-16.18h0a12.3,12.3,0,0,0-17.13-5.06l-53.79,30.92a43.69,43.69,0,0,1-21.72,5.8H126.23a2.34,2.34,0,0,1,0-4.68h47.39a39.07,39.07,0,0,0,18.84-4.86l1.21-.67V263.9a17.23,17.23,0,0,0-17.22-17.21H150.69a69.47,69.47,0,0,1-27.35-5.58l-7.72-3.28a64.89,64.89,0,0,0-25.52-5.2H59.19v63.63H77.67a40,40,0,0,1,15,2.89l47.69,19.13a37.37,37.37,0,0,0,24.18,1.22,37.8,37.8,0,0,0,8.91-3.9Z"/><path class="cls-9" d="M193.4,22.09c8.94-8.94,18-13.47,27.07-13.47.56,0,1.13,0,1.69.05,7.68.49,15.33,4.21,22.79,11.06-.62-.66-1.25-1.33-1.92-2-8.08-8.08-16.42-12.45-24.79-13-.56,0-1.13,0-1.69,0-9,0-18.13,4.53-27.07,13.47C173,34.69,170.19,72.92,169.76,88.59l-.07,2.48,2.48-.07,1.56,0C174.29,74.44,177.4,38.09,193.4,22.09Z"/><path class="cls-9" d="M80.82,46.44h0c.53-8.36,4.9-16.7,13-24.79s16.42-12.45,24.78-13c.57,0,1.14-.05,1.7-.05,8.23,0,16.52,3.77,24.69,11.2-.5-.57-1-1.12-1.54-1.65-8.94-8.94-18-13.47-27.07-13.47-.56,0-1.13,0-1.69,0-8.37.53-16.71,4.9-24.79,13s-12.45,16.43-13,24.79h0c-.61,9.58,3.9,19.26,13.41,28.77.53.53,1.09,1,1.66,1.55C84,64.09,80.27,55.22,80.82,46.44Z"/><polygon class="cls-10" points="83.87 134.87 146.71 134.87 146.71 130.95 79.95 130.95 79.95 227.95 83.87 227.95 83.87 134.87"/><polygon class="cls-11" points="155.33 134.87 181.49 134.87 181.49 130.95 151.41 130.95 151.41 242.01 155.33 242.01 155.33 134.87"/><path class="cls-10" d="M190.11,134.87H253V131H186.19v113.3h0l1.15.67a21.87,21.87,0,0,1,2.75,1.88Z"/><path class="cls-10" d="M193.74,250.5a21.92,21.92,0,0,1,4.46,10.9l.41,3.56,3.15-1.81A22,22,0,0,0,193.74,250.5Z"/><path class="cls-12" d="M63.73,117.06v-4.29A13.12,13.12,0,0,1,76.84,99.66H263.91a13.06,13.06,0,0,1,7.1,2.09,13.12,13.12,0,0,0-11-6H72.93a13.13,13.13,0,0,0-13.12,13.11v4.29a13.12,13.12,0,0,0,6,11A13,13,0,0,1,63.73,117.06Z"/><path class="cls-13" d="M9.67,301.12V233.19A15.14,15.14,0,0,1,24.8,218.06H43.3a15,15,0,0,1,8.55,2.66,15.12,15.12,0,0,0-12.47-6.58H20.88A15.15,15.15,0,0,0,5.75,229.27V297.2a15.14,15.14,0,0,0,6.57,12.47A15.06,15.06,0,0,1,9.67,301.12Z"/><path class="cls-4" d="M270.44,244.23l-.34-.66,0,0a16.85,16.85,0,0,0-9.95-7.87,16.89,16.89,0,0,0-13.32,1.57l-45.51,26.16-2.91,1.68V263.9c0-.75,0-1.49-.11-2.22A22,22,0,0,0,176.45,242H150.69a64.8,64.8,0,0,1-25.51-5.2l-7.72-3.28a69.38,69.38,0,0,0-27.36-5.58H59.17a19.87,19.87,0,0,0-19.79-18.49H20.88A19.86,19.86,0,0,0,1.05,229.27V297.2A19.85,19.85,0,0,0,20.88,317h18.5A19.86,19.86,0,0,0,58.85,301H77.67a35.45,35.45,0,0,1,13.22,2.55l47.69,19.13a41.86,41.86,0,0,0,37.26-3l88.21-53A17.08,17.08,0,0,0,270.44,244.23ZM54.49,298a15.14,15.14,0,0,1-15.11,14.33H20.88A15.15,15.15,0,0,1,5.75,297.2V229.27a15.15,15.15,0,0,1,15.13-15.13h18.5a15.15,15.15,0,0,1,15.11,14.33Zm207.14-35.45L173.42,315.6a37.62,37.62,0,0,1-8.91,3.9,37.37,37.37,0,0,1-24.18-1.22L92.64,299.15a40,40,0,0,0-15-2.89H59.19V232.63H90.1a64.89,64.89,0,0,1,25.52,5.2l7.72,3.28a69.47,69.47,0,0,0,27.35,5.58h26.79l.63.05.19,0,.38,0,.38.06h0l.35.06.5.09.4.09.35.09.16,0,.31.08.36.11.33.11.22.07c.33.11.65.24,1,.37l.24.1.46.21.68.34a4.77,4.77,0,0,1,.44.24,15.62,15.62,0,0,1,1.69,1.08c.27.19.54.4.79.61s.51.43.76.66l.32.3.08.08.29.29.05.05c.33.34.65.71,1,1.08l0,.05.28.36c.11.14.2.27.3.41a17.07,17.07,0,0,1,3.1,7.82,16.34,16.34,0,0,1,.15,2.22v3.92l-1.21.67a39.07,39.07,0,0,1-18.84,4.86H126.23a2.34,2.34,0,0,0,0,4.68h47.39l1.42,0,.71,0,.65,0c.41,0,.82-.05,1.23-.1l.42,0,.5-.05.64-.08.45-.06.27,0,.63-.09.64-.11h.06l.66-.13.68-.13.57-.13.17,0,.55-.13H184l.6-.16h0a43.89,43.89,0,0,0,10.75-4.39l2.24-1.29,3.69-2.13,47.85-27.5a12.16,12.16,0,0,1,9.65-1.14c.33.09.64.2,1,.32l.2.08c.3.12.6.26.89.41l.28.14.5.28.14.09.16.1.24.15.19.13.19.14.22.16h0l.21.17.65.56a7.53,7.53,0,0,1,.57.56h0l.19.2q.19.21.36.42a1.92,1.92,0,0,1,.18.22c.17.21.34.44.5.67l.31.47c.19.3.36.61.53.93A12.22,12.22,0,0,1,267.6,252,12.35,12.35,0,0,1,261.63,262.55Z"/><path class="cls-14" d="M265.42,245c-.16-.23-.33-.46-.5-.67l-.18-.22q-.17-.21-.36-.42l-.19-.2h0c-.18-.19-.37-.38-.57-.56l-.65-.56-.21-.17h0l-.22-.16-.19-.14-.19-.13-.24-.15-.16-.1-.14-.09-.5-.28-.28-.14c-.29-.15-.59-.29-.89-.41l-.2-.08c-.32-.12-.63-.23-1-.32a12.16,12.16,0,0,0-9.65,1.14l-47.85,27.5-3.69,2.13-2.24,1.29a43.89,43.89,0,0,1-10.75,4.39h0l-.6.16h-.09l-.55.13-.17,0-.57.13-.68.13-.66.13h-.06l-.64.11-.63.09-.27,0-.45.06-.64.08-.5.05-.42,0c-.41,0-.82.08-1.23.1l-.65,0-.71,0-1.42,0H128.43a2.34,2.34,0,0,0,1.72,3.92h47.38a43.68,43.68,0,0,0,21.73-5.8l2-1.17,51.77-29.76a12.42,12.42,0,0,1,12.68.22Z"/><path class="cls-14" d="M180.37,250.61a17.12,17.12,0,0,1,10,3.24,17.21,17.21,0,0,0-14-7.16H150.69a69.47,69.47,0,0,1-27.35-5.58l-7.72-3.28a64.89,64.89,0,0,0-25.52-5.2H59.19v63.63h3.92V236.54H94a64.77,64.77,0,0,1,25.53,5.21l7.71,3.28a69.55,69.55,0,0,0,27.36,5.58Z"/><path class="cls-4" d="M261.73,118.66H160.66a2.24,2.24,0,1,1,0-4.48H261.73a2.24,2.24,0,1,1,0,4.48Z"/><path class="cls-4" d="M261.73,109.46H206.66a2.24,2.24,0,1,1,0-4.48h55.07a2.24,2.24,0,1,1,0,4.48Z"/><path class="cls-4" d="M198.82,109.46h-6.51a2.24,2.24,0,0,1,0-4.48h6.51a2.24,2.24,0,1,1,0,4.48Z"/></g></g></g></svg>