<svg xmlns="http://www.w3.org/2000/svg" viewBox="0 0 487.69 440.35"><defs><style>.cls-1{isolation:isolate;}.cls-2{fill:#ddd;mix-blend-mode:multiply;}.cls-3{fill:#75323d;}.cls-4{fill:#fad37c;}.cls-5{fill:#edb151;}.cls-6{fill:#fbe4e4;}.cls-7{fill:#f19282;}.cls-8{fill:#fbf4b5;}.cls-9{fill:#757574;mix-blend-mode:color-burn;}.cls-10{fill:#f4aca3;}.cls-11{fill:#dde9f8;}.cls-12{fill:#ea7c6c;}.cls-13{fill:#bdd3eb;}.cls-14{fill:#f6bcb5;}</style></defs><title>Asset 1</title><g class="cls-1"><g id="Layer_2" data-name="Layer 2"><g id="Layer_1-2" data-name="Layer 1"><ellipse class="cls-2" cx="241.55" cy="430.97" rx="198.25" ry="9.38"/><path class="cls-3" d="M418.8,17.89H286.69a2.94,2.94,0,0,1,0-5.87H418.8a2.94,2.94,0,0,1,0,5.87Z"/><path class="cls-3" d="M418.8,5.87h-72a2.94,2.94,0,1,1,0-5.87h72a2.94,2.94,0,0,1,0,5.87Z"/><path class="cls-3" d="M336.57,5.87h-8.51a2.94,2.94,0,0,1,0-5.87h8.51a2.94,2.94,0,0,1,0,5.87Z"/><path class="cls-3" d="M24.24,267a2.94,2.94,0,0,1-2.93-2.94V132a2.94,2.94,0,0,1,5.87,0V264.09A2.94,2.94,0,0,1,24.24,267Z"/><path class="cls-3" d="M12.22,267a2.94,2.94,0,0,1-2.93-2.94v-72a2.93,2.93,0,1,1,5.86,0v72A2.94,2.94,0,0,1,12.22,267Z"/><path class="cls-3" d="M12.22,184.79a2.93,2.93,0,0,1-2.93-2.93v-8.51a2.93,2.93,0,0,1,5.86,0v8.51A2.93,2.93,0,0,1,12.22,184.79Z"/><path class="cls-2" d="M480.56,295.45l-182.33-5.6-7.13-.21-.22,7a7.75,7.75,0,0,1-8,7.44l-73.28-2.25a7.76,7.76,0,0,1-7.57-7.92l.22-7-7.13-.22L68.81,282.81l-56-1.72-7.13-.22-.22,7a44.34,44.34,0,0,0,3.07,17.7,45.14,45.14,0,0,0,9.39,14.67,46.14,46.14,0,0,0,32,14.23l63.19,1.94,327.1,10a46.3,46.3,0,0,0,18-3,45.76,45.76,0,0,0,14.88-9.24,44.77,44.77,0,0,0,10.27-14.05,44.21,44.21,0,0,0,4.15-17.48l.22-7Z"/><path class="cls-2" d="M58.73,273,121.91,275l180,5.53,133.25,4.09A17.59,17.59,0,0,0,446,281.29a17.14,17.14,0,0,0,7.21-13.42l6.73-219.14A17.4,17.4,0,0,0,443,31L129.7,21.33,66.52,19.39a17.39,17.39,0,0,0-18,16.7L41.75,255.23A17.4,17.4,0,0,0,58.73,273Z"/><path class="cls-4" d="M429.45,33.27H52.83A10.38,10.38,0,0,0,42.45,43.65V266.3a10.39,10.39,0,0,0,10.38,10.39H429.45a10.39,10.39,0,0,0,10.39-10.39V43.65A10.39,10.39,0,0,0,429.45,33.27Z"/><rect class="cls-5" x="69.78" y="60.6" width="355.86" height="201.89"/><path class="cls-3" d="M429.45,26.14H52.83A17.53,17.53,0,0,0,35.32,43.65V266.3a17.54,17.54,0,0,0,17.51,17.52H429.45A17.52,17.52,0,0,0,447,266.3V43.65A17.53,17.53,0,0,0,429.45,26.14ZM439.84,266.3a10.39,10.39,0,0,1-10.39,10.39H52.83A10.39,10.39,0,0,1,42.45,266.3V43.65A10.38,10.38,0,0,1,52.83,33.27H429.45a10.39,10.39,0,0,1,10.39,10.38Z"/><rect class="cls-6" x="70.35" y="61.17" width="341.59" height="187.62"/><path class="cls-3" d="M63.22,54V255.92H419.07V54ZM411.94,248.79H70.35V61.17H411.94Z"/><path class="cls-7" d="M475.15,300.59H292.74a14.93,14.93,0,0,1-14.94,14.93H204.49a14.93,14.93,0,0,1-14.94-14.93H7.14a38.77,38.77,0,0,0,38.77,38.77H436.38A38.77,38.77,0,0,0,475.15,300.59Z"/><path class="cls-8" d="M51.84,275.69V53A10.38,10.38,0,0,1,62.22,42.66H438.84c.32,0,.64,0,1,0a10.38,10.38,0,0,0-10.34-9.43H52.83A10.38,10.38,0,0,0,42.45,43.65V266.3a10.38,10.38,0,0,0,9.43,10.34C51.86,276.33,51.84,276,51.84,275.69Z"/><polygon class="cls-9" points="79.74 70.56 411.94 70.56 411.94 61.17 70.35 61.17 70.35 248.79 79.74 248.79 79.74 70.56"/><path class="cls-10" d="M213.87,324.91h73.32A14.94,14.94,0,0,0,302.13,310H474a39.18,39.18,0,0,0,1.14-9.38H292.74a14.93,14.93,0,0,1-14.94,14.93H204.49a14.77,14.77,0,0,1-4.77-.78A14.94,14.94,0,0,0,213.87,324.91Z"/><path class="cls-10" d="M16.52,310H192.87a14.83,14.83,0,0,1-3.32-9.38H7.14a38.72,38.72,0,0,0,16.45,31.7A38.6,38.6,0,0,1,16.52,310Z"/><path class="cls-3" d="M475.15,293.45H285.61v7.14a7.82,7.82,0,0,1-7.81,7.8H204.49a7.81,7.81,0,0,1-7.81-7.8v-7.14H0v7.14A45.88,45.88,0,0,0,45.91,346.5H436.38a45.88,45.88,0,0,0,45.91-45.91v-7.14ZM45.91,339.36A38.77,38.77,0,0,1,7.14,300.59H189.55a14.93,14.93,0,0,0,14.94,14.93H277.8a14.93,14.93,0,0,0,14.94-14.93H475.15a38.77,38.77,0,0,1-38.77,38.77Z"/><path class="cls-2" d="M327.85,231.88l.09-.12.21-.27.08-.1c.09-.11.18-.23.26-.35v0c.1-.13.19-.27.28-.4h0c.09-.13.17-.26.25-.39l0-.05.21-.36,0-.05c.08-.14.16-.27.23-.41h0a16.14,16.14,0,0,0-3.28-19.52l-31.34-28.78a16.12,16.12,0,0,0-11.58-4.22,16,16,0,0,0-5.83,1.35l-7.94-7.29a54.78,54.78,0,1,0-9.37,10.2l7.95,7.29a16.13,16.13,0,0,0,4.33,17.1l31.35,28.78a16.1,16.1,0,0,0,17.58,2.79,15.89,15.89,0,0,0,5.18-3.76l.64-.7.31-.35.1-.11Z"/><path class="cls-11" d="M266.53,170.21c-1,1-2.06,2-3.13,2.9l6.8,6.81a16,16,0,0,1,2.36-3l.68-.68a16.09,16.09,0,0,1,3-2.36l-6.8-6.8Q268,168.7,266.53,170.21Z"/><path class="cls-7" d="M264.65,168.33a51.81,51.81,0,1,0-17.21,11.44A51.66,51.66,0,0,0,264.65,168.33Z"/><path class="cls-4" d="M324.23,208.21l-30.09-30.09a13.48,13.48,0,0,0-19,0l-.67.68a13.45,13.45,0,0,0,0,19l30.09,30.09a13.47,13.47,0,0,0,19,0l.68-.68A13.47,13.47,0,0,0,324.23,208.21Z"/><path class="cls-12" d="M259.06,103.61a44.12,44.12,0,1,0,0,62.42A43.86,43.86,0,0,0,259.06,103.61Z"/><path class="cls-3" d="M326.1,206.33,296,176.24a16.11,16.11,0,0,0-11.39-4.71,15.91,15.91,0,0,0-5.88,1.11L271.12,165a54.82,54.82,0,1,0-9.79,9.79l7.63,7.63a16.12,16.12,0,0,0,3.6,17.27l30.09,30.09a16.12,16.12,0,0,0,22.78,0l.67-.68A16.11,16.11,0,0,0,326.1,206.33Zm-2.55,21.58a13.47,13.47,0,0,1-19,0l-30.09-30.09a13.45,13.45,0,0,1,0-19l.67-.68a13.48,13.48,0,0,1,19,0l30.09,30.09a13.47,13.47,0,0,1,0,19Zm-50.31-51.67-.68.68a16,16,0,0,0-2.36,3l-6.8-6.81c1.07-.92,2.12-1.89,3.13-2.9s2-2.05,2.9-3.13l6.8,6.8A16.09,16.09,0,0,0,273.24,176.24Zm-25.8,3.53a52,52,0,0,1-56.38-11.44,52,52,0,1,1,56.38,11.44Z"/><path class="cls-11" d="M257.19,102.2a41.49,41.49,0,1,0-37.27,70,41.75,41.75,0,0,0,15.86,0,41.72,41.72,0,0,0,7.69-2.28,41.47,41.47,0,0,0,13.72-67.76Z"/><path class="cls-13" d="M266.53,173.28q1.52-1.51,2.9-3.14l5,5a17.07,17.07,0,0,1,1.79-1.27l-6.8-6.8q-1.38,1.62-2.9,3.13c-1,1-2.06,2-3.13,2.9l1.62,1.62C265.53,174.26,266,173.77,266.53,173.28Z"/><path class="cls-14" d="M179.63,115a52,52,0,0,1,48.22-32.46,52,52,0,0,1,52,50.51c0-.51,0-1,0-1.53a52,52,0,1,0-104.07,0c0,.51,0,1,0,1.53A51.76,51.76,0,0,1,179.63,115Z"/><path class="cls-8" d="M274.44,182.61l.67-.68a13.48,13.48,0,0,1,19,0L324.23,212a13.46,13.46,0,0,1,3.8,7.61,13.48,13.48,0,0,0-3.8-11.42l-30.09-30.09a13.48,13.48,0,0,0-19,0l-.67.68a13.42,13.42,0,0,0-3.8,11.41A13.37,13.37,0,0,1,274.44,182.61Z"/><path class="cls-9" d="M198.52,105.27a41.46,41.46,0,0,1,70.77,27.8,41.47,41.47,0,1,0-82.92-1.53q0,.77,0,1.53A41.19,41.19,0,0,1,198.52,105.27Z"/><path class="cls-3" d="M259.06,100.33a44.11,44.11,0,1,0,0,62.42A43.82,43.82,0,0,0,259.06,100.33Zm-23.28,71.91a41.75,41.75,0,0,1-15.86,0A41.5,41.5,0,1,1,243.47,170,41.72,41.72,0,0,1,235.78,172.24Z"/></g></g></g></svg>