<svg xmlns="http://www.w3.org/2000/svg" viewBox="0 0 426.72 433.86"><defs><style>.cls-1{fill:#486e2b;}.cls-2{fill:#708d54;}</style></defs><title>Asset 2</title><g id="Layer_2" data-name="Layer 2"><g id="Layer_1-2" data-name="Layer 1"><path class="cls-1" d="M154.71,5.24a1.11,1.11,0,0,1,.68-.47.94.94,0,0,1,.68.1.85.85,0,0,1,.41.56L157,7.65l2.51-.58,1.72-.38a1.39,1.39,0,0,1,.76,0,.71.71,0,0,1,.46.57,1,1,0,0,1-.17.81,1.12,1.12,0,0,1-.68.46l-5,1.1c-1.65.38-3.29.74-4.94,1.1a.93.93,0,0,1-.69-.09.82.82,0,0,1-.4-.55.89.89,0,0,1,.09-.64,1.12,1.12,0,0,1,.43-.48.69.69,0,0,1,.29-.13c.49-.14,1-.26,1.47-.35l1.49-.31.65-.14-.45-2A1,1,0,0,1,154.71,5.24Zm-1.5,9.11a3.77,3.77,0,0,1,.76-1.88,6.2,6.2,0,0,1,1.55-1.35,5.93,5.93,0,0,1,.89-.48,5.75,5.75,0,0,1,.94-.31,9,9,0,0,1,1.68-.2,3.9,3.9,0,0,1,1.51.26,2.82,2.82,0,0,1,1.18.85,3.67,3.67,0,0,1,.71,1.58,3.85,3.85,0,0,1,0,1.65,4.26,4.26,0,0,1-.56,1.42,4.68,4.68,0,0,1-1,1.15,5.89,5.89,0,0,1-1.37.81l.5,2.26c1.1-.27,2.18-.54,3.26-.79l3.27-.76c-.2-.89-.38-1.77-.56-2.64s-.35-1.75-.53-2.64c-.13-.62-.25-1.23-.37-1.86s-.25-1.23-.38-1.85c-.19-.83-.38-1.66-.59-2.48s-.41-1.65-.6-2.48a1,1,0,0,1,.18-.81,1.07,1.07,0,0,1,.67-.46.89.89,0,0,1,1,.33,1.39,1.39,0,0,1,.16.43l.25.9c.09.36.19.74.28,1.14s.19.8.27,1.18.16.72.23,1,.11.5.13.61c.41,1.88.81,3.74,1.17,5.59s.76,3.71,1.17,5.57c0,.08,0,.2.08.35s.07.31.11.49.06.33.08.47a1.27,1.27,0,0,1,0,.31,1.24,1.24,0,0,1-.28.63,1,1,0,0,1-1.27.26.8.8,0,0,1-.4-.57L167,20.47l-3.83.87c-1.26.29-2.54.6-3.82.93l-2,.47-1.95.5-.85.24-.86.2a.89.89,0,0,1-.68-.09.82.82,0,0,1-.41-.57.85.85,0,0,1,.09-.63,1.35,1.35,0,0,1,.43-.49,2.1,2.1,0,0,1,.5-.18c.25-.07.53-.15.84-.22l.88-.22.61-.14,1-.26,1-.26-.5-2.26a5.59,5.59,0,0,1-1.42,0,3.62,3.62,0,0,1-1.26-.43,3.05,3.05,0,0,1-1-.87,3.51,3.51,0,0,1-.6-1.37A3.55,3.55,0,0,1,153.21,14.35ZM157,12.46q-.26.13-.51.3a3.5,3.5,0,0,0-1,.94,1.7,1.7,0,0,0-.22,1.37,1.58,1.58,0,0,0,.43.81,1.75,1.75,0,0,0,.73.43,2.76,2.76,0,0,0,.88.11,5.64,5.64,0,0,0,.92-.11,5.16,5.16,0,0,0,.73-.24,3.09,3.09,0,0,0,.73-.42,3.25,3.25,0,0,0,.59-.58,1.94,1.94,0,0,0,.33-.73,2.25,2.25,0,0,0,0-.89,1.84,1.84,0,0,0-.42-.91,1.34,1.34,0,0,0-.7-.4,2.5,2.5,0,0,0-.87,0,8.46,8.46,0,0,0-1,.15A2.78,2.78,0,0,0,157,12.46Z"/><path class="cls-1" d="M184.34,4.05c-.13-.84-.26-1.68-.36-2.52a1,1,0,0,1,.24-.79,1.1,1.1,0,0,1,.71-.4.91.91,0,0,1,.92.41,1.36,1.36,0,0,1,.12.44c.05.26.1.56.17.92s.12.75.18,1.17.11.81.16,1.2.1.72.13,1,.07.51.08.62c.25,1.91.47,3.8.68,5.67s.42,3.76.67,5.65c0,.09,0,.21,0,.36s0,.32.07.49,0,.34,0,.48a2.29,2.29,0,0,1,0,.31,1.31,1.31,0,0,1-.33.6,1.05,1.05,0,0,1-.62.31,1,1,0,0,1-.67-.16.86.86,0,0,1-.36-.6l-.43-3.41-1.82.34-2.38.41L179,17l-2.39.4-1.85.32-.95.15c-.25,0-.49.07-.74.12s-.49.08-.74.12a.94.94,0,0,1-.67-.16.79.79,0,0,1-.35-.58.87.87,0,0,1,.14-.65,1.19,1.19,0,0,1,.47-.42,3.25,3.25,0,0,1,.64-.16c.34-.07.71-.14,1.13-.2l1.18-.2.8-.12,3.35-.57c1.1-.18,2.21-.38,3.34-.58l.33-.07.34,0,1.32-.24a9.41,9.41,0,0,0,1.2-.22c-.08-.61-.16-1.2-.22-1.79s-.14-1.18-.2-1.79-.13-1.26-.2-1.88-.14-1.26-.22-1.88C184.6,5.73,184.48,4.89,184.34,4.05Zm-6.1-2.3A4.3,4.3,0,0,1,181,3.24a6,6,0,0,1,1.15,3c0,.23.05.46.07.68a3.83,3.83,0,0,1,0,.68,5.9,5.9,0,0,1-.39,1.79,5.35,5.35,0,0,1-.91,1.53,4.93,4.93,0,0,1-3.14,1.67,7.22,7.22,0,0,1-2.38-.06,4.9,4.9,0,0,1-1.92-.83,4.69,4.69,0,0,1-1.37-1.58,6.29,6.29,0,0,1-.7-2.28,4.53,4.53,0,0,1,.22-2.09,5.82,5.82,0,0,1,1-1.89,6.59,6.59,0,0,1,1.64-1.42,5.07,5.07,0,0,1,2-.71A6.36,6.36,0,0,1,178.24,1.75Zm1.71,4a2.89,2.89,0,0,0-.43-.94,2.63,2.63,0,0,0-.72-.69,2.8,2.8,0,0,0-1.11-.41,4.77,4.77,0,0,0-1.36,0,2.78,2.78,0,0,0-1.19.44,4.05,4.05,0,0,0-1,.88,3.63,3.63,0,0,0-.63,1.16,2.75,2.75,0,0,0-.12,1.27,3.64,3.64,0,0,0,1.36,2.66,4,4,0,0,0,2.93.58,2.79,2.79,0,0,0,1.23-.45,2.72,2.72,0,0,0,.81-.88,3.72,3.72,0,0,0,.41-1.16,4.63,4.63,0,0,0,0-1.29A7.8,7.8,0,0,0,180,5.7Z"/><path class="cls-1" d="M194.67,16.77c.07-.27.15-.54.25-.84l.27-.87c.08-.29.14-.49.18-.61q.81-2.8,1.5-5.63c.45-1.87.87-3.78,1.23-5.7a4.17,4.17,0,0,0,.09-.51q0-.36.12-.75c0-.25.09-.49.13-.7a1.86,1.86,0,0,1,.12-.42A1.61,1.61,0,0,1,199,.29a1,1,0,0,1,.56-.19,1,1,0,0,1,.66.21.81.81,0,0,1,.3.63,2.4,2.4,0,0,1-.08.75c-.06.25-.11.5-.16.73-.44,2.26-.92,4.48-1.45,6.68s-1.12,4.4-1.77,6.6a4.36,4.36,0,0,0-.12.44c0,.16-.09.34-.14.53s-.1.36-.15.51a2.87,2.87,0,0,1-.16.37,1.53,1.53,0,0,1-.39.41,1,1,0,0,1-.53.16.88.88,0,0,1-.66-.21.83.83,0,0,1-.31-.62A2.39,2.39,0,0,1,194.67,16.77Z"/><path class="cls-1" d="M216.79,9c0,1.36,0,2.73-.1,4.11,0,.25,0,.51,0,.8a3.36,3.36,0,0,1-.11.8,1,1,0,0,1-.42.59,1.15,1.15,0,0,1-.69.21l-.46,0-.92-.08h-.46c-.93,0-1.84-.05-2.74,0s-1.82,0-2.74,0a1.17,1.17,0,0,1-.54-.15.79.79,0,0,1-.32-.43,6.21,6.21,0,0,1-.06-1.05c0-.62,0-1.39,0-2.29s0-1.89,0-3,0-2.09,0-3.06,0-1.82.05-2.55,0-1.23,0-1.5a1,1,0,0,1,.37-.73,1.1,1.1,0,0,1,.77-.28l1.08,0h2.18l1.07,0,.62,0,.76,0,.73.08a2.78,2.78,0,0,1,.57.12,1.76,1.76,0,0,1,.67.4,1.74,1.74,0,0,1,.48.75,5.47,5.47,0,0,1,.21,1A8,8,0,0,1,216.9,4c0,.36,0,.67,0,.93C216.83,6.28,216.8,7.65,216.79,9Zm-2.13,3.86c0-1.1.06-2.19.07-3.26s0-2.15.07-3.25c0-.24,0-.53,0-.88s0-.71,0-1.08a8.87,8.87,0,0,0,0-1,3.09,3.09,0,0,0-.17-.81v0c-.35,0-.7-.08-1.05-.1s-.7-.05-1-.06l-1.6,0h-1.59c0,1.86-.07,3.71-.08,5.55s0,3.7,0,5.58l2.31,0,1.53,0,1.53,0Zm8.48,3c0,.64-.08,1.29-.1,2,0,.12,0,.23,0,.34a1,1,0,0,1,0,.34,1.2,1.2,0,0,1-.43.61,1,1,0,0,1-.7.23.94.94,0,0,1-.64-.26.76.76,0,0,1-.25-.63l0-1.1.14-2.2c.06-1.64.12-3.28.17-4.91s.08-3.28.08-4.92c0-.73,0-1.46,0-2.18s0-1.44,0-2.18a1,1,0,0,1,.37-.72,1.12,1.12,0,0,1,.77-.27,1,1,0,0,1,.53.16.88.88,0,0,1,.33.44c0,.06,0,.2,0,.41s0,.44,0,.68,0,.48,0,.71,0,.38,0,.47c0,1.87,0,3.71-.06,5.55s-.08,3.68-.14,5.56C223.22,14.63,223.19,15.27,223.14,15.9Z"/><path class="cls-1" d="M232.63,9.66c.85,0,1.67.06,2.46.07h1l.35,0a1.29,1.29,0,0,1,.34,0,1,1,0,0,1,.62.32.83.83,0,0,1,.19.67,1,1,0,0,1-.24.53,1.06,1.06,0,0,1-.51.32,2.65,2.65,0,0,1-.67.07H235c-.48,0-1,0-1.54-.05l-1.55-.07c-.5,0-.94,0-1.32-.08s-.67,0-.83-.07a4.85,4.85,0,0,1-.89-.18,3.45,3.45,0,0,1-.86-.35,2.51,2.51,0,0,1-.69-.54,1.64,1.64,0,0,1-.35-.63,2.52,2.52,0,0,1-.09-.73c0-.26,0-.54,0-.85.06-1.1.15-2.19.26-3.25s.24-2.14.38-3.24a.91.91,0,0,1,.26-.54,1,1,0,0,1,.51-.31.94.94,0,0,1,.32-.05,4.76,4.76,0,0,1,1,.05c.33.05.66.08,1,.11l1.92.17,1.89.2,1,.13c.17,0,.32,0,.48.09a1.47,1.47,0,0,1,.43.16.92.92,0,0,1,.29.3.8.8,0,0,1,.07.5,1,1,0,0,1-.43.7,1.06,1.06,0,0,1-.79.21l-1.14-.15L233.26,3l-1.91-.17-1.89-.15c0,.14-.05.42-.09.83s-.09.88-.14,1.4l.28,0,4.55.33.56,0,.56,0a.94.94,0,0,1,.61.32.81.81,0,0,1,.2.67,1,1,0,0,1-.26.55,1.12,1.12,0,0,1-.52.31,1.87,1.87,0,0,1-.64,0l-.68-.06-4.55-.33a1.74,1.74,0,0,0-.31,0c0,.57-.08,1.07-.1,1.48a2,2,0,0,0,0,.7.41.41,0,0,0,.21.17,2.83,2.83,0,0,0,.35.14l.38.09.29.05C231,9.57,231.78,9.63,232.63,9.66Zm-3.94,5.83a4.29,4.29,0,0,1,.66-.85A4.67,4.67,0,0,1,231,13.57a7.68,7.68,0,0,1,1.86-.46,11.51,11.51,0,0,1,1.95,0c.66,0,1.3.11,1.93.19s1,.16,1.57.28a6.8,6.8,0,0,1,1.5.51,5.8,5.8,0,0,1,1.05.6,3.9,3.9,0,0,1,.86.81,3.79,3.79,0,0,1,.55,1,2.72,2.72,0,0,1,.1,1.18,3.56,3.56,0,0,1-.54,1.47,4.8,4.8,0,0,1-1.21,1.33,4.61,4.61,0,0,1-1.36.59,10.18,10.18,0,0,1-1.68.32,14.58,14.58,0,0,1-1.73.1c-.57,0-1.07,0-1.51-.09s-.89-.14-1.38-.24a10.51,10.51,0,0,1-1.42-.43,7.61,7.61,0,0,1-1.31-.65,5.27,5.27,0,0,1-1.08-.9,3.4,3.4,0,0,1-.67-1.17,3.45,3.45,0,0,1-.11-1.49A2.64,2.64,0,0,1,228.69,15.49ZM235,15a13.57,13.57,0,0,0-1.43-.05,6.85,6.85,0,0,0-1.39.19,3,3,0,0,0-1.16.6,2.72,2.72,0,0,0-.37.39.84.84,0,0,0-.21.47,1.58,1.58,0,0,0,.37,1.29,3.7,3.7,0,0,0,1.17.86,6.7,6.7,0,0,0,1.49.5c.52.12,1,.2,1.33.25s.64.06,1.08.07a12.57,12.57,0,0,0,1.36,0,10.31,10.31,0,0,0,1.31-.19,2.65,2.65,0,0,0,1-.38,1.75,1.75,0,0,0,.55-.59,2.1,2.1,0,0,0,.27-.77,1,1,0,0,0,0-.5,2,2,0,0,0-.26-.42,2.45,2.45,0,0,0-.74-.64,5.27,5.27,0,0,0-1-.45,6.32,6.32,0,0,0-1-.29c-.34-.06-.67-.12-1-.15S235.43,15,235,15Zm6.39-10.33c0-.3,0-.61,0-.92a5.74,5.74,0,0,1,.05-.93,1,1,0,0,1,.43-.7,1.11,1.11,0,0,1,.79-.21c.38.05.61.19.7.43a2.21,2.21,0,0,1,.12.85c0,.51,0,1-.06,1.53s-.09,1-.15,1.52l-.29,2.3c-.06.58-.11,1.16-.16,1.74s-.12,1.15-.19,1.72a1.43,1.43,0,0,1-.39.84,1,1,0,0,1-.88.28.94.94,0,0,1-.61-.32.79.79,0,0,1-.2-.67l.14-1.11.22-2.24L241,7.66Z"/><path class="cls-1" d="M257.14,18.12l-3.46-.81-3.46-.82-.53-.13a2.63,2.63,0,0,1-.54-.2.9.9,0,0,1-.37-.35.77.77,0,0,1,0-.59.87.87,0,0,1,.36-.54,1.13,1.13,0,0,1,.6-.24.33.33,0,0,1,.17,0,.33.33,0,0,0,.14,0c.46.08.93.19,1.4.32l1.38.35,2.23.54,4.43,1,2.2.53.54.12.94.23,1.12.28,1.1.29.87.24a2,2,0,0,1,.41.15.82.82,0,0,1,.37.92,1,1,0,0,1-.51.65,1.07,1.07,0,0,1-.81.12c-1.09-.26-2.19-.53-3.28-.81l-3.27-.81v0l-.17.71c-.17.71-.34,1.4-.49,2.06s-.31,1.34-.45,2c0,.16-.05.32-.08.48s-.06.32-.1.48a.92.92,0,0,1-.5.61,1.11,1.11,0,0,1-.81.11.85.85,0,0,1-.71-.69,1.76,1.76,0,0,1,.05-.53c0-.29.11-.64.19-1s.17-.84.28-1.3.2-.91.31-1.33l.27-1.14c.08-.33.13-.56.16-.69ZM260,9.05l-3.15-.61-1.35-.23c-.45-.08-.89-.17-1.33-.28a1,1,0,0,1-.58-.38.83.83,0,0,1-.12-.69,1,1,0,0,1,.33-.53,1.32,1.32,0,0,1,.58-.25l.51.06c.28,0,.63.09,1.07.18l1.45.27c.53.11,1.08.22,1.66.32,0-.18.08-.4.13-.64s.11-.46.16-.64a1,1,0,0,1,.51-.65,1.05,1.05,0,0,1,.81-.12.94.94,0,0,1,.49.25.87.87,0,0,1,.19.4,1.56,1.56,0,0,1,0,.48,4.35,4.35,0,0,1-.1.52c0,.1-.05.24-.09.41s-.05.31-.06.41l2.17.46c.64.13,1.06.23,1.27.28l.61.18a2.33,2.33,0,0,1,.61.31,1.16,1.16,0,0,1,.41.47,1,1,0,0,1,0,.66,1.37,1.37,0,0,1-.49.71,4.52,4.52,0,0,1-1,.65,11,11,0,0,1-1.4.58c-.52.19-1.07.35-1.64.5l1.17.91,1.14.88.88.69a4.33,4.33,0,0,1,.37.3.83.83,0,0,1,.16.74,1,1,0,0,1-.51.65,1.07,1.07,0,0,1-.81.12.86.86,0,0,1-.32-.15c-.08,0-.31-.21-.7-.5l-1.31-1-1.46-1.13-1.14-.89-.68.14-1.18.21-1.43.25-1.42.22q-.67.11-1.17.15a3.06,3.06,0,0,1-.65,0,1,1,0,0,1-.57-.39.83.83,0,0,1-.12-.69.93.93,0,0,1,.26-.45,1.27,1.27,0,0,1,.44-.28,2.29,2.29,0,0,1,.63-.11,3.91,3.91,0,0,0,.63-.07c.37,0,.74-.07,1.1-.13l1.08-.16c1.2-.19,2.4-.42,3.58-.7a25.48,25.48,0,0,0,3.49-1.06Z"/><path class="cls-1" d="M269.1,28.08a2.16,2.16,0,0,1-.4-1.1,4.36,4.36,0,0,1,.1-1.28c.09-.45.2-.88.31-1.31l.33-1.24c.1-.41.23-.82.36-1.22a1,1,0,0,1,.56-.6,1.12,1.12,0,0,1,.82,0,.81.81,0,0,1,.52.39.92.92,0,0,1,.1.55,2.15,2.15,0,0,1-.13.64c-.07.23-.14.43-.18.62s-.12.35-.22.7-.2.71-.29,1.1-.16.74-.21,1.08,0,.53,0,.6a.3.3,0,0,0,.13.09l.15.05.35.12.72.19.36.12,1.17.38,1.17.39c.71.24,1.41.48,2.1.73s1.39.49,2.1.73l.29.1.57.17.27.09.54.19a1.87,1.87,0,0,1,.53.26,1,1,0,0,1,.35.39.77.77,0,0,1,0,.6,1,1,0,0,1-.56.6,1.11,1.11,0,0,1-.82,0l-1.65-.55-3.29-1.18-1.67-.57-.93-.31c-.31-.11-.63-.2-.95-.3l-.74-.21-.73-.24A2.22,2.22,0,0,1,269.1,28.08Zm6.43-14.36-2-.51-.9-.19a5.51,5.51,0,0,1-.89-.22,1,1,0,0,1-.54-.44.79.79,0,0,1-.05-.69,1,1,0,0,1,.34-.48A1.16,1.16,0,0,1,272,11a.29.29,0,0,1,.16,0h.14a1.84,1.84,0,0,1,.42.1l.42.12,1.63.38.2-.37c0-.12.12-.25.19-.38s.2-.41.3-.64a2.88,2.88,0,0,1,.36-.62,1.34,1.34,0,0,1,.51-.41,1,1,0,0,1,.72,0,1,1,0,0,1,.54.44.79.79,0,0,1,0,.69,3.55,3.55,0,0,1-.31.69c-.14.23-.25.46-.36.68a.88.88,0,0,0-.09.2,1.07,1.07,0,0,1-.09.19c.32.07.62.15.92.24s.6.18.9.28a4,4,0,0,1,.6.26,1.84,1.84,0,0,1,.49.38,1.55,1.55,0,0,1,.28.52,1.15,1.15,0,0,1-.05.65,1.85,1.85,0,0,1-.46.74,5.08,5.08,0,0,1-.66.58,13.11,13.11,0,0,1-1.36.83c-.52.28-1,.53-1.44.73.18.23.37.46.55.67s.37.43.56.66.19.22.35.39.32.34.47.53.3.36.44.53a2.76,2.76,0,0,1,.26.36.78.78,0,0,1,.05.67,1,1,0,0,1-.56.6,1.12,1.12,0,0,1-.82.05.66.66,0,0,1-.19-.09,1,1,0,0,1-.17-.13,6.42,6.42,0,0,1-.44-.47l-.78-.91-.9-1.09-.77-.94-1.24.49-1.24.46-.69.24a3.55,3.55,0,0,1-.71.19h-.26a.75.75,0,0,1-.26,0,1,1,0,0,1-.54-.44.83.83,0,0,1-.06-.69,1.08,1.08,0,0,1,.5-.58,2,2,0,0,1,.45-.16,3,3,0,0,0,.43-.12l.53-.16.52-.18c1.06-.39,2.09-.81,3.11-1.25a20.29,20.29,0,0,0,3-1.61Zm6.89,12.37a1.16,1.16,0,0,1-.64,0,1,1,0,0,1-.54-.44.79.79,0,0,1-.05-.69,6.42,6.42,0,0,1,.24-.66l.27-.66c.2-.55.4-1.09.59-1.63s.39-1.08.6-1.63l.06-.17.13-.3.05-.17-.65-.23c-.21-.08-.39-.15-.53-.19l-2.69-.89a.93.93,0,0,1-.54-.43.93.93,0,0,1,.61-1.33,1.85,1.85,0,0,1,1,.07l.88.29,1.76.57.87.3c.22-.65.42-1.3.59-1.95s.37-1.29.58-1.93a1,1,0,0,1,.56-.6,1.12,1.12,0,0,1,.82-.05.91.91,0,0,1,.49.37.87.87,0,0,1,.16.59,2.19,2.19,0,0,1-.09.38c-.05.16-.1.33-.16.51s-.12.36-.16.52l-.12.39c-.12.38-.23.76-.35,1.15s-.23.77-.36,1.14c-.22.65-.45,1.29-.68,1.92s-.47,1.26-.7,1.91-.41,1.08-.59,1.64a12.64,12.64,0,0,1-.66,1.63.49.49,0,0,1-.06.13l-.09.12A1.12,1.12,0,0,1,282.42,26.09Z"/><path class="cls-1" d="M295.59,34.55l-.76-.4-.38-.18c-.74-.35-1.49-.67-2.23-1s-1.49-.61-2.23-1a1.09,1.09,0,0,1-.43-.35.76.76,0,0,1-.14-.52,7.66,7.66,0,0,1,.35-1c.23-.58.53-1.29.88-2.12s.74-1.74,1.17-2.72.84-1.91,1.23-2.8.74-1.66,1-2.33.5-1.13.61-1.36a1,1,0,0,1,.62-.54,1.15,1.15,0,0,1,.82,0q1,.46,1.95.87l1.93.86.6.3a5.38,5.38,0,0,1,.66.38,3.79,3.79,0,0,1,.58.46,1.73,1.73,0,0,1,.37.52,2.18,2.18,0,0,1,.1,1,5.8,5.8,0,0,1-.25,1.12,9.62,9.62,0,0,1-.42,1.1c-.17.35-.31.66-.43.93l-.42.89.26.12a1.73,1.73,0,0,1,.24.1l1,.43.25.11.26.1.48-1.08,1.76-3.79a1,1,0,0,1,.62-.53,1.21,1.21,0,0,1,.82.05.87.87,0,0,1,.52.55,1.1,1.1,0,0,1-.1.74l-1.77,3.79L301.72,35,300,38.79a1,1,0,0,1-.62.53,1.1,1.1,0,0,1-.82,0,.85.85,0,0,1-.52-.55,1.05,1.05,0,0,1,.1-.74l1.77-3.81,2.19-4.8-.25-.11-.26-.1-1-.43-.26-.1-.25-.11-1.22,2.72c-.4.9-.82,1.81-1.24,2.71a1.74,1.74,0,0,1-.64.75.92.92,0,0,1-.95,0Zm1.78-5.1c.45-1,.92-2.06,1.41-3.1l.39-.84.51-1.12a10.6,10.6,0,0,0,.43-1.12,2.46,2.46,0,0,0,.17-.83q-.39-.24-.81-.45l-.83-.41L297.42,21l-1.24-.52Q295,23.06,294,25.59t-2.19,5.14l1.85.77c.61.26,1.22.53,1.83.82l.52.24C296.44,31.52,296.91,30.49,297.37,29.45Zm4,11.46a1.8,1.8,0,0,1,.14-.78c.24-.58.49-1.16.75-1.73s.5-1.14.74-1.72c.53-1.21,1-2.42,1.57-3.62l1.54-3.63L307.56,26c.13-.28.25-.56.37-.85s.24-.57.38-.87a.93.93,0,0,1,.62-.52,1.13,1.13,0,0,1,.81.05c.34.16.52.37.54.62a1.89,1.89,0,0,1-.15.78q-1.14,2.67-2.28,5.31c-.75,1.76-1.51,3.52-2.26,5.29-.39.89-.76,1.77-1.13,2.64s-.75,1.75-1.16,2.63a.93.93,0,0,1-.62.52,1.12,1.12,0,0,1-.81,0C301.53,41.34,301.36,41.15,301.34,40.91Z"/><path class="cls-1" d="M319.79,44l-1.36-.77c-.24.51-.49,1-.76,1.51l-.78,1.49-.36.72c-.12.24-.24.49-.34.73s-.12.26-.18.38a2.69,2.69,0,0,1-.19.38,1,1,0,0,1-.67.47,1.12,1.12,0,0,1-.81-.11,1.24,1.24,0,0,1-.37-.35.76.76,0,0,1-.11-.49,2.31,2.31,0,0,1,.22-.67c.15-.33.32-.69.51-1.07s.37-.75.56-1.1l.38-.74c.17-.36.35-.72.52-1.09s.36-.72.55-1.07c-.85-.44-1.69-.89-2.51-1.37L313,40.18q-.36.75-.75,1.47c-.26.48-.51,1-.77,1.46-.1.23-.2.46-.32.7s-.23.47-.33.7l-.17.38-.19.38a1,1,0,0,1-.67.47,1.06,1.06,0,0,1-1.18-.46.77.77,0,0,1-.12-.49,4.58,4.58,0,0,1,.32-.83c.21-.46.45-1,.73-1.57s.58-1.19.88-1.78.55-1.09.75-1.46l-.39-.22-.4-.21c-.51-.28-1-.56-1.54-.82s-1-.54-1.52-.83a.92.92,0,0,1-.44-.53.93.93,0,0,1,.82-1.18,2.17,2.17,0,0,1,.91.22c1.35.7,2.66,1.41,4,2.15s2.6,1.48,3.92,2.21l.3.16.3.16,1.22.66.3.16.3.16c.64.33,1.27.68,1.89,1l1.87,1.08a4.81,4.81,0,0,1,.41.27,1.5,1.5,0,0,1,.34.32.92.92,0,0,1,.15.4.85.85,0,0,1-.14.5,1,1,0,0,1-.67.47,1.07,1.07,0,0,1-.81-.11l-.19-.11-.39-.25-.21-.12Zm-5.07-8.1a6.3,6.3,0,0,1-1-.78,3.38,3.38,0,0,1-.7-1,1.84,1.84,0,0,1-.14-1.17c0-.15.1-.32.17-.52s.17-.39.27-.59l.31-.6c.1-.19.2-.36.28-.5.17-.33.36-.68.55-1s.37-.69.54-1c.09-.18.17-.36.25-.54a3.31,3.31,0,0,1,.27-.53,1,1,0,0,1,.67-.48,1.12,1.12,0,0,1,.81.12.85.85,0,0,1,.48.78,2.63,2.63,0,0,1-.28.8c-.18.41-.4.84-.65,1.31s-.48.92-.71,1.35l-.5.9a3.54,3.54,0,0,1-.22.43.86.86,0,0,0-.15.44s0,0,0,.09a.84.84,0,0,1,0,.1,1.06,1.06,0,0,0,.28.39,3.42,3.42,0,0,0,.45.37,4.78,4.78,0,0,0,.5.33l.42.24c.76.44,1.53.87,2.32,1.28l2.34,1.25.88.44c.28.14.57.29.86.46a.91.91,0,0,1,.44.54.78.78,0,0,1-.08.68,1,1,0,0,1-.47.42,1.1,1.1,0,0,1-.62.07,3.07,3.07,0,0,1-.6-.24c-.32-.15-.7-.35-1.14-.58l-1.42-.75-1.45-.79-1.24-.68-.74-.42C315.41,36.28,315.08,36.07,314.72,35.85Z"/><path class="cls-2" d="M338.9,54.51a3,3,0,0,1-1.79-.59l-.39-.29a3,3,0,1,1,3.56-4.83l.41.3a3,3,0,0,1-1.79,5.41Z"/><path class="cls-2" d="M219.32,433.86a3,3,0,0,1-.08-6l1,0h.1a3,3,0,0,1,.1,6l-1,0Zm-19.83-.4h-.21l-1-.07a3,3,0,1,1,.43-6l1,.07a3,3,0,0,1-.2,6Zm40.58-1.19a3,3,0,0,1-.38-6l1-.12a3,3,0,0,1,.78,5.95l-1,.13ZM178.8,431a2.89,2.89,0,0,1-.5,0l-1-.17a3,3,0,0,1,1-5.92l1,.17a3,3,0,0,1-.49,6Zm81.78-2.42a3,3,0,0,1-.68-5.92l1-.23a3,3,0,0,1,1.37,5.84l-1,.23A3.23,3.23,0,0,1,260.58,428.62Zm-102.13-2a3,3,0,0,1-.78-.1l-1-.26a3,3,0,0,1,1.58-5.79l.95.26a3,3,0,0,1-.78,5.89Zm122.16-3.67a3,3,0,0,1-1-5.84l.92-.31a3,3,0,0,1,1.95,5.67l-.95.33A3.25,3.25,0,0,1,280.61,422.94Zm-142-2.73a2.84,2.84,0,0,1-1.06-.2l-.93-.35a3,3,0,0,1,2.14-5.61l.92.35a3,3,0,0,1-1.07,5.81ZM300,415.31a3,3,0,0,1-1.24-5.73l.89-.41a3,3,0,0,1,2.5,5.46l-.92.42A3,3,0,0,1,300,415.31Zm-180.43-3.45a3.05,3.05,0,0,1-1.34-.31l-.9-.45a3,3,0,0,1,2.7-5.36l.88.44a3,3,0,0,1-1.34,5.68Zm199-6.05a3,3,0,0,1-1.51-5.6l.85-.5a3,3,0,0,1,3,5.19l-.87.5A2.89,2.89,0,0,1,318.51,405.81Zm-217.13-4.15a3,3,0,0,1-1.59-.46l-.85-.54a3,3,0,1,1,3.21-5.07l.83.53a3,3,0,0,1-1.6,5.54ZM336,394.52a3,3,0,0,1-1.75-5.44l.79-.57a3,3,0,0,1,3.52,4.86l-.82.59A3,3,0,0,1,336,394.52ZM84.33,389.7a3,3,0,0,1-1.84-.63l-.8-.63a3,3,0,1,1,3.71-4.71l.77.6a3,3,0,0,1-1.84,5.37Zm268-8.13a3,3,0,0,1-2-5.26l.73-.64a3,3,0,1,1,4,4.49l-.76.67A3,3,0,0,1,352.32,381.57ZM68.55,376.11a3,3,0,0,1-2.07-.83l-.73-.7a3,3,0,1,1,4.16-4.32l.7.67a3,3,0,0,1-2.06,5.18Zm298.73-9a3,3,0,0,1-2.19-5.05l.66-.71a3,3,0,1,1,4.41,4.07l-.7.74A3,3,0,0,1,367.28,367.08ZM54.18,361a3,3,0,0,1-2.28-1l-.65-.76a3,3,0,0,1,4.56-3.9l.64.75A3,3,0,0,1,54.18,361Zm326.55-9.84a3,3,0,0,1-1.82-.62,3,3,0,0,1-.56-4.21l.59-.77a3,3,0,1,1,4.79,3.62l-.62.8A3,3,0,0,1,380.73,351.18ZM41.37,344.6a3,3,0,0,1-2.46-1.27l-.57-.82a3,3,0,1,1,4.92-3.44l.56.81a3,3,0,0,1-.73,4.18A2.94,2.94,0,0,1,41.37,344.6ZM392.55,334a2.94,2.94,0,0,1-1.58-.45,3,3,0,0,1-1-4.12l.51-.84a3,3,0,1,1,5.12,3.13l-.53.86A3,3,0,0,1,392.55,334ZM30.23,327a3,3,0,0,1-2.61-1.52l-.49-.88a3,3,0,1,1,5.23-2.93l.48.84a3,3,0,0,1-1.13,4.09A2.94,2.94,0,0,1,30.23,327ZM402.6,315.78a2.93,2.93,0,0,1-1.31-.31,3,3,0,0,1-1.39-4l.43-.89a3,3,0,1,1,5.41,2.61l-.44.91A3,3,0,0,1,402.6,315.78ZM20.88,308.4a3,3,0,0,1-2.74-1.78l-.41-.93a3,3,0,1,1,5.5-2.39l.39.88a3,3,0,0,1-1.52,4A2.94,2.94,0,0,1,20.88,308.4Zm389.9-11.79a3,3,0,0,1-1-.18,3,3,0,0,1-1.77-3.85l.33-.93a3,3,0,0,1,5.64,2.06l-.34.94A3,3,0,0,1,410.78,296.61ZM13.41,289a3,3,0,0,1-2.85-2.06l-.31-.95A3,3,0,0,1,16,284.1l.31.93a3,3,0,0,1-1.92,3.79A3.06,3.06,0,0,1,13.41,289ZM417,276.75a2.76,2.76,0,0,1-.75-.1,3,3,0,0,1-2.16-3.65l.25-1a3,3,0,1,1,5.81,1.49l-.25,1A3,3,0,0,1,417,276.75ZM7.91,268.89A3,3,0,0,1,5,266.54l-.21-1a3,3,0,0,1,5.87-1.26l.2.95a3,3,0,0,1-2.28,3.58A3.59,3.59,0,0,1,7.91,268.89Zm413.36-12.53a2.56,2.56,0,0,1-.47,0,3,3,0,0,1-2.49-3.43l.15-1a3,3,0,1,1,5.93.91l-.16,1A3,3,0,0,1,421.27,256.36Zm-416.84-8a3,3,0,0,1-3-2.65l-.12-1a3,3,0,1,1,6-.69l.11,1a3,3,0,0,1-2.62,3.34Zm419.09-12.7h-.18a3,3,0,0,1-2.82-3.17l.06-1a3,3,0,0,1,6,.31l-.06,1A3,3,0,0,1,423.52,235.66ZM3,227.58a3,3,0,0,1-3-2.94l0-1a3,3,0,0,1,3-3.05H3a3,3,0,0,1,3,2.95l0,1a3,3,0,0,1-2.95,3.05Zm420.7-12.75a3,3,0,0,1-3-2.88l0-1a3,3,0,1,1,6-.26l0,1a3,3,0,0,1-2.87,3.12Zm-420-8.06H3.43a3,3,0,0,1-2.75-3.23l.08-1a3,3,0,1,1,6,.52l-.08,1A3,3,0,0,1,3.67,206.77ZM421.84,194.1a3,3,0,0,1-3-2.59l-.14-1a3,3,0,1,1,5.93-.87l.15,1a3,3,0,0,1-2.56,3.39A3,3,0,0,1,421.84,194.1Zm-415.48-8a3.23,3.23,0,0,1-.53,0,3,3,0,0,1-2.42-3.49l.18-1a3,3,0,0,1,5.9,1.08l-.18,1A3,3,0,0,1,6.36,186.11Zm411.56-12.46a3,3,0,0,1-2.91-2.29l-.24-.94a3,3,0,0,1,5.82-1.46l.25,1a3,3,0,0,1-2.21,3.63A3.51,3.51,0,0,1,417.92,173.65ZM11.05,165.82a2.82,2.82,0,0,1-.81-.11A3,3,0,0,1,8.16,162l.28-1a3,3,0,0,1,5.77,1.67l-.27.94A3,3,0,0,1,11.05,165.82ZM412,153.69a3,3,0,0,1-2.83-2l-.32-.92a3,3,0,1,1,5.64-2l.34.94a3,3,0,0,1-1.83,3.83A2.92,2.92,0,0,1,412,153.69ZM17.72,146.08a3.06,3.06,0,0,1-1.1-.21,3,3,0,0,1-1.68-3.9l.37-.93a3,3,0,0,1,5.57,2.22l-.36.92A3,3,0,0,1,17.72,146.08ZM404.1,134.42a3,3,0,0,1-2.72-1.72l-.42-.89a3,3,0,1,1,5.42-2.57l.43.9a3,3,0,0,1-1.44,4A2.9,2.9,0,0,1,404.1,134.42ZM26.33,127.1a3,3,0,0,1-1.38-.34,3,3,0,0,1-1.29-4l.47-.9a3,3,0,0,1,5.32,2.78l-.46.87A3,3,0,0,1,26.33,127.1Zm368-11.08a3,3,0,0,1-2.58-1.47l-.51-.84a3,3,0,1,1,5.15-3.09l.51.86a3,3,0,0,1-1,4.11A3,3,0,0,1,394.35,116Zm-357.57-7a3,3,0,0,1-1.63-.49,3,3,0,0,1-.89-4.15l.55-.84a3,3,0,0,1,5,3.29l-.53.82A3,3,0,0,1,36.78,109.07Zm346-10.41a3,3,0,0,1-2.41-1.22l-.59-.79a3,3,0,1,1,4.82-3.58l.59.81a3,3,0,0,1-.63,4.19A3,3,0,0,1,382.83,98.66ZM49,92.17a2.93,2.93,0,0,1-1.87-.66,3,3,0,0,1-.47-4.21l.63-.79a3,3,0,1,1,4.66,3.78l-.61.76A3,3,0,0,1,49,92.17Zm320.69-9.65a3,3,0,0,1-2.23-1l-.65-.73a3,3,0,1,1,4.44-4l.67.74a3,3,0,0,1-.22,4.24A3,3,0,0,1,369.66,82.52Zm-306.89-6a3,3,0,0,1-2.14-5.1l.71-.72A3,3,0,1,1,65.6,75l-.68.7A3,3,0,0,1,62.77,76.57ZM355,67.75a3,3,0,0,1-2-.78l-.72-.65a3,3,0,0,1,4-4.46l.75.68a3,3,0,0,1-2,5.21ZM78.05,62.4a3,3,0,0,1-1.93-5.29l.77-.65a3,3,0,1,1,3.84,4.61L80,61.7A3,3,0,0,1,78.05,62.4ZM94.64,49.81a3,3,0,0,1-1.7-5.47l.83-.57a3,3,0,1,1,3.37,5l-.81.55A3,3,0,0,1,94.64,49.81Zm17.75-10.9a3,3,0,0,1-1.45-5.63l.89-.48a3,3,0,0,1,2.86,5.27l-.86.47A3,3,0,0,1,112.39,38.91Z"/><path class="cls-2" d="M131.34,29.72A3,3,0,0,1,130.16,24l.48-.21A3,3,0,1,1,133,29.28l-.44.19A2.88,2.88,0,0,1,131.34,29.72Z"/></g></g></svg>