<svg xmlns="http://www.w3.org/2000/svg" viewBox="0 0 426.61 435.21"><defs><style>.cls-1{fill:#f29da0;}.cls-2{fill:#ec686b;}</style></defs><title>Asset 1</title><g id="Layer_2" data-name="Layer 2"><g id="Layer_1-2" data-name="Layer 1"><path class="cls-1" d="M320.23,43.57a2.94,2.94,0,0,1-1.53-.42l-.43-.25a3,3,0,0,1,3.06-5.16l.43.25a3,3,0,0,1-1.53,5.58Z"/><path class="cls-1" d="M221.46,435.21a3,3,0,0,1-.12-6l1,0a3,3,0,0,1,.25,6l-1,0Zm-19.8-.2h-.17l-1-.06a3,3,0,0,1,.37-6l1,.06a3,3,0,0,1-.17,6Zm40.52-1.61a3,3,0,0,1-.41-6l1-.14a3,3,0,0,1,.85,5.94l-1,.14ZM181,432.81a3.55,3.55,0,0,1-.46,0l-1-.16a3,3,0,1,1,.94-5.92l1,.15a3,3,0,0,1-.46,6Zm81.65-3.27a3,3,0,0,1-.7-5.92l.94-.23a3,3,0,1,1,1.43,5.83l-1,.23A2.8,2.8,0,0,1,262.62,429.54Zm-102-.92a2.74,2.74,0,0,1-.74-.1l-1-.25a3,3,0,1,1,1.52-5.8l.94.24a3,3,0,0,1-.74,5.91Zm122-4.95a3,3,0,0,1-1-5.83l.91-.33a3,3,0,0,1,2,5.66l-.95.33A2.83,2.83,0,0,1,282.56,423.67Zm-141.82-1.23a2.88,2.88,0,0,1-1-.19l-1-.35a3,3,0,0,1,2.1-5.62l.91.34a3,3,0,0,1-1,5.82Zm161.1-6.58a3,3,0,0,1-1.27-5.73l.88-.41a3,3,0,0,1,2.56,5.43l-.91.43A3,3,0,0,1,301.84,415.86Zm-180.25-1.55a3,3,0,0,1-1.31-.3l-.9-.44a3,3,0,1,1,2.63-5.39l.89.43a3,3,0,0,1-1.31,5.7Zm198.65-8.13a3,3,0,0,1-1.53-5.58l.84-.51a3,3,0,1,1,3.08,5.16l-.86.51A3,3,0,0,1,320.24,406.18Zm-216.9-1.86a3,3,0,0,1-1.57-.44l-.86-.53a3,3,0,0,1,3.16-5.1l.84.52a3,3,0,0,1-1.57,5.55Zm234.27-9.58a3,3,0,0,1-1.77-5.42l.78-.58a3,3,0,1,1,3.57,4.82l-.81.6A3,3,0,0,1,337.61,394.74ZM86.17,392.57a3,3,0,0,1-1.81-.61l-.8-.61a3,3,0,1,1,3.65-4.76l.78.59a3,3,0,0,1-1.82,5.39Zm267.6-10.93a3,3,0,0,1-2-5.23l.73-.65a3,3,0,1,1,4,4.45l-.74.67A3,3,0,0,1,353.77,381.64ZM70.25,379.18a3,3,0,0,1-2-.81l-.74-.69a3,3,0,1,1,4.12-4.36l.71.66a3,3,0,0,1-2,5.2ZM368.57,367a3,3,0,0,1-2.2-5l.65-.72a3,3,0,1,1,4.44,4l-.68.75A3,3,0,0,1,368.57,367ZM55.73,364.28a3,3,0,0,1-2.25-1l-.66-.76a3,3,0,1,1,4.51-3.95l.65.74a3,3,0,0,1-2.25,5ZM381.86,351a2.94,2.94,0,0,1-1.79-.6,3,3,0,0,1-.61-4.2l.59-.78a3,3,0,1,1,4.82,3.58l-.6.8A3,3,0,0,1,381.86,351ZM42.75,348a3,3,0,0,1-2.44-1.24l-.58-.81a3,3,0,1,1,4.87-3.5l.57.8a3,3,0,0,1-.67,4.18A3,3,0,0,1,42.75,348ZM393.5,333.78a3,3,0,0,1-2.56-4.55l.5-.84a3,3,0,1,1,5.15,3.08l-.52.86A3,3,0,0,1,393.5,333.78ZM31.42,330.59a3,3,0,0,1-2.6-1.49l-.5-.87a3,3,0,1,1,5.2-3l.49.85a3,3,0,0,1-1.09,4.1A2.92,2.92,0,0,1,31.42,330.59Zm372-15.13a2.92,2.92,0,0,1-1.28-.29,3,3,0,0,1-1.42-4l.42-.88a3,3,0,1,1,5.42,2.55l-.43.91A3,3,0,0,1,403.37,315.46ZM21.86,312.12a3,3,0,0,1-2.73-1.76l-.42-.9A3,3,0,0,1,24.18,307l.41.89a3,3,0,0,1-1.49,4A3,3,0,0,1,21.86,312.12Zm389.51-15.86a3,3,0,0,1-2.82-4l.33-.92a3,3,0,1,1,5.65,2l-.33.95A3,3,0,0,1,411.37,296.26ZM14.17,292.8a3,3,0,0,1-2.84-2l-.32-.95a3,3,0,1,1,5.68-1.91l.31.92a3,3,0,0,1-1.86,3.81A3,3,0,0,1,14.17,292.8Zm403.26-16.44a3.1,3.1,0,0,1-.73-.09,3,3,0,0,1-2.19-3.63l.24-1a3,3,0,1,1,5.83,1.43l-.24,1A3,3,0,0,1,417.43,276.36Zm-409-3.54a3,3,0,0,1-2.91-2.32l-.23-1a3,3,0,0,1,5.85-1.33l.22.94a3,3,0,0,1-2.24,3.61A3.25,3.25,0,0,1,8.42,272.82ZM421.5,256l-.45,0a3,3,0,0,1-2.52-3.41l.14-1a3,3,0,1,1,5.94.85l-.15,1A3,3,0,0,1,421.5,256ZM4.7,252.36a3,3,0,0,1-3-2.61l-.13-1A3,3,0,0,1,7.55,248l.13,1a3,3,0,0,1-2.59,3.36Zm418.86-17.1h-.15a3,3,0,0,1-2.85-3.15l.05-1a3,3,0,1,1,6,.27l-.05,1A3,3,0,0,1,423.56,235.26ZM3,231.63a3,3,0,0,1-3-2.91l0-1a3,3,0,1,1,6-.16l0,1a3,3,0,0,1-2.91,3.09Zm420.54-17.19a3,3,0,0,1-3-2.83l-.05-1a3,3,0,0,1,6-.32l.05.95a3,3,0,0,1-2.84,3.17ZM3.42,210.83H3.21a3,3,0,0,1-2.79-3.19l.07-.93a3,3,0,0,1,3.21-2.82,3,3,0,0,1,2.78,3.18l-.07,1A3,3,0,0,1,3.42,210.83Zm418.11-17.05a3,3,0,0,1-3-2.56l-.15-1a3,3,0,0,1,5.94-.9l.14,1a3,3,0,0,1-2.52,3.41A2.28,2.28,0,0,1,421.53,193.78ZM5.85,190.17a2.81,2.81,0,0,1-.5,0,3,3,0,0,1-2.47-3.45l.17-1a3,3,0,0,1,5.92,1l-.17,1A3,3,0,0,1,5.85,190.17Zm411.6-16.77a3,3,0,0,1-2.9-2.26l-.25-1a3,3,0,0,1,5.81-1.49l.25,1a3,3,0,0,1-2.16,3.65A2.76,2.76,0,0,1,417.45,173.4ZM10.27,169.85a3,3,0,0,1-2.9-3.78l.26-1a3,3,0,0,1,5.79,1.58l-.26.95A3,3,0,0,1,10.27,169.85Zm401.09-16.33a3,3,0,0,1-2.82-2l-.34-.92a3,3,0,1,1,5.64-2.06l.34.94a3,3,0,0,1-1.8,3.84A3,3,0,0,1,411.36,153.52ZM16.68,150a3.06,3.06,0,0,1-1.07-.19A3,3,0,0,1,13.87,146l.36-.94a3,3,0,1,1,5.6,2.15l-.35.92A3,3,0,0,1,16.68,150Zm386.65-15.7a3,3,0,0,1-2.7-1.71l-.43-.88a3,3,0,1,1,5.4-2.61l.43.9a3,3,0,0,1-2.7,4.3ZM25,131a3,3,0,0,1-2.68-4.34l.45-.91a3,3,0,0,1,5.36,2.71l-.44.87A3,3,0,0,1,25,131ZM393.45,116a3,3,0,0,1-2.57-1.44l-.51-.84a3,3,0,0,1,5.12-3.13l.52.86a3,3,0,0,1-1,4.12A3,3,0,0,1,393.45,116Zm-358.23-3.2a3,3,0,0,1-2.53-4.6l.53-.84a3,3,0,1,1,5.07,3.21l-.53.83A3,3,0,0,1,35.22,112.83Zm346.6-14a3,3,0,0,1-2.4-1.2l-.6-.78a3,3,0,1,1,4.79-3.62l.6.8a3,3,0,0,1-.59,4.2A3,3,0,0,1,381.82,98.79Zm-334.65-3A3,3,0,0,1,44.81,91l.61-.79a3,3,0,0,1,4.72,3.71l-.6.77A3,3,0,0,1,47.17,95.8Zm321.37-13a3,3,0,0,1-2.21-1l-.66-.72A3,3,0,0,1,370.08,77l.68.75a3,3,0,0,1-2.22,5ZM60.75,80A3,3,0,0,1,58.57,75l.7-.73a3,3,0,1,1,4.32,4.17l-.67.7A3,3,0,0,1,60.75,80Zm293-11.9a3,3,0,0,1-2-.77l-.72-.65a3,3,0,0,1,4-4.48l.76.67a3,3,0,0,1-2,5.23ZM75.81,65.68a3,3,0,0,1-2-5.27l.76-.66a3,3,0,0,1,3.9,4.56l-.74.64A3,3,0,0,1,75.81,65.68ZM337.6,55a3,3,0,0,1-1.77-.58l-.79-.58A3,3,0,1,1,338.57,49l.81.59A3,3,0,0,1,337.6,55ZM92.21,52.88a3,3,0,0,1-2.46-1.27,3,3,0,0,1,.72-4.18l.83-.58a3,3,0,1,1,3.43,4.92l-.79.56A3,3,0,0,1,92.21,52.88Zm17.57-11.13a3,3,0,0,1-1.48-5.61l.87-.5a3,3,0,0,1,2.94,5.24l-.85.47A3,3,0,0,1,109.78,41.75Z"/><path class="cls-1" d="M128.6,32.29a3,3,0,0,1-1.21-5.74l.48-.21a3,3,0,0,1,2.38,5.5l-.43.19A2.94,2.94,0,0,1,128.6,32.29Z"/><path class="cls-2" d="M139.59,14.29a1.17,1.17,0,0,1,.39-.51.3.3,0,0,1,.15-.09l.13-.07c.78-.28,1.58-.55,2.38-.79l2.39-.76,2.81-1c.93-.32,1.87-.62,2.83-.91a1.32,1.32,0,0,1,1.21.17,3.35,3.35,0,0,1,.94,1,8,8,0,0,1,.68,1.34c.18.49.32.88.42,1.19s.25.87.35,1.3.19.89.27,1.34.1.66.15,1.07a5.45,5.45,0,0,1,.05,1.21,4.26,4.26,0,0,1-.21,1.15,1.75,1.75,0,0,1-.61.87,2.36,2.36,0,0,1-.65.35c-.24.1-.48.18-.7.25l-2.38.73.1.32.59,2,.3,1c0,.13.1.29.17.49s.13.42.2.64l.59-.18,2.17-.66.53-.16.92-.29,1.11-.32,1.09-.31.87-.24.43-.08a.82.82,0,0,1,.79.61,1,1,0,0,1-.11.81,1.1,1.1,0,0,1-.63.52c-1.34.41-2.66.81-4,1.2s-2.64.78-4,1.18l-3.65,1.13L144.09,31l-.53.16a2.31,2.31,0,0,1-.56.11.86.86,0,0,1-.5-.12.74.74,0,0,1-.33-.48.94.94,0,0,1,0-.66,1.19,1.19,0,0,1,.4-.51.42.42,0,0,1,.14-.09.31.31,0,0,0,.13-.06c.44-.17.89-.31,1.36-.44l1.38-.4,2.18-.67,1.79-.54,0-.13-.59-2-.31-1c0-.16-.11-.36-.19-.61s-.17-.5-.24-.76l-1.35.37q-.68.18-1.26.3l-1,.2a3.11,3.11,0,0,1-.76.05,1.53,1.53,0,0,1-.71-.22,1.65,1.65,0,0,1-.46-.55,8.22,8.22,0,0,1-.42-.84,8.15,8.15,0,0,1-.36-.88l-.27-.72-.66-1.85c-.22-.61-.44-1.22-.68-1.84-.11-.32-.23-.62-.35-.92a8.29,8.29,0,0,1-.32-.92A.91.91,0,0,1,139.59,14.29Zm3,3c.24.72.5,1.45.77,2.18a.61.61,0,0,0,.05.12l.06.14.21.56c.1.23.2.46.29.69s.2.46.32.69q1.27-.21,2.52-.54c.84-.23,1.67-.47,2.5-.72l1.7-.52,1.7-.54a3.37,3.37,0,0,0,0-1,10.64,10.64,0,0,0-.18-1.3c-.08-.45-.17-.88-.28-1.29s-.2-.76-.28-1l-.21-.63a7,7,0,0,0-.28-.71c-.11-.23-.22-.45-.34-.66a2.12,2.12,0,0,0-.38-.51l-9,3C142.1,15.86,142.37,16.57,142.61,17.3Z"/><path class="cls-2" d="M158.14,12a6.11,6.11,0,0,1,0-1.13,4.83,4.83,0,0,1,.23-1,6.09,6.09,0,0,1,.46-1.05,6.27,6.27,0,0,1,.65-.94,3.14,3.14,0,0,1,.8-.67,3.18,3.18,0,0,1,.69-.3,5.88,5.88,0,0,1,.73-.2,5.79,5.79,0,0,1,2.18-.08,4.42,4.42,0,0,1,1.81.7,4.64,4.64,0,0,1,1.35,1.4,6,6,0,0,1,.8,2A6.25,6.25,0,0,1,168,12a6.37,6.37,0,0,1-.12,1.27,3.9,3.9,0,0,1-.55,1.24,5.55,5.55,0,0,1-.91,1.08,5.81,5.81,0,0,1-1.16.82,4.9,4.9,0,0,1-1.27.47,5.56,5.56,0,0,1-2,.07,4.4,4.4,0,0,1-1.69-.66A4.09,4.09,0,0,1,159,15a5.56,5.56,0,0,1-.74-1.88A7,7,0,0,1,158.14,12Zm3.41-3.31a2,2,0,0,0-.37.12.76.76,0,0,0-.25.22l-.21.26a3.67,3.67,0,0,0-.57,1.55,5.56,5.56,0,0,0,.1,1.66,3.42,3.42,0,0,0,1.19,2.07,2.72,2.72,0,0,0,2.35.39,2.24,2.24,0,0,0,.68-.25,3.2,3.2,0,0,0,.64-.45,3.61,3.61,0,0,0,.52-.59A2.4,2.4,0,0,0,166,13a2.91,2.91,0,0,0,.05-.83,4.51,4.51,0,0,0-.09-.85,3.58,3.58,0,0,0-1.36-2.29,3.21,3.21,0,0,0-2.62-.4Zm14.74,10.7c.09.61.2,1.21.33,1.82q.06.3.15.63a1.78,1.78,0,0,1,.07.64,1.1,1.1,0,0,1-.17.57,1,1,0,0,1-.39.35,1.89,1.89,0,0,1-.52.21c-.19.06-.37.1-.54.14l-4,1c-1.34.33-2.68.63-4,.92a3.94,3.94,0,0,1-.8.08,4,4,0,0,1-.86-.09,2.25,2.25,0,0,1-.78-.32,1.31,1.31,0,0,1-.52-.6,2.7,2.7,0,0,1-.16-.41l-.15-.57c0-.19-.09-.38-.14-.56s-.09-.34-.13-.45c-.13-.5-.27-1-.42-1.49s-.28-1-.39-1.49A1,1,0,0,1,163,19a1.12,1.12,0,0,1,.68-.46l.39-.08.76-.12.39-.08c1.16-.24,2.32-.51,3.47-.8s2.31-.57,3.47-.84l1.07-.3,1.08-.25a1,1,0,0,1,.63.05,1.58,1.58,0,0,1,.5.34,2,2,0,0,1,.35.53,3.47,3.47,0,0,1,.19.6C176.09,18.21,176.2,18.82,176.29,19.43Zm-1.83,1.37c-.09-.38-.15-.78-.21-1.17,0-.23-.07-.46-.11-.69s-.09-.47-.14-.7l0-.1-2.83.69-2.84.68c-.48.14-1,.26-1.43.37l-1.47.34-.37.08c.15.58.31,1.15.47,1.7s.33,1.13.5,1.71a.86.86,0,0,0,.45.13,2.49,2.49,0,0,0,.46-.05l1.39-.31,1.38-.32,2.51-.6c.82-.19,1.65-.39,2.47-.61C174.61,21.57,174.54,21.19,174.46,20.8Zm-2.72-12c-.11-.48-.22-1-.36-1.46-.09-.3-.19-.59-.3-.88a7.4,7.4,0,0,1-.25-.89,1,1,0,0,1,.18-.81,1.08,1.08,0,0,1,.68-.45.75.75,0,0,1,.8.18,2.08,2.08,0,0,1,.38.76q.25.74.45,1.47c.13.48.25,1,.36,1.48l.47,2.26.42,1.7c.14.57.27,1.13.39,1.69a1.41,1.41,0,0,1-.1.93,1,1,0,0,1-.73.55,1,1,0,0,1-.69-.11.81.81,0,0,1-.4-.56l-.23-1.1-.53-2.18-.23-1.1C171.94,9.75,171.84,9.25,171.74,8.77Z"/><path class="cls-2" d="M183,19.81c0-.27.11-.55.18-.86s.14-.6.2-.89.1-.49.13-.61q.58-2.86,1-5.74c.31-1.9.56-3.83.77-5.78a3.93,3.93,0,0,0,.05-.52q0-.36.06-.75c0-.26.05-.5.08-.71a1.41,1.41,0,0,1,.09-.43A1.35,1.35,0,0,1,186,3a.94.94,0,0,1,.53-.23,1,1,0,0,1,.68.15.81.81,0,0,1,.35.6,2.77,2.77,0,0,1,0,.76c0,.26-.08.51-.11.74q-.39,3.42-.91,6.78t-1.23,6.72c0,.12-.06.27-.09.44s-.06.35-.1.54-.07.37-.11.53a1.66,1.66,0,0,1-.13.38,1.35,1.35,0,0,1-.35.43.9.9,0,0,1-.52.21.93.93,0,0,1-.67-.16.82.82,0,0,1-.36-.59A2.21,2.21,0,0,1,183,19.81Z"/><path class="cls-2" d="M197.82.33a1.08,1.08,0,0,1,.75-.33.73.73,0,0,1,.58.21,1,1,0,0,1,.29.59l.16,1.6.88-.06.88,0,.95,0,.48,0h.48a1.43,1.43,0,0,1,.44.09.78.78,0,0,1,.32.25.88.88,0,0,1,.14.48,1,1,0,0,1-.3.76,1.09,1.09,0,0,1-.75.34l-.62,0-1.23,0q-1.36.06-2.7.18c-.89.07-1.79.16-2.7.26l-.8.09c-.27,0-.53.06-.8.07a1,1,0,0,1-.66-.21.83.83,0,0,1-.3-.63,1,1,0,0,1,.16-.58,1,1,0,0,1,.46-.39,1.72,1.72,0,0,1,.43-.11l.86-.12,1.12-.11,1.25-.11-.07-1.52A.88.88,0,0,1,197.82.33ZM195.3,7.68a3.5,3.5,0,0,1,.89-1.16,4.18,4.18,0,0,1,1.31-.78A4.75,4.75,0,0,1,199,5.42a3.64,3.64,0,0,1,1.46.23,4.17,4.17,0,0,1,1.24.74,3.63,3.63,0,0,1,.87,1.11A3,3,0,0,1,203,8.86a2.61,2.61,0,0,1-.3,1.41,3.83,3.83,0,0,1-.88,1.12,4.62,4.62,0,0,1-2.73,1.08,5.9,5.9,0,0,1-.73,0,3,3,0,0,1-.71-.11,3.16,3.16,0,0,1-1.86-1.16,3.42,3.42,0,0,1-.74-2A3.06,3.06,0,0,1,195.3,7.68Zm2.27.1A1.23,1.23,0,0,0,197,8.92a1.5,1.5,0,0,0,.62,1.24,2.31,2.31,0,0,0,1.48.36,2.24,2.24,0,0,0,.46-.07,3.52,3.52,0,0,0,.51-.19,3.35,3.35,0,0,0,.45-.27,1.15,1.15,0,0,0,.3-.33A1.25,1.25,0,0,0,201,9.1a1.45,1.45,0,0,0-.2-.65,2.14,2.14,0,0,0-.46-.58,2.53,2.53,0,0,0-.65-.4,1.69,1.69,0,0,0-.73-.13A2.5,2.5,0,0,0,197.57,7.78Zm.37,8.74a4.14,4.14,0,0,1,.51-.92,4.64,4.64,0,0,1,1.41-1.28,8.88,8.88,0,0,1,1.76-.75,11,11,0,0,1,1.92-.37c.66-.06,1.3-.11,1.93-.14a14.06,14.06,0,0,1,1.59,0,8.4,8.4,0,0,1,1.57.24,4.91,4.91,0,0,1,1.11.39,4.16,4.16,0,0,1,1,.64,3,3,0,0,1,.72.87,2.42,2.42,0,0,1,.3,1.11,2.53,2.53,0,0,1,0,.56c0,.17-.07.34-.12.52a4,4,0,0,1-.42,1,3.54,3.54,0,0,1-.68.84,4.5,4.5,0,0,1-1.25.81,10.78,10.78,0,0,1-1.6.58c-.57.15-1.13.28-1.69.37a13.51,13.51,0,0,1-1.5.17,15.71,15.71,0,0,1-2.12-.08,7.61,7.61,0,0,1-2.15-.52,4.87,4.87,0,0,1-1.69-1.13,2.86,2.86,0,0,1-.74-1.92A2.35,2.35,0,0,1,197.94,16.52ZM204,15.06a11.27,11.27,0,0,0-1.4.21,7,7,0,0,0-1.32.42,3.39,3.39,0,0,0-1.07.71,2.06,2.06,0,0,0-.3.41.9.9,0,0,0-.13.47,1.35,1.35,0,0,0,.58,1.09,4,4,0,0,0,1.29.61,7.26,7.26,0,0,0,1.56.25c.53,0,1,0,1.35,0a9.45,9.45,0,0,0,1.11-.12c.44-.07.9-.17,1.36-.28a9.77,9.77,0,0,0,1.29-.42,2.67,2.67,0,0,0,.89-.55,1.84,1.84,0,0,0,.37-.6,1.52,1.52,0,0,0,.13-.68.81.81,0,0,0-.13-.43,2.12,2.12,0,0,0-.33-.36,2.38,2.38,0,0,0-.83-.46,6.74,6.74,0,0,0-1-.25,9.46,9.46,0,0,0-1.07-.11h-1Zm1.37-7.8c-.09-1-.19-2-.31-3L204.93,3c-.06-.41-.09-.82-.11-1.23a1,1,0,0,1,.3-.76,1.13,1.13,0,0,1,.75-.34.88.88,0,0,1,.88.49,1.47,1.47,0,0,1,.11.43c0,.25.08.56.13.94s.09.81.13,1.28.09,1,.14,1.44l.77,0,.59,0,.6,0-.15-2.26,0-1.23a.94.94,0,0,1,.31-.76,1,1,0,0,1,.74-.34,1,1,0,0,1,.56.12.86.86,0,0,1,.3.33,1.69,1.69,0,0,1,.12.48q0,.28,0,.54l.06,1.21.13,2.44,0,1.21c0,.6.05,1.19.08,1.78s0,1.17,0,1.76c0,.13,0,.27,0,.41a1.17,1.17,0,0,1,0,.38,1.06,1.06,0,0,1-.36.64,1.09,1.09,0,0,1-.67.27,1,1,0,0,1-.66-.21.87.87,0,0,1-.31-.63V10.2l0-.37c0-.48,0-.93,0-1.38s0-.9-.06-1.37l-.63,0-.16,0-.15,0-.64,0-.15,0-.15,0c.05.59.1,1.12.13,1.56s.06.75.06.91,0,.37,0,.59a2.48,2.48,0,0,1,0,.61,2.18,2.18,0,0,1-.15.57.91.91,0,0,1-.36.44,1.19,1.19,0,0,1-.57.2.93.93,0,0,1-.66-.22.79.79,0,0,1-.3-.62v-1C205.55,9.27,205.48,8.26,205.39,7.26Z"/><path class="cls-2" d="M213,16.5a4.87,4.87,0,0,1,.46-.75c.18-.25.35-.49.51-.73.31-.5.62-1,.91-1.5s.58-1,.85-1.53a13.85,13.85,0,0,0,.63-1.49A16.06,16.06,0,0,0,216.83,9c.18-.79.33-1.57.45-2.35l.39-2.35c.05-.3.09-.61.12-.92a5.89,5.89,0,0,1,.19-.91,1.12,1.12,0,0,1,.12-.29,1.36,1.36,0,0,1,.44-.42,1.07,1.07,0,0,1,.58-.15,1,1,0,0,1,.63.27.82.82,0,0,1,.25.66A3.75,3.75,0,0,1,220,3c0,.15-.07.3-.1.47a2.21,2.21,0,0,0,0,.25c0,.08,0,.16,0,.25l-.16,1c0,.09,0,.18,0,.25s0,.17,0,.26c-.11.65-.21,1.25-.31,1.78s-.19,1-.28,1.49a4.4,4.4,0,0,1,.34.61,6.73,6.73,0,0,0,.33.61l.92,1.56c.3.52.61,1,.92,1.54l.63,1c.21.34.43.68.64,1s.26.4.41.59a4.9,4.9,0,0,1,.38.62,1.15,1.15,0,0,1,.09.44,1,1,0,0,1-.37.73,1.08,1.08,0,0,1-.78.28,1,1,0,0,1-.69-.32,2.12,2.12,0,0,1-.28-.37c-.12-.18-.24-.37-.37-.59l-.37-.61c-.11-.19-.21-.34-.28-.45-.39-.63-.78-1.28-1.16-1.92l-1.17-1.95a18.37,18.37,0,0,1-1,2.06c-.4.71-.91,1.53-1.54,2.47l-.54.81c-.18.25-.34.46-.51.66a.87.87,0,0,1-.75.28.91.91,0,0,1-.63-.27.81.81,0,0,1-.25-.65A.86.86,0,0,1,213,16.5Zm14-2.86c.1-1.87.16-3.76.17-5.67q0-1.87,0-3.81c0-.28,0-.56,0-.84s0-.56,0-.84a1,1,0,0,1,.36-.73,1,1,0,0,1,.78-.27.9.9,0,0,1,.5.16A.87.87,0,0,1,229,2a1.4,1.4,0,0,1,.09.6c0,.26,0,.48,0,.64,0,.79.05,1.64,0,2.52s0,1.73,0,2.52c.29,0,.56,0,.81,0l.69,0h.69l.81,0a.93.93,0,0,1,.63.27.8.8,0,0,1,.25.65.85.85,0,0,1-.49.8,2.14,2.14,0,0,1-1,.19l-.68,0H229.1q0,1.1-.06,2c0,.61,0,1.28-.08,2l-.25,5.56a1,1,0,0,1-.36.73,1.09,1.09,0,0,1-.78.28.91.91,0,0,1-.68-.3.94.94,0,0,1-.22-.71v-.13l0-.25v-.13C226.78,17.41,226.87,15.52,227,13.64Z"/><path class="cls-2" d="M245.33,16.14l-3.52-.53-3.51-.54-.54-.09a2.42,2.42,0,0,1-.56-.15.94.94,0,0,1-.39-.32.76.76,0,0,1-.09-.58,1,1,0,0,1,.31-.58,1.25,1.25,0,0,1,.58-.28.36.36,0,0,1,.17,0h.15a13.67,13.67,0,0,1,1.41.2l1.41.24,2.26.35,4.51.69,2.24.35.54.08.95.15,1.14.19,1.12.2.89.17a3.27,3.27,0,0,1,.43.11.83.83,0,0,1,.43.89,1,1,0,0,1-.45.69,1.12,1.12,0,0,1-.8.19L250.68,17c-1.11-.18-2.22-.37-3.33-.54v0l-.11.72q-.16,1.08-.33,2.1c-.1.67-.19,1.36-.27,2.06,0,.16,0,.32,0,.48a3.93,3.93,0,0,1-.06.48.88.88,0,0,1-.45.65,1.13,1.13,0,0,1-.79.18.85.85,0,0,1-.77-.63,2.17,2.17,0,0,1,0-.54c0-.29.06-.64.11-1.05s.11-.85.18-1.32.13-.92.2-1.35.12-.81.17-1.15.1-.57.12-.7Zm2.13-9.27c-1.06-.13-2.12-.25-3.19-.35l-1.36-.13c-.45,0-.9-.09-1.35-.17a1,1,0,0,1-.61-.34.82.82,0,0,1-.17-.67.9.9,0,0,1,.29-.55,1.2,1.2,0,0,1,.56-.29,2.9,2.9,0,0,1,.5,0q.42,0,1.08.09l1.47.16,1.68.19c0-.19,0-.41.08-.66s.08-.46.11-.65a1,1,0,0,1,.45-.69,1.11,1.11,0,0,1,.8-.19.93.93,0,0,1,.51.22.81.81,0,0,1,.22.38,1.52,1.52,0,0,1,0,.48,4.78,4.78,0,0,1-.06.53c0,.1,0,.24-.05.41a4.06,4.06,0,0,0,0,.42l2.2.28,1.29.18a5.76,5.76,0,0,1,.62.13,2.51,2.51,0,0,1,.63.25,1.35,1.35,0,0,1,.45.44,1,1,0,0,1,.09.66,1.43,1.43,0,0,1-.43.75,4.62,4.62,0,0,1-1,.73,15,15,0,0,1-1.34.69c-.5.22-1,.43-1.6.63l1.24.8,1.21.79.93.62a2.82,2.82,0,0,1,.39.27.81.81,0,0,1,.22.72,1,1,0,0,1-.45.69,1.11,1.11,0,0,1-.8.19.81.81,0,0,1-.33-.12c-.08,0-.33-.19-.73-.45l-1.39-.89-1.55-1-1.21-.8a5.85,5.85,0,0,1-.66.2l-1.16.31-1.41.36-1.4.33c-.44.11-.82.19-1.15.25a2.2,2.2,0,0,1-.64.06.92.92,0,0,1-.61-.34.82.82,0,0,1-.17-.67.89.89,0,0,1,.22-.48,1.31,1.31,0,0,1,.42-.31,2.09,2.09,0,0,1,.61-.16c.23,0,.44-.07.63-.11.37-.06.73-.14,1.08-.22l1.06-.25c1.19-.29,2.36-.62,3.52-1a27.45,27.45,0,0,0,3.39-1.34Z"/><path class="cls-2" d="M263.31,10.27l-2.08-.34-.91-.11a5.47,5.47,0,0,1-.9-.16,1,1,0,0,1-.58-.39.86.86,0,0,1-.11-.69,1,1,0,0,1,.31-.5,1.18,1.18,0,0,1,.54-.26.39.39,0,0,1,.15,0h.15a1.54,1.54,0,0,1,.43.06l.42.08,1.66.26c.06-.14.12-.27.16-.39a3.29,3.29,0,0,1,.17-.39c.08-.21.16-.43.24-.67a4.33,4.33,0,0,1,.31-.65,1.34,1.34,0,0,1,.48-.44.94.94,0,0,1,.71,0A.9.9,0,0,1,265,6a.83.83,0,0,1,.12.69,3.79,3.79,0,0,1-.26.71c-.11.24-.22.48-.3.71a.84.84,0,0,0-.08.2,1,1,0,0,1-.07.2l.94.16.92.21a3.48,3.48,0,0,1,.62.21,2,2,0,0,1,.51.34,1.38,1.38,0,0,1,.32.49,1.13,1.13,0,0,1,0,.66,2,2,0,0,1-.4.77,5.24,5.24,0,0,1-.61.63,12.38,12.38,0,0,1-1.29.94c-.5.32-1,.6-1.38.85.2.21.4.42.61.61s.4.4.6.62l.39.36c.17.15.34.32.51.49l.48.49a2.54,2.54,0,0,1,.29.35.79.79,0,0,1,.1.66,1,1,0,0,1-.51.64,1.11,1.11,0,0,1-.81.11.68.68,0,0,1-.2-.07l-.19-.11c-.06-.05-.22-.19-.47-.44l-.85-.85c-.32-.32-.65-.65-1-1l-.85-.88c-.4.2-.79.4-1.19.58l-1.2.57-.67.29a3.35,3.35,0,0,1-.69.25l-.26,0a1.23,1.23,0,0,1-.27,0,1,1,0,0,1-.57-.4.77.77,0,0,1-.11-.68,1.05,1.05,0,0,1,.45-.62,1.82,1.82,0,0,1,.43-.19l.43-.16c.18-.06.35-.13.51-.2l.5-.23c1-.47,2-1,3-1.49a21.22,21.22,0,0,0,2.82-1.83Q264.35,10.43,263.31,10.27ZM258.05,25.1a2.06,2.06,0,0,1-.48-1.06,4.21,4.21,0,0,1,0-1.28c.06-.46.13-.9.21-1.33s.15-.84.22-1.26.17-.84.27-1.25a.94.94,0,0,1,.51-.64,1.07,1.07,0,0,1,.81-.12.83.83,0,0,1,.55.34,1,1,0,0,1,.15.55,3.11,3.11,0,0,1-.08.65c-.06.23-.11.43-.14.62s-.08.37-.16.72-.14.73-.2,1.12-.1.76-.12,1.09,0,.54.08.6a.22.22,0,0,0,.14.08l.14,0,.37.09.73.14.37.09,1.2.27,1.19.3,2.15.56c.71.2,1.43.38,2.15.56l.3.08.58.12.28.07.56.14a2,2,0,0,1,.54.22,1,1,0,0,1,.39.36.78.78,0,0,1,0,.59,1,1,0,0,1-.51.65,1.11,1.11,0,0,1-.81.11l-1.69-.42L264.41,27l-1.71-.43-1-.24-1-.22L260,26l-.75-.18A2.24,2.24,0,0,1,258.05,25.1Zm13.12-3.05a1.16,1.16,0,0,1-.64,0,1,1,0,0,1-.57-.39.79.79,0,0,1-.11-.69c0-.23.12-.45.19-.68l.21-.67c.16-.56.31-1.12.46-1.68s.3-1.11.47-1.67l0-.17.11-.32,0-.17c-.23-.05-.45-.11-.67-.18l-.54-.14-2.76-.67a1,1,0,0,1-.57-.39.83.83,0,0,1-.12-.69.85.85,0,0,1,.62-.68,1.88,1.88,0,0,1,1,0l.89.22,1.8.43.9.22c.16-.66.31-1.33.43-2s.26-1.31.42-2a1,1,0,0,1,.51-.65,1.11,1.11,0,0,1,.81-.11.91.91,0,0,1,.52.32.86.86,0,0,1,.21.58q0,.13-.06.39c0,.16-.08.34-.12.52s-.09.36-.12.53-.07.3-.09.4c-.08.38-.17.77-.25,1.17s-.17.78-.27,1.17c-.17.67-.34,1.32-.52,2s-.37,1.3-.55,2-.32,1.11-.45,1.68a13.2,13.2,0,0,1-.53,1.69,1.12,1.12,0,0,1-.05.13l-.08.13A1.13,1.13,0,0,1,271.17,22.05Z"/><path class="cls-2" d="M285,29.42l-.79-.33-.39-.15c-.77-.29-1.54-.55-2.3-.78s-1.54-.5-2.31-.79a1.07,1.07,0,0,1-.46-.31.8.8,0,0,1-.17-.51,7.36,7.36,0,0,1,.27-1c.18-.6.42-1.33.7-2.18s.61-1.79,1-2.81.68-2,1-2.89.61-1.71.85-2.41.41-1.16.5-1.41a1,1,0,0,1,.58-.58,1.11,1.11,0,0,1,.82,0c.67.25,1.34.48,2,.71s1.33.46,2,.7l.63.25a7.09,7.09,0,0,1,.69.32,3.22,3.22,0,0,1,.6.42,1.57,1.57,0,0,1,.42.49,2.17,2.17,0,0,1,.18,1,6.65,6.65,0,0,1-.16,1.14,8.22,8.22,0,0,1-.34,1.13l-.35,1-.35.93.28.09.25.08,1.06.35.27.08.26.09.39-1.12,1.45-3.92a1,1,0,0,1,.58-.58,1.16,1.16,0,0,1,.82,0,.84.84,0,0,1,.56.5,1.15,1.15,0,0,1,0,.75L294,21.5l-2.85,7.88-1.45,3.92a1,1,0,0,1-.58.58,1.11,1.11,0,0,1-.82,0,.84.84,0,0,1-.57-.51,1.07,1.07,0,0,1,.05-.74l1.46-3.94,1.79-5-.26-.08-.26-.09-1.05-.34-.26-.09-.26-.08c-.33.94-.67,1.88-1,2.81s-.67,1.87-1,2.8a1.83,1.83,0,0,1-.58.8.93.93,0,0,1-.95.09Zm1.36-5.21c.37-1.07.76-2.14,1.16-3.21.07-.21.18-.5.32-.87s.27-.76.42-1.16.25-.78.34-1.15a2.65,2.65,0,0,0,.1-.84q-.42-.21-.84-.39l-.86-.34c-.43-.16-.85-.3-1.27-.44l-1.27-.43q-.93,2.64-1.82,5.25t-1.76,5.29l1.9.63q.94.32,1.89.66l.54.2C285.58,26.34,286,25.27,286.34,24.21Zm4.88,11.1a1.71,1.71,0,0,1,.08-.79c.19-.6.4-1.2.61-1.79s.41-1.18.6-1.78c.43-1.25.85-2.49,1.27-3.73L295,23.48l1.19-3.59q.17-.43.3-.87c.1-.3.2-.6.31-.9a1,1,0,0,1,.58-.57,1.13,1.13,0,0,1,.81,0c.36.14.56.33.59.57a1.83,1.83,0,0,1-.08.79c-.62,1.84-1.24,3.66-1.85,5.48L295,29.82l-.91,2.73c-.29.9-.61,1.8-.94,2.71a.94.94,0,0,1-.58.57,1.11,1.11,0,0,1-.82,0Q291.28,35.66,291.22,35.31Z"/><path class="cls-2" d="M309.89,36.86c-.47-.23-.95-.44-1.42-.65q-.3.78-.63,1.56c-.22.52-.44,1-.65,1.56-.1.24-.21.49-.31.74s-.2.5-.29.75-.09.27-.14.4a2.93,2.93,0,0,1-.16.39.93.93,0,0,1-.62.52,1.1,1.1,0,0,1-.82,0,1.16,1.16,0,0,1-.4-.33.75.75,0,0,1-.15-.47,2.15,2.15,0,0,1,.17-.69c.12-.34.26-.71.42-1.1s.31-.78.47-1.14.26-.62.32-.78c.14-.37.28-.74.43-1.12s.3-.74.46-1.11q-1.32-.56-2.61-1.17l-1.16-.53q-.3.8-.63,1.53c-.22.5-.44,1-.65,1.52-.08.24-.18.48-.28.72s-.19.49-.27.73-.09.27-.14.39a2.14,2.14,0,0,1-.16.39,1,1,0,0,1-.63.53,1.07,1.07,0,0,1-.81-.05,1.13,1.13,0,0,1-.4-.32.81.81,0,0,1-.15-.48,4,4,0,0,1,.25-.85c.17-.47.37-1,.6-1.63s.48-1.22.73-1.84l.64-1.52-.41-.18-.41-.18-1.61-.7c-.54-.22-1.06-.45-1.58-.7a.9.9,0,0,1-.48-.5.8.8,0,0,1,0-.69.82.82,0,0,1,.7-.54,2.37,2.37,0,0,1,.93.14q2.1.88,4.11,1.83c1.35.63,2.71,1.26,4.09,1.88l.31.14.31.14,1.28.55.31.14.31.14c.66.28,1.32.58,2,.88l1.94.93.44.23a1.37,1.37,0,0,1,.36.3.88.88,0,0,1,.18.39.85.85,0,0,1-.09.5A1,1,0,0,1,313,38a1.1,1.1,0,0,1-.82,0l-.2-.09-.41-.22-.22-.11Zm-5.7-7.66a5.82,5.82,0,0,1-1.05-.7,3.33,3.33,0,0,1-.78-.9,1.87,1.87,0,0,1-.22-1.16,3.41,3.41,0,0,1,.12-.52c.06-.2.14-.4.22-.62l.26-.62.24-.52c.15-.35.31-.7.47-1.06s.31-.72.45-1.08c.08-.19.14-.38.21-.56a4.85,4.85,0,0,1,.22-.55,1,1,0,0,1,.63-.53,1.1,1.1,0,0,1,.82.05.88.88,0,0,1,.54.75,2.84,2.84,0,0,1-.21.81c-.15.42-.33.88-.54,1.36L305,24.76l-.42.93a2.91,2.91,0,0,1-.19.44,1.16,1.16,0,0,0-.12.46.44.44,0,0,0,0,.09.62.62,0,0,0,0,.1,1,1,0,0,0,.3.36,5.85,5.85,0,0,0,.48.34,4.52,4.52,0,0,0,.53.28L306,28c.8.38,1.6.74,2.42,1.09l2.44,1.05c.31.14.61.26.9.37s.6.25.9.4a.89.89,0,0,1,.48.49.82.82,0,0,1,0,.7,1,1,0,0,1-.44.45,1.08,1.08,0,0,1-.61.12,3.41,3.41,0,0,1-.62-.2c-.33-.12-.72-.28-1.18-.48s-.95-.4-1.48-.64l-1.51-.67L306,30.08l-.78-.36C304.91,29.57,304.56,29.4,304.19,29.2Z"/></g></g></svg>