<svg xmlns="http://www.w3.org/2000/svg" viewBox="0 0 362.44 194.05"><defs><style>.cls-1{fill:#ad9b95;}.cls-2{fill:#56603b;}.cls-3{fill:#fff;opacity:0.07;}</style></defs><title>Asset 4</title><g id="Layer_2" data-name="Layer 2"><g id="Layer_1-2" data-name="Layer 1"><path class="cls-1" d="M361.93,87.77c.06-.14.17-.25.22-.39a3,3,0,0,0,.17-.92l.08,0a1.49,1.49,0,0,0,0-.21A4.66,4.66,0,0,0,360.31,82a11,11,0,0,0-2.37-3.79c-3.49-3-10.87-1.68-15.14-1.78a3.34,3.34,0,0,0-3.46,3.28,10.12,10.12,0,0,0-4.64,1c-37.23-11.07-73.6-28.65-94-60.12,0,.31,0,.63,0,1-6.91,18,5.34,35.28,14.17,50,1.13,1.88,2.36,3.69,3.6,5.49-39.82,9.07-80,16.45-121,17.72a361.4,361.4,0,0,1-75.17-5.56C46.44,86.35,32.23,75.61,33.76,58c1.58-18.28,19.5-27.24,31.36-38.88,2.34-2.32,3-4,2.56-5.34.78-3.19-.79-6.16-3-8.5C62.08,2,57.9,1,53.59,1.88s-9.66,3.78-9.79,8.65a6.89,6.89,0,0,0,.13,1.2c-23,6.56-40.07,36-39.21,59.28.91,24.65,23.35,40.29,43.42,50.23,69,34.18,153.07,22.69,228,7.88-2.24,6.64-7,21.1-8.64,34.71a3.36,3.36,0,0,0-.6.45c-1.76,1.93-1.12,4.14-1.46,6.51-.39,2.67-1.07,4.69-.19,7.42a24.19,24.19,0,0,0,3.91,7.14,13.76,13.76,0,0,0,11.15,8.7c10.23-19.87,18.73-39.37,33.38-56.75,13.4-15.9,28-34.14,45.45-47.19a4.58,4.58,0,0,0,2.63-2c.14-.09.27-.2.4-.29Z"/><path class="cls-2" d="M236.05,10.18a7.71,7.71,0,0,0,0,1c-6.91,18,5.34,35.28,14.17,50,1.13,1.88,2.35,3.69,3.6,5.49-39.83,9.07-80,16.46-121,17.72a360.67,360.67,0,0,1-75.17-5.56c-16-2.83-30.19-13.57-28.67-31.15,1.58-18.28,19.5-27.23,31.37-38.87C71.68-2.44,45-.27,39.5,1.23,16.33,7.64-.83,37.23,0,60.6c.91,24.65,23.35,40.3,43.41,50.23,69,34.19,153.08,22.69,228,7.88-4.66,13.79-20.26,61.2,4.17,64.94,10.23-19.88,18.73-39.37,33.38-56.76,14.18-16.82,29.7-36.34,48.48-49.48C311.67,67.08,261.42,49.41,236.05,10.18Z"/><path class="cls-3" d="M274.83,81.88c-35.52.43-70.63,8.23-106.08,10.72-39.44,2.76-90.43,9.09-127.34-8.31C39.12,83.21,37.81,86.83,40,88c35.73,17.91,80.46,15.63,119.43,14.42,38.35-1.19,80-3.88,115.57-19.29C275.57,82.84,275.48,81.87,274.83,81.88Z"/><path class="cls-3" d="M322.92,77.84c-8.78-4.82-19-6.27-28.56-9.09-12.1-3.56-22.74-10.17-33.9-15.86a1.55,1.55,0,0,0-1.74.1c-.91-1.74-3.68-.44-2.92,1.46a55.56,55.56,0,0,0,4.52,8.82c1.45,2.28,3.38,6.07,6.11,6.88a1.34,1.34,0,0,0,1.77-1.46c-.48-2.59-3.16-4.68-4.64-6.83-.61-.88-1.14-1.82-1.68-2.75,8.6,6.65,18.28,11.27,28.12,16s20.5,9.45,31.63,8.15C324,83,325.23,79.1,322.92,77.84Z"/><path class="cls-3" d="M281,137.64c2-6.17,4-12.23,5.42-18.57.39-1.8-2.22-2-2.93-.67-3.88,7.58-6.87,15.68-9.84,23.67-1.54,4.13-4.13,8.49-.28,11.75a1.52,1.52,0,0,0,2.12-.33C278.36,149,279.37,142.71,281,137.64Z"/><path class="cls-3" d="M25.59,69.26c-7.07-19.82-8-39.28,10.35-53.39.78-.59-.17-1.74-.95-1.17C17.64,27.22,7.18,53,21.76,71.62,23.42,73.75,26.43,71.59,25.59,69.26Z"/></g></g></svg>