<svg xmlns="http://www.w3.org/2000/svg" viewBox="0 0 88.31 108.03"><defs><style>.cls-1{fill:#516f3c;}</style></defs><title>Asset 49</title><g id="Layer_2" data-name="Layer 2"><g id="Layer_1-2" data-name="Layer 1"><path class="cls-1" d="M72.79,87.87c1.7,1.27.29.42,2.82,2.25A102.9,102.9,0,0,0,88.31,98c-4.23,3.39-8.75,6.63-13.12,10-1.13-2.11-2.68-4.65-4-6.62s-3.52-5.22-4.51-6.63a6.14,6.14,0,0,0-1-1.27,50.66,50.66,0,0,1-10,4.79,35.48,35.48,0,0,1-11.57,1.84,57.74,57.74,0,0,1-8.46-.85c.56-2.26.56-4.51,1-6.77a24.34,24.34,0,0,0,7.9,1.41,21,21,0,0,0,9.16-2,28.16,28.16,0,0,0,7.48-5.36,32.25,32.25,0,0,0,5.5-7.48,47.17,47.17,0,0,0,3.81-9,60.7,60.7,0,0,0,2.11-10,82.75,82.75,0,0,0,.71-10.29,80.69,80.69,0,0,0-.71-10.16A62.55,62.55,0,0,0,70.4,29.48a48.3,48.3,0,0,0-3.81-9.17A32.81,32.81,0,0,0,61,12.83a23.8,23.8,0,0,0-7.34-5.07,22.17,22.17,0,0,0-9.17-1.84,19.46,19.46,0,0,0-4.79,1,23.12,23.12,0,0,0-4.37,1.55,22.64,22.64,0,0,0-7.2,4.94,37.16,37.16,0,0,0-5.5,7.47A47.9,47.9,0,0,0,18.78,30a59.93,59.93,0,0,0-2.26,10,83,83,0,0,0-.71,10.3,87.56,87.56,0,0,0,.71,10.58,62.68,62.68,0,0,0,2.12,10c.14.28.14.57.28.85,2.39,6.77,5.22,13.4,13.26,13.68a10.29,10.29,0,0,0,8.32-4c2.11-2.54,2.82-6.63,3-9.73A10.94,10.94,0,0,0,41.06,64a8,8,0,0,0-5.78-2.54,6.57,6.57,0,0,0-6.49,3.67,10.46,10.46,0,0,0-1.27,3.53,19.34,19.34,0,0,0-.28,4.09H23.43A22.42,22.42,0,0,1,24,67.42a13.71,13.71,0,0,1,2-4.66,10.08,10.08,0,0,1,3.67-3.24,10.91,10.91,0,0,1,5.21-1.27,12.65,12.65,0,0,1,5.22,1,8.36,8.36,0,0,1,3.67,3A17,17,0,0,1,46,66.71a16.31,16.31,0,0,1,.84,5.22A20.41,20.41,0,0,1,46,77.57a15,15,0,0,1-2.68,5.64c-1.41,1.69-2.68,3.25-4.94,4.23-9,4-18.19,2.4-25.81-3.66a25.17,25.17,0,0,1-6.49-7.9C1.71,68,.16,59.38,0,50.49A54.2,54.2,0,0,1,1.57,36.81,56.44,56.44,0,0,1,5.8,24.68a45.27,45.27,0,0,1,6.77-10.15,40.42,40.42,0,0,1,8.74-7.62A44.7,44.7,0,0,1,31.75,2,37.37,37.37,0,0,1,43.46,0a41.59,41.59,0,0,1,11.7,1.83,42.81,42.81,0,0,1,10.72,4.8,41.54,41.54,0,0,1,9,7.47,46.71,46.71,0,0,1,6.91,10,51,51,0,0,1,4.51,12.27,64.69,64.69,0,0,1,1.55,13.82,55.83,55.83,0,0,1-1.69,13.68A57.3,57.3,0,0,1,81.54,76a49.52,49.52,0,0,1-6.91,9.87,12.37,12.37,0,0,1-2.4,2.26Z"/></g></g></svg>