<svg xmlns="http://www.w3.org/2000/svg" viewBox="0 0 426.58 435.97"><defs><style>.cls-1{fill:#f49c34;}.cls-2{fill:#ee791c;}</style></defs><title>Asset 3</title><g id="Layer_2" data-name="Layer 2"><g id="Layer_1-2" data-name="Layer 1"><path class="cls-1" d="M317.6,42.69a3,3,0,0,1-1.49-.4l-.42-.24a3,3,0,0,1,3-5.22l.44.26a3,3,0,0,1-1.49,5.6Z"/><path class="cls-1" d="M214.71,436a3,3,0,0,1,0-6h1a3,3,0,0,1,0,6h-1Zm-20.15-.86h-.27l-1-.09a3,3,0,0,1,.56-6l1,.09a3,3,0,0,1-.27,6Zm41.29-.32a3,3,0,0,1-.33-6l1-.11a3,3,0,0,1,.66,6l-1,.12Zm-62.25-2.62a2.76,2.76,0,0,1-.57-.06l-1-.19a3,3,0,1,1,1.13-5.89l1,.19a3,3,0,0,1-.56,5.95Zm83.16-.69a3,3,0,0,1-.62-5.93l1-.21a3,3,0,1,1,1.27,5.86l-1,.22A3.34,3.34,0,0,1,256.76,431.48ZM153,427.15a3.19,3.19,0,0,1-.86-.12l-1-.3a3,3,0,1,1,1.74-5.74l.95.29a3,3,0,0,1-.85,5.87Zm124.2-1.08a3,3,0,0,1-.91-5.85l.94-.31a3,3,0,0,1,1.86,5.71l-1,.31A2.89,2.89,0,0,1,277.23,426.07Zm-144.17-6a2.9,2.9,0,0,1-1.14-.23l-.94-.39a3,3,0,0,1,2.31-5.54l.92.39a3,3,0,0,1-1.15,5.77Zm164-1.46a3,3,0,0,1-1.2-5.76l.91-.39a3,3,0,0,1,2.42,5.49l-.94.41A3,3,0,0,1,297.05,418.63ZM113.92,411a3,3,0,0,1-1.41-.35l-.91-.49a3,3,0,0,1,2.86-5.28l.87.48a3,3,0,0,1-1.41,5.64ZM316,409.22a3,3,0,0,1-1.46-5.61l.86-.49a3,3,0,1,1,3,5.22l-.89.5A3,3,0,0,1,316,409.22ZM95.78,400.1a3,3,0,0,1-1.67-.51l-.85-.58a3,3,0,1,1,3.38-5l.82.56a3,3,0,0,1-1.68,5.49ZM334,398a3,3,0,0,1-1.72-5.46l.81-.57a3,3,0,1,1,3.46,4.89l-.84.6A3,3,0,0,1,334,398ZM78.84,387.38a3,3,0,0,1-1.92-.69l-.78-.66A3,3,0,0,1,80,381.44l.77.64a3,3,0,0,1-1.93,5.3ZM350.66,385a3,3,0,0,1-2-5.28l.76-.65a3,3,0,0,1,3.93,4.53l-.77.67A3,3,0,0,1,350.66,385ZM63.27,373a3,3,0,0,1-2.14-.9l-.72-.73a3,3,0,1,1,4.31-4.18l.7.71a3,3,0,0,1-2.15,5.1ZM366,370.38a3,3,0,0,1-2.17-5.07l.68-.72a3,3,0,1,1,4.37,4.11l-.71.74A3,3,0,0,1,366,370.38ZM49.22,357.2a3,3,0,0,1-2.35-1.13l-.64-.8a3,3,0,0,1,4.71-3.73l.62.78a3,3,0,0,1-2.34,4.88Zm330.58-2.89a3,3,0,0,1-1.84-.63,3,3,0,0,1-.53-4.21l.61-.78a3,3,0,1,1,4.76,3.65l-.63.81A3,3,0,0,1,379.8,354.31ZM36.81,340a3,3,0,0,1-2.52-1.37l-.55-.86a3,3,0,0,1,5-3.24l.54.84A3,3,0,0,1,36.81,340Zm355.1-3.1a3,3,0,0,1-2.54-4.59l.53-.85a3,3,0,0,1,5.1,3.16l-.54.87A3,3,0,0,1,391.91,336.94ZM26.19,321.73a3,3,0,0,1-2.67-1.64l-.47-.9a3,3,0,0,1,5.35-2.72l.45.89a3,3,0,0,1-1.3,4A2.89,2.89,0,0,1,26.19,321.73Zm376-3.29a2.93,2.93,0,0,1-1.31-.31,3,3,0,0,1-1.38-4l.44-.9a3,3,0,1,1,5.4,2.62l-.45.92A3,3,0,0,1,402.21,318.44Zm-384.76-16a3,3,0,0,1-2.79-1.9l-.37-1a3,3,0,0,1,5.59-2.17l.36.92a3,3,0,0,1-2.79,4.1ZM410.59,299a3,3,0,0,1-2.82-4.05l.35-.93a3,3,0,0,1,5.64,2.06l-.36,1A3,3,0,0,1,410.59,299ZM10.7,282.38a3,3,0,0,1-2.89-2.19l-.27-1a3,3,0,1,1,5.78-1.59l.27.95a3,3,0,0,1-2.08,3.7A3.22,3.22,0,0,1,10.7,282.38ZM417,278.78a3.2,3.2,0,0,1-.75-.09A3,3,0,0,1,414,275l.25-1a3,3,0,1,1,5.81,1.48l-.25,1A3,3,0,0,1,417,278.78ZM6,261.74a3,3,0,0,1-2.95-2.49l-.17-1a3,3,0,1,1,5.91-1l.17,1a3,3,0,0,1-2.44,3.47A3.15,3.15,0,0,1,6,261.74Zm415.24-3.69a3.71,3.71,0,0,1-.47,0,3,3,0,0,1-2.5-3.43l.15-1a3,3,0,1,1,5.93.89l-.15,1A3,3,0,0,1,421.25,258.05ZM3.44,240.72a3,3,0,0,1-3-2.79l-.07-1a3,3,0,1,1,6-.4l.07,1a3,3,0,0,1-2.78,3.2Zm420-3.73h-.17a3,3,0,0,1-2.83-3.16l.06-1a3,3,0,0,1,6,.29l-.06,1A3,3,0,0,1,423.47,237ZM3,219.55H2.91A3,3,0,0,1,0,216.46l0-1a3,3,0,0,1,6,.21l0,1A3,3,0,0,1,3,219.55Zm420.58-3.73a3,3,0,0,1-3-2.86l0-1a3,3,0,0,1,2.85-3.14,3,3,0,0,1,3.14,2.84l.05,1a3,3,0,0,1-2.86,3.13ZM4.69,198.44l-.4,0a3,3,0,0,1-2.58-3.37l.13-1a3,3,0,0,1,6,.78l-.13,1A3,3,0,0,1,4.69,198.44Zm416.87-3.68a3,3,0,0,1-3-2.57l-.15-1a3,3,0,1,1,5.93-.91l.15,1a3,3,0,0,1-2.53,3.4A2.25,2.25,0,0,1,421.56,194.76ZM8.45,177.6a3.21,3.21,0,0,1-.68-.07,3,3,0,0,1-2.24-3.61l.23-1a3,3,0,1,1,5.84,1.38l-.23,1A3,3,0,0,1,8.45,177.6Zm409-3.59a3,3,0,0,1-2.91-2.27l-.24-1a3,3,0,0,1,5.81-1.5l.25,1a3,3,0,0,1-2.17,3.64A2.74,2.74,0,0,1,417.42,174ZM14.28,157.23a3,3,0,0,1-2.84-4l.34-1a3,3,0,0,1,5.67,2l-.33.95A3,3,0,0,1,14.28,157.23Zm396.92-3.45a3,3,0,0,1-2.81-2l-.35-.93a3,3,0,1,1,5.63-2.08l.35,1a3,3,0,0,1-1.79,3.85A2.84,2.84,0,0,1,411.2,153.78ZM22.14,137.56a3,3,0,0,1-1.25-.28,3,3,0,0,1-1.47-4l.43-.94a3,3,0,0,1,5.44,2.53l-.42.91A3,3,0,0,1,22.14,137.56ZM403,134.27a3,3,0,0,1-2.7-1.69l-.44-.9a3,3,0,1,1,5.39-2.63l.45.91a3,3,0,0,1-2.7,4.31ZM32,118.78a3,3,0,0,1-1.52-.41,3,3,0,0,1-1.07-4.11l.53-.89a3,3,0,1,1,5.15,3.08l-.51.85A3,3,0,0,1,32,118.78Zm360.88-3.09a3,3,0,0,1-2.56-1.43l-.53-.86a3,3,0,0,1,5.11-3.15l.53.87a3,3,0,0,1-2.55,4.57ZM43.62,101.1a2.92,2.92,0,0,1-1.77-.59,3,3,0,0,1-.65-4.19l.61-.82a3,3,0,1,1,4.82,3.57l-.59.8A3,3,0,0,1,43.62,101.1Zm337.26-2.89A3,3,0,0,1,378.49,97l-.6-.79a3,3,0,1,1,4.75-3.66l.62.81a3,3,0,0,1-.56,4.21A3,3,0,0,1,380.88,98.21ZM57,84.68a3.05,3.05,0,0,1-2-.77,3,3,0,0,1-.21-4.24l.68-.76a3,3,0,0,1,4.44,4l-.67.74A3,3,0,0,1,57,84.68ZM367.24,82a3,3,0,0,1-2.2-1l-.68-.72a3,3,0,1,1,4.37-4.11l.7.75a3,3,0,0,1-2.19,5ZM72,69.69a3,3,0,0,1-2-5.23l.76-.68a3,3,0,1,1,4,4.47l-.74.66A3,3,0,0,1,72,69.69ZM352,67.26a3,3,0,0,1-2-.75l-.74-.65a3,3,0,0,1,3.94-4.53L354,62a3,3,0,0,1-2,5.25Zm-263.69-11a3,3,0,0,1-1.79-5.41l.83-.61a3,3,0,1,1,3.54,4.84l-.8.59A3,3,0,0,1,88.35,56.27ZM335.44,54.1a3,3,0,0,1-1.74-.56l-.81-.57a3,3,0,1,1,3.46-4.9l.83.59a3,3,0,0,1-1.74,5.44ZM106,44.55A3,3,0,0,1,104.45,39l.88-.52a3,3,0,1,1,3,5.17l-.85.5A2.94,2.94,0,0,1,106,44.55Z"/><path class="cls-1" d="M125,34.55a3,3,0,0,1-1.27-5.72l.46-.21a3,3,0,1,1,2.53,5.44l-.45.21A3,3,0,0,1,125,34.55Z"/><path class="cls-2" d="M136.76,12.59a1.1,1.1,0,0,1,.62-.53.91.91,0,0,1,.69,0,.79.79,0,0,1,.47.52l.49,1.48c.21-.09.44-.17.66-.24l.67-.22,1-.31,1-.31.47-.13a1.13,1.13,0,0,1,.44,0,.89.89,0,0,1,.38.15,1,1,0,0,1,.27.42,1,1,0,0,1-.09.82,1.06,1.06,0,0,1-.63.53l-1.22.4-1.25.4c-.79.26-1.58.54-2.36.85l-2.34.91-.8.32c-.26.11-.52.21-.8.3a1,1,0,0,1-.69,0,.8.8,0,0,1-.46-.52,1,1,0,0,1,0-.6,1.13,1.13,0,0,1,.33-.51l.13-.11a.46.46,0,0,1,.14-.07,2.48,2.48,0,0,1,.37-.17l.39-.13,1.56-.6c.17-.08.35-.15.51-.21l.51-.2-.46-1.4A1,1,0,0,1,136.76,12.59ZM136.1,20a3.6,3.6,0,0,1,.63-1.41,4.35,4.35,0,0,1,1.15-1.11,5.86,5.86,0,0,1,1.48-.74,3.88,3.88,0,0,1,2.85.16,3.78,3.78,0,0,1,1.14.85,3.47,3.47,0,0,1,.76,1.29,2.83,2.83,0,0,1,.09,1.52,4,4,0,0,1-.58,1.39,4.54,4.54,0,0,1-1.07,1.12,4.61,4.61,0,0,1-1.35.71c-.24.08-.47.14-.71.2a4.26,4.26,0,0,1-.74.1,3.63,3.63,0,0,1-2.19-.61,3.48,3.48,0,0,1-1.33-1.82A3.27,3.27,0,0,1,136.1,20Zm3-1.06a2.24,2.24,0,0,0-.61.48,1.66,1.66,0,0,0-.36.63,1.28,1.28,0,0,0,0,.79,1.56,1.56,0,0,0,1,1.13,2.66,2.66,0,0,0,1.57-.08,3,3,0,0,0,.63-.3,2.24,2.24,0,0,0,.55-.46,1.64,1.64,0,0,0,.34-.6,1.09,1.09,0,0,0,0-.69,1.6,1.6,0,0,0-.39-.65,2.07,2.07,0,0,0-1.34-.65,2,2,0,0,0-.76.09A4.28,4.28,0,0,0,139.05,19Zm0,8.8a.81.81,0,0,1-.47-.52.94.94,0,0,1,0-.64,1.15,1.15,0,0,1,.38-.53,1.35,1.35,0,0,1,.38-.18l.58-.22.59-.21.45-.14,2.62-1,2.62-1,1.17-.48c.39-.16.78-.3,1.19-.44a4.8,4.8,0,0,1,.79-.18,3.66,3.66,0,0,1,.81,0,2.53,2.53,0,0,1,.75.24,1.52,1.52,0,0,1,.58.55,1.7,1.7,0,0,1,.22.42c.06.15.11.29.16.45.12.35.22.69.31,1s.19.7.29,1.05.16.47.23.69.14.45.2.68.15.59.2.88a1,1,0,0,1-.26.83,1,1,0,0,1-.49.35.92.92,0,0,1-.69,0,.82.82,0,0,1-.46-.52c-.06-.18-.11-.36-.15-.53s-.09-.35-.13-.53l-.11-.34-.21-.69-.12-.36c-.08-.31-.17-.62-.25-.93s-.17-.61-.27-.94l-.05-.13a.4.4,0,0,0-.06-.13c-.08-.1-.22-.12-.43-.08l-.44.11c-.43.14-.85.3-1.26.47l-1.23.49c-1.12.44-2.25.87-3.37,1.29s-2.26.83-3.4,1.21A.91.91,0,0,1,139,27.78Zm9.86-7.13a1.72,1.72,0,0,1-.24-.49c-.12-.27-.25-.62-.41-1s-.32-.84-.49-1.32-.34-.93-.5-1.36-.31-.83-.44-1.17l-.26-.72c-.12-.32-.24-.63-.35-.94s-.25-.62-.38-.93-.15-.35-.22-.52-.13-.34-.2-.52a1,1,0,0,1,.09-.82,1.06,1.06,0,0,1,.63-.53.88.88,0,0,1,1,.23,1.9,1.9,0,0,1,.21.39c.09.22.21.49.34.83s.28.71.44,1.13.34.85.52,1.3l.18-.06,1-.31,1.34-.45.29-.1a.78.78,0,0,1,.3-.07.85.85,0,0,1,1,.58,1,1,0,0,1-.09.82,1.14,1.14,0,0,1-.62.53l-.5.16-1,.32-.5.16-.71.26c.22.54.4,1,.54,1.45s.26.72.33.9l.24.58c.08.2.16.4.22.59a1,1,0,0,1-.09.82,1.14,1.14,0,0,1-.62.53A.91.91,0,0,1,148.89,20.65Z"/><path class="cls-2" d="M160.16,9.53c-1,.23-1.94.49-2.92.78l-1,.32a8.3,8.3,0,0,1-1,.29.93.93,0,0,1-.69-.09.81.81,0,0,1-.41-.55.87.87,0,0,1,0-.6,1.24,1.24,0,0,1,.37-.48,3.21,3.21,0,0,1,.6-.26c.3-.11.67-.23,1.09-.36s.87-.26,1.35-.38l1.4-.37,1.21-.29.79-.19L162.54,7c.47-.11,1-.21,1.47-.3l1.2-.26a3.43,3.43,0,0,1,1.14,0,1.71,1.71,0,0,1,.93.41,2.12,2.12,0,0,1,.6,1.14c.05.22.13.61.23,1.14s.22,1.14.34,1.83.25,1.4.37,2.15.23,1.45.31,2.11.16,1.23.2,1.71a3.25,3.25,0,0,1,0,.95,1.31,1.31,0,0,1-.31.55,1,1,0,0,1-.53.3,1,1,0,0,1-.69-.08.85.85,0,0,1-.41-.56,1.86,1.86,0,0,1-.06-.45c0-.14,0-.3,0-.46,0-.31-.06-.62-.09-.94l-.12-.93c-.09-.69-.19-1.37-.31-2s-.24-1.35-.37-2c-.08-.43-.15-.87-.22-1.3S166.05,9,166,8.6l0-.06-.05-.13V8.35a12.75,12.75,0,0,0-1.4.19l-1.38.3Zm1.19,16.12-3.69.88-.53.12a2.36,2.36,0,0,1-.58.07.81.81,0,0,1-.48-.15.8.8,0,0,1-.3-.5,1,1,0,0,1,.07-.65,1.21,1.21,0,0,1,.43-.49.37.37,0,0,1,.15-.08l.14-.05a12.67,12.67,0,0,1,1.38-.35l1.4-.31L160,24l-.47-1.79c-.2-.76-.39-1.52-.59-2.27s-.39-1.5-.57-2.27a1,1,0,0,1,.16-.8,1.13,1.13,0,0,1,.67-.48,1,1,0,0,1,.55,0,.87.87,0,0,1,.44.32.37.37,0,0,1,.05.11.36.36,0,0,1,0,.11,2.06,2.06,0,0,1,.15.46c0,.16.06.32.1.48l.48,1.87c.17.64.33,1.27.49,1.89s.32,1.24.49,1.88l2.8-.68,0-.06-1.13-4.23c-.1-.37-.2-.74-.29-1.1l-.27-1.1a1,1,0,0,1,.16-.81,1.16,1.16,0,0,1,.67-.47.87.87,0,0,1,1,.32.68.68,0,0,1,.12.24,2.38,2.38,0,0,1,.15.5c0,.16.07.33.11.5l1.12,4.21c.08.26.15.51.22.77s.13.51.19.77L168.2,22l.54-.13.94-.22,1.13-.25,1.1-.24.89-.17a2.57,2.57,0,0,1,.44-.06.83.83,0,0,1,.74.66,1,1,0,0,1-.16.81,1.09,1.09,0,0,1-.67.47c-1.35.32-2.71.63-4.05.93l-4,.92Z"/><path class="cls-2" d="M178.58,20.19c0-.27.09-.56.16-.86l.18-.9c.05-.29.09-.49.11-.62q.53-2.88.92-5.75t.64-5.8c0-.11,0-.28,0-.52s0-.49,0-.75,0-.5.06-.71a1.93,1.93,0,0,1,.08-.44,1.44,1.44,0,0,1,.36-.48,1,1,0,0,1,.53-.25.94.94,0,0,1,.68.14.8.8,0,0,1,.37.59,2.42,2.42,0,0,1,0,.76c0,.26-.06.5-.09.74q-.3,3.44-.75,6.79c-.31,2.24-.66,4.49-1.08,6.75,0,.12,0,.27-.08.45s-.05.35-.08.54-.07.37-.1.53a2.48,2.48,0,0,1-.12.38,1.29,1.29,0,0,1-.35.44,1,1,0,0,1-.51.23,1,1,0,0,1-.68-.15.8.8,0,0,1-.36-.59A1.84,1.84,0,0,1,178.58,20.19Z"/><path class="cls-2" d="M193.34.36a1.11,1.11,0,0,1,.74-.36,1,1,0,0,1,.66.2.79.79,0,0,1,.32.62l.11,1.56c.23,0,.46-.06.7-.07l.7-.05,1-.06,1-.05a3.85,3.85,0,0,1,.48,0,1.43,1.43,0,0,1,.44.09.7.7,0,0,1,.32.24.87.87,0,0,1,.16.47,1,1,0,0,1-.29.77,1.13,1.13,0,0,1-.74.36l-1.28.08-1.31.07c-.83.06-1.67.14-2.5.24l-2.49.3-.85.11c-.28,0-.57.07-.86.09a.91.91,0,0,1-.66-.2.78.78,0,0,1-.32-.61,1,1,0,0,1,.15-.59,1,1,0,0,1,.45-.4.7.7,0,0,1,.14-.08.41.41,0,0,1,.16,0A1.76,1.76,0,0,1,190,3l.41,0,1.66-.2.54-.07.55-.07-.1-1.47A1,1,0,0,1,193.34.36Zm-2.49,7.05a3.53,3.53,0,0,1,1-1.21,4.41,4.41,0,0,1,1.39-.79,5.92,5.92,0,0,1,1.62-.34,3.74,3.74,0,0,1,1.46.17,3.9,3.9,0,0,1,1.25.69,3.73,3.73,0,0,1,.9,1.11,3.44,3.44,0,0,1,.41,1.44,2.83,2.83,0,0,1-.29,1.5,3.89,3.89,0,0,1-.91,1.19,4.4,4.4,0,0,1-1.31.82,4.69,4.69,0,0,1-1.48.35,6.15,6.15,0,0,1-.74,0,4.94,4.94,0,0,1-.75-.09,3.54,3.54,0,0,1-2-1.14A3.49,3.49,0,0,1,190.56,9,3.18,3.18,0,0,1,190.85,7.41Zm.9,8.23a.81.81,0,0,1-.32-.62,1,1,0,0,1,.18-.62,1.19,1.19,0,0,1,.5-.42,2,2,0,0,1,.41-.08l.62-.06.62-.06.47,0,2.78-.29,2.79-.3,1.25-.18c.42-.05.84-.1,1.26-.13a4.46,4.46,0,0,1,.81,0,3,3,0,0,1,.78.2,2.23,2.23,0,0,1,.67.42,1.55,1.55,0,0,1,.43.67,2.12,2.12,0,0,1,.11.47c0,.15,0,.31,0,.47,0,.37,0,.73,0,1.09s0,.72,0,1.09,0,.49,0,.72,0,.47,0,.71,0,.61,0,.9a1,1,0,0,1-.46.74,1,1,0,0,1-.56.21.91.91,0,0,1-.66-.2.78.78,0,0,1-.32-.61,5.14,5.14,0,0,1,0-.55v-.55l0-.36,0-.72,0-.38c0-.32,0-.64,0-.95s0-.64,0-1c0,0,0-.08,0-.14a.28.28,0,0,0,0-.15q-.08-.17-.39-.18a3.37,3.37,0,0,0-.46,0c-.45,0-.9.07-1.33.13l-1.31.18-3.59.41c-1.2.13-2.4.24-3.6.32A1,1,0,0,1,191.75,15.64ZM194,7.12a2.33,2.33,0,0,0-.7.31,1.8,1.8,0,0,0-.51.52,1.35,1.35,0,0,0-.16.77,1.57,1.57,0,0,0,.74,1.37,2.67,2.67,0,0,0,1.54.31,2.81,2.81,0,0,0,.68-.13,2.86,2.86,0,0,0,.66-.31,1.6,1.6,0,0,0,.47-.5,1.09,1.09,0,0,0,.15-.67,1.81,1.81,0,0,0-.21-.73,2,2,0,0,0-1.14-1,1.9,1.9,0,0,0-.75-.11A4.27,4.27,0,0,0,194,7.12Zm9.12,4.07a2.11,2.11,0,0,1-.11-.53c0-.3-.09-.66-.14-1.09s-.1-.9-.15-1.41-.1-1-.14-1.44-.09-.87-.13-1.24-.06-.62-.07-.76l-.12-1c0-.33-.08-.66-.13-1,0-.18-.05-.37-.08-.55a5,5,0,0,1-.06-.56,1,1,0,0,1,.29-.77A1.11,1.11,0,0,1,203,.48a.91.91,0,0,1,.89.47,1.57,1.57,0,0,1,.1.44c0,.23.08.52.13.88s.09.76.15,1.2.11.91.17,1.39h.19l1.06,0,1.4-.1a1.55,1.55,0,0,0,.31,0,1.36,1.36,0,0,1,.87.26.84.84,0,0,1,.24.56,1,1,0,0,1-.29.77,1.09,1.09,0,0,1-.73.36l-.53,0-1.05,0-.53,0-.75.07c.07.59.13,1.1.16,1.54s.07.77.1,1l.09.62c0,.21,0,.42.06.62a1,1,0,0,1-.29.77,1.11,1.11,0,0,1-.73.36A.9.9,0,0,1,203.08,11.19Z"/><path class="cls-2" d="M209.26,9.8a.8.8,0,0,1-.26-.64.89.89,0,0,1,.23-.61,1.17,1.17,0,0,1,.54-.37,4.56,4.56,0,0,1,.67,0c.36,0,.76,0,1.19,0h2.08l1.26,0,1.15,0,1.14,0c.39,0,.82,0,1.27,0l1.52,0c.5,0,1,0,1.52,0a.9.9,0,0,1,.64.26.77.77,0,0,1,.26.64.87.87,0,0,1-.24.61,1.32,1.32,0,0,1-.55.36,2.65,2.65,0,0,1-.51.07l-.8,0h-1.44q-.57,0-1.05,0L217,10l-.91,0L215,10v.09l0,1.62v.82a1,1,0,0,1-.36.74,1.09,1.09,0,0,1-.77.29,1,1,0,0,1-.57-.2.81.81,0,0,1-.31-.5,1.54,1.54,0,0,1-.05-.45c0-.22,0-.46,0-.73s0-.55,0-.84,0-.55,0-.8h-1.53l-1.53,0A.94.94,0,0,1,209.26,9.8Zm1.38-7.11a3.62,3.62,0,0,1,.81-1A5.5,5.5,0,0,1,212.54,1,6.71,6.71,0,0,1,213.68.5,8.27,8.27,0,0,1,215,.25a10.55,10.55,0,0,1,1.36-.06c.25,0,.51,0,.77,0a6.22,6.22,0,0,1,.77.1A4.17,4.17,0,0,1,219,.78a3.57,3.57,0,0,1,.91.72,3.18,3.18,0,0,1,.61,1,3.14,3.14,0,0,1,.2,1.19,2.36,2.36,0,0,1-.14.8,2.89,2.89,0,0,1-.35.73,3.62,3.62,0,0,1-1,1,5.22,5.22,0,0,1-1.27.64,7.66,7.66,0,0,1-1.4.32,10.93,10.93,0,0,1-1.38.06A10.88,10.88,0,0,1,213.61,7,5.89,5.89,0,0,1,212,6.48a3.7,3.7,0,0,1-1.24-1,2.49,2.49,0,0,1-.46-1.6A2.52,2.52,0,0,1,210.64,2.69Zm4,17.33a4.17,4.17,0,0,1-.87-.15,2.32,2.32,0,0,1-.74-.36,1.18,1.18,0,0,1-.45-.68,1.82,1.82,0,0,1-.09-.66c0-.24,0-.46,0-.68l0-.54a5.51,5.51,0,0,0-.06-.57l-.06-.38c0-.13,0-.26,0-.39a1,1,0,0,1,.36-.74,1.09,1.09,0,0,1,.76-.29.86.86,0,0,1,.57.19,1.06,1.06,0,0,1,.29.45,2,2,0,0,1,.11.57c0,.21,0,.4,0,.57a1.83,1.83,0,0,1,0,.21.75.75,0,0,0,0,.21l0,.86a1.77,1.77,0,0,1,0,.21,1.48,1.48,0,0,1,0,.21,2.63,2.63,0,0,0,.39.06l.4,0q3.22.08,6.44.08h1.61c.53,0,1.06,0,1.58,0a1,1,0,0,1,.65.25.83.83,0,0,1,.26.64,1,1,0,0,1-.22.58,1.16,1.16,0,0,1-.53.38.75.75,0,0,1-.31.06.87.87,0,0,1-.23,0h-2.8c-2.12,0-4.23,0-6.34-.08C215.22,20.06,215,20,214.65,20Zm.6-17.9a5.35,5.35,0,0,0-1,.16,4.7,4.7,0,0,0-.91.33,2.43,2.43,0,0,0-.75.55,1,1,0,0,0-.28.61.9.9,0,0,0,.35.75,2.75,2.75,0,0,0,.87.45,5.38,5.38,0,0,0,1,.23,8.36,8.36,0,0,0,.86.07,7.56,7.56,0,0,0,.9,0,5.23,5.23,0,0,0,1.06-.2,2.58,2.58,0,0,0,.89-.45,1,1,0,0,0,.39-.79,1.58,1.58,0,0,0-.26-.86,1.64,1.64,0,0,0-1-.69,6.77,6.77,0,0,0-1.26-.15C215.88,2.09,215.57,2.1,215.25,2.12Zm1.67,10.76a.82.82,0,0,1-.26-.65.88.88,0,0,1,.22-.59,1.17,1.17,0,0,1,.52-.36.75.75,0,0,1,.31-.06,7.83,7.83,0,0,1,1.28,0c.42,0,.85,0,1.27,0h3.22c0-.77.08-1.55.09-2.32l.06-2.32q0-.91,0-1.8t0-1.8a6.66,6.66,0,0,0,0-.77c0-.27,0-.53,0-.8A1,1,0,0,1,224,.64a1.1,1.1,0,0,1,.78-.29,1,1,0,0,1,.83.5,1.55,1.55,0,0,1,.07.42c0,.22,0,.49,0,.81s0,.65,0,1,0,.7,0,1V5c0,.26,0,.44,0,.54s0,.58,0,1.08,0,1.07,0,1.7,0,1.3-.06,2-.06,1.32-.09,1.9-.07,1.09-.11,1.51a4.22,4.22,0,0,1-.1.73,1.19,1.19,0,0,1-.42.49,1.07,1.07,0,0,1-.63.17,1,1,0,0,1-.65-.25.84.84,0,0,1-.26-.65c0-.16,0-.33,0-.5s0-.35,0-.51c-.28,0-.55,0-.82,0h-2.88c-.69,0-1.39,0-2.09,0A.93.93,0,0,1,216.92,12.88Z"/><path class="cls-2" d="M240.82,15.1l-3.53-.46-3.52-.46-.55-.07a2.33,2.33,0,0,1-.55-.14.92.92,0,0,1-.41-.31.81.81,0,0,1-.1-.58,1,1,0,0,1,.3-.58,1.29,1.29,0,0,1,.58-.3.33.33,0,0,1,.17,0h.14a14,14,0,0,1,1.42.16l1.41.21,2.27.31,4.52.57,2.25.3.54.08,1,.12,1.14.17,1.12.17.89.15a3.09,3.09,0,0,1,.43.1.84.84,0,0,1,.46.89.93.93,0,0,1-.43.69,1.13,1.13,0,0,1-.8.21l-3.34-.47-3.34-.47v0l-.09.72c-.1.73-.19,1.43-.28,2.11s-.17,1.36-.23,2.06c0,.17,0,.33,0,.49s0,.32,0,.48a.9.9,0,0,1-.43.66,1.15,1.15,0,0,1-.79.2.89.89,0,0,1-.79-.62,2.1,2.1,0,0,1,0-.53c0-.29,0-.65.08-1.05s.09-.86.14-1.33.12-.92.17-1.35.11-.82.16-1.16.07-.58.09-.71Zm1.92-9.32c-1.06-.1-2.13-.2-3.2-.28l-1.36-.09c-.45,0-.91-.08-1.36-.14a.93.93,0,0,1-.61-.33.81.81,0,0,1-.19-.66.89.89,0,0,1,.28-.57,1.28,1.28,0,0,1,.55-.3,3.89,3.89,0,0,1,.51,0c.28,0,.64,0,1.08.07l1.47.13,1.69.14c0-.19,0-.41.06-.65s.06-.47.09-.66a1,1,0,0,1,.44-.7,1.09,1.09,0,0,1,.79-.2,1,1,0,0,1,.52.2.77.77,0,0,1,.22.38,1.45,1.45,0,0,1,.05.48c0,.18,0,.35-.05.53s0,.24,0,.41a2.21,2.21,0,0,0,0,.42l2.21.23,1.29.15a5.85,5.85,0,0,1,.62.11,3.25,3.25,0,0,1,.64.24,1.24,1.24,0,0,1,.45.43,1,1,0,0,1,.11.66,1.35,1.35,0,0,1-.41.75,4.77,4.77,0,0,1-.94.76A14.54,14.54,0,0,1,246.3,8c-.5.23-1,.46-1.59.66l1.27.78,1.23.76.94.6.4.26a.83.83,0,0,1,.23.72,1,1,0,0,1-.43.7,1.12,1.12,0,0,1-.8.2.91.91,0,0,1-.34-.11c-.08,0-.33-.18-.74-.43l-1.41-.86c-.52-.32-1.05-.64-1.56-1l-1.23-.77-.66.21-1.16.33-1.39.39-1.39.37-1.15.27a2.12,2.12,0,0,1-.64.08,1,1,0,0,1-.62-.32.8.8,0,0,1-.18-.67.81.81,0,0,1,.21-.48,1.41,1.41,0,0,1,.4-.33,2.16,2.16,0,0,1,.62-.17c.23,0,.44-.08.62-.13q.56-.11,1.08-.24c.35-.1.7-.19,1.06-.27,1.18-.32,2.34-.67,3.49-1.07a26,26,0,0,0,3.36-1.42Z"/><path class="cls-2" d="M258.66,8.82l-2.08-.29-.92-.09a7,7,0,0,1-.9-.14.9.9,0,0,1-.58-.38.77.77,0,0,1-.13-.68.94.94,0,0,1,.29-.51,1.07,1.07,0,0,1,.54-.27.4.4,0,0,1,.15,0,.38.38,0,0,0,.15,0,2,2,0,0,1,.43.06l.42.07,1.66.22a4.16,4.16,0,0,0,.16-.4c0-.12.1-.25.16-.39l.23-.67a2.81,2.81,0,0,1,.29-.66A1.38,1.38,0,0,1,259,4.2a1,1,0,0,1,.71-.06,1,1,0,0,1,.58.38.81.81,0,0,1,.13.68,4.79,4.79,0,0,1-.24.73,7.06,7.06,0,0,0-.29.71c0,.07-.05.14-.07.2s0,.13-.06.2l.93.14.93.19a3.45,3.45,0,0,1,.62.2,1.65,1.65,0,0,1,.52.33,1.29,1.29,0,0,1,.33.48,1,1,0,0,1,0,.66,1.83,1.83,0,0,1-.38.78,4.52,4.52,0,0,1-.59.64,13.48,13.48,0,0,1-1.27,1c-.49.33-.94.62-1.36.88l.62.6c.21.19.41.39.62.6l.4.35c.17.15.35.31.52.48l.49.48a2.49,2.49,0,0,1,.29.34.81.81,0,0,1,.13.66,1,1,0,0,1-.5.65,1.13,1.13,0,0,1-.81.14l-.2-.07-.19-.11L260.4,16l-.87-.83c-.33-.31-.66-.64-1-1l-.86-.86-1.18.62-1.19.58-.66.32a5.17,5.17,0,0,1-.69.26l-.26,0a.57.57,0,0,1-.26,0,.9.9,0,0,1-.58-.38.77.77,0,0,1-.13-.68,1,1,0,0,1,.43-.62,2.13,2.13,0,0,1,.43-.21,4.09,4.09,0,0,0,.42-.16l.52-.21.49-.24q1.51-.75,3-1.56a21.26,21.26,0,0,0,2.77-1.9C260.05,9,259.36,8.92,258.66,8.82Zm-4.92,15a2.25,2.25,0,0,1-.51-1.05,4.53,4.53,0,0,1,0-1.28c.05-.46.11-.91.18-1.34s.13-.84.19-1.26.15-.84.24-1.26a1,1,0,0,1,.5-.65,1.09,1.09,0,0,1,.8-.14.85.85,0,0,1,.56.33,1.11,1.11,0,0,1,.16.55,2.53,2.53,0,0,1-.07.65c0,.23-.09.43-.12.62s-.07.37-.14.73-.12.73-.17,1.12-.09.76-.1,1.09,0,.54.09.6a.32.32,0,0,0,.14.08l.15,0,.36.08.74.12.37.09c.4.07.81.16,1.21.25l1.2.27q1.1.24,2.16.51c.71.17,1.43.35,2.16.51l.3.07.59.11.28.06.55.13a2.07,2.07,0,0,1,.56.2,1.12,1.12,0,0,1,.39.36.8.8,0,0,1,.06.59,1,1,0,0,1-.5.65,1.13,1.13,0,0,1-.81.14l-1.69-.39-3.4-.83-1.72-.39-1-.22-1-.2-.76-.13-.76-.16A2.32,2.32,0,0,1,253.74,23.77Zm13.05-3.36a1.08,1.08,0,0,1-.64.05.92.92,0,0,1-.58-.38.84.84,0,0,1-.13-.68c.05-.23.11-.46.18-.68s.13-.46.2-.68c.14-.57.28-1.13.41-1.69s.28-1.12.44-1.68l0-.17.09-.32,0-.17-.67-.17-.55-.13-2.77-.6a1,1,0,0,1-.58-.38.83.83,0,0,1-.13-.69.89.89,0,0,1,.6-.7,1.87,1.87,0,0,1,1,0l.9.2,1.8.38.91.21c.15-.67.28-1.34.38-2s.23-1.32.38-2a1,1,0,0,1,.5-.66,1.14,1.14,0,0,1,.8-.13,1,1,0,0,1,.53.31.92.92,0,0,1,.22.58,2.57,2.57,0,0,1-.05.39c0,.16-.07.34-.11.52s-.08.37-.11.53a4,4,0,0,1-.08.4c-.07.39-.14.78-.22,1.18s-.15.79-.24,1.17q-.22,1-.48,2c-.17.65-.34,1.31-.5,2s-.3,1.11-.42,1.68a12.63,12.63,0,0,1-.48,1.7.38.38,0,0,1-.06.13c0,.05-.05.09-.07.13A1.08,1.08,0,0,1,266.79,20.41Z"/><path class="cls-2" d="M280.76,27.48l-.79-.33-.4-.13c-.78-.27-1.55-.51-2.32-.73s-1.54-.47-2.32-.73a1,1,0,0,1-.46-.31.77.77,0,0,1-.19-.5,7.56,7.56,0,0,1,.25-1c.17-.6.38-1.33.65-2.2l.88-2.82c.32-1,.64-2,.94-2.91l.79-2.43c.23-.7.38-1.17.47-1.42a1,1,0,0,1,.56-.6,1.12,1.12,0,0,1,.82,0l2,.66,2,.66.63.23a7.22,7.22,0,0,1,.69.31,3.88,3.88,0,0,1,.62.4,1.63,1.63,0,0,1,.43.49,2.24,2.24,0,0,1,.2,1,6.75,6.75,0,0,1-.13,1.15,9.85,9.85,0,0,1-.31,1.13l-.34,1-.32.93.28.09.25.07,1.07.33.27.08.26.08.37-1.13,1.36-4a.94.94,0,0,1,.56-.59,1.16,1.16,0,0,1,.82,0,.82.82,0,0,1,.57.49,1.11,1.11,0,0,1,0,.74l-1.37,4-2.67,7.94-1.36,3.95a1,1,0,0,1-.57.6,1.11,1.11,0,0,1-.82,0,.84.84,0,0,1-.57-.49,1.14,1.14,0,0,1,0-.75l1.37-4,1.69-5-.27-.08-.26-.08-1.06-.32-.26-.08-.26-.08c-.32.95-.62,1.89-.93,2.83s-.63,1.89-1,2.83a1.72,1.72,0,0,1-.56.81.93.93,0,0,1-.94.11ZM282,22.23q.51-1.62,1.08-3.24l.3-.87c.13-.38.26-.76.39-1.17a12,12,0,0,0,.32-1.16,2.51,2.51,0,0,0,.08-.84l-.85-.37-.87-.32-1.27-.42-1.29-.39q-.87,2.66-1.69,5.29c-.56,1.75-1.1,3.53-1.65,5.33l1.92.58c.63.2,1.26.4,1.9.62l.54.19C281.3,24.38,281.66,23.3,282,22.23Zm5.13,11a1.57,1.57,0,0,1,.06-.79c.18-.6.37-1.2.56-1.79s.39-1.19.56-1.8c.41-1.26.8-2.51,1.19-3.76s.77-2.5,1.16-3.76l1.11-3.62c.1-.29.19-.59.28-.88s.18-.6.29-.91a.92.92,0,0,1,.56-.58,1.14,1.14,0,0,1,.81,0c.36.12.56.31.6.55a1.8,1.8,0,0,1-.06.79q-.87,2.78-1.72,5.52l-1.71,5.5c-.29.92-.57,1.84-.85,2.74s-.56,1.82-.88,2.73a.94.94,0,0,1-.56.59,1.16,1.16,0,0,1-.82,0C287.38,33.62,287.18,33.45,287.14,33.21Z"/><path class="cls-2" d="M305.84,34.34l-1.43-.62c-.19.53-.39,1.06-.6,1.58s-.42,1.05-.62,1.57l-.29.75c-.1.25-.19.5-.27.76s-.09.27-.13.4-.09.25-.15.39a1,1,0,0,1-.62.54,1.1,1.1,0,0,1-.82,0,1,1,0,0,1-.4-.31.74.74,0,0,1-.16-.47,2.22,2.22,0,0,1,.15-.69l.39-1.12c.15-.4.3-.78.45-1.15s.25-.63.3-.78c.13-.37.27-.75.41-1.13s.28-.75.43-1.12q-1.34-.52-2.64-1.11l-1.17-.5c-.19.52-.39,1-.59,1.54s-.42,1-.62,1.53c-.07.24-.16.48-.25.73s-.18.49-.26.73-.09.27-.13.4a3.12,3.12,0,0,1-.15.39,1,1,0,0,1-.62.54,1.06,1.06,0,0,1-.82,0,1,1,0,0,1-.4-.31.72.72,0,0,1-.16-.47,3.43,3.43,0,0,1,.23-.86c.15-.48.34-1,.56-1.64s.45-1.24.69-1.86.44-1.13.61-1.53l-.42-.17-.42-.18-1.62-.65c-.54-.21-1.07-.44-1.59-.67a.92.92,0,0,1-.5-.49.93.93,0,0,1,.7-1.25,2.19,2.19,0,0,1,.93.13c1.41.55,2.79,1.13,4.15,1.73s2.74,1.2,4.13,1.79l.32.13.31.13,1.29.53.31.12.32.13c.66.27,1.33.55,2,.85l2,.88a4.51,4.51,0,0,1,.44.22,1.36,1.36,0,0,1,.37.29.8.8,0,0,1,.19.38.82.82,0,0,1-.09.51.92.92,0,0,1-.61.54,1.1,1.1,0,0,1-.82,0l-.2-.09-.41-.21-.23-.1ZM300,26.81a5.76,5.76,0,0,1-1.06-.67,3.37,3.37,0,0,1-.8-.89,1.84,1.84,0,0,1-.25-1.15,3.26,3.26,0,0,1,.11-.52c.06-.2.13-.41.21-.62s.16-.42.24-.63.16-.38.23-.53l.44-1.07c.16-.37.3-.73.43-1.09.07-.19.13-.38.19-.56a4.33,4.33,0,0,1,.22-.56.94.94,0,0,1,.61-.54,1.05,1.05,0,0,1,.82,0,.86.86,0,0,1,.56.73,2.52,2.52,0,0,1-.19.82c-.15.43-.31.88-.51,1.37s-.39,1-.58,1.42-.32.77-.4.94a3.3,3.3,0,0,1-.17.45,1,1,0,0,0-.11.46.1.1,0,0,0,0,.09.41.41,0,0,0,0,.1.9.9,0,0,0,.31.35,3.49,3.49,0,0,0,.49.33,4.52,4.52,0,0,0,.53.28l.44.19c.8.36,1.61.71,2.44,1l2.46,1c.31.13.62.24.91.35s.6.24.91.37a1,1,0,0,1,.49.49.78.78,0,0,1,0,.7,1,1,0,0,1-.42.46,1.09,1.09,0,0,1-.61.13,2.75,2.75,0,0,1-.62-.18l-1.2-.45-1.49-.61-1.52-.63-1.3-.55-.79-.34Z"/></g></g></svg>