<svg xmlns="http://www.w3.org/2000/svg" viewBox="0 0 346.49 56.02"><defs><style>.cls-1{fill:#516f3c;}</style></defs><title>Asset 27</title><g id="Layer_2" data-name="Layer 2"><g id="Layer_1-2" data-name="Layer 1"><path class="cls-1" d="M0,27.78C0,8.05,14.2,0,26.27,0c9,0,16.85,4.48,16.85,12.07,0,4.78-3.57,9.19-9.72,9.19-6.38,0-9.34-4-9.34-7.75,0-3.19,2.13-6.3,5.77-6.3,1.14,0,1.67.61,1.67,1.22a1.12,1.12,0,0,1-1.13,1.14c-1.14,0-1.52-.54-2.89-.54-.83,0-1.29.84-1.29,1.75a2.86,2.86,0,0,0,3.11,2.66c1.9,0,3.95-1.45,3.95-4.79,0-3-2-6.22-5.69-6.22-8,0-12.38,11.54-12.38,23.76,0,20,8,27.4,13.89,27.4,3.5,0,6.31-2.65,6.31-6.83s-2.28-6.37-3.8-6.37c-.76,0-1.37.53-1.37,1.59,0,1.21,2.2,1.59,2.2,3.72a1.72,1.72,0,0,1-1.67,1.82c-1,0-2-.83-2-2.58a8.35,8.35,0,0,1,7.9-8.65A7.2,7.2,0,0,1,44.1,43.8C44.1,51.17,37.35,56,26.65,56,12.53,56,0,47.14,0,27.78Z"/><path class="cls-1" d="M45.78,28.16C45.78,9.41,59.75,0,73.87,0,87.76,0,101.8,9.34,101.8,28.09S87.76,56,73.79,56,45.78,46.76,45.78,28.16ZM87.3,34.24c0-14.58-6.15-32-16.93-32-7.06,0-10.32,9.33-10.32,20,0,14.5,6,31.43,17,31.43C84,53.75,87.3,44.71,87.3,34.24Z"/><path class="cls-1" d="M104.54,54.88c3-17.76,2.28-35.52.76-53.29h16A492.43,492.43,0,0,0,147.66,49.5c.83-18.07-3.8-35.84-8-47.91h12.14c-3,13.67-2.27,35.53-.76,53.29H134.22C126,39.55,119,24.06,108.64,8.73c-.76,16.47,2.28,36.51,8,46.15Z"/><path class="cls-1" d="M173.09,55c1.07-12,2.13-24.06,2.13-36.13,0-5-.15-9.95-.61-15H170c-3.19,0-5.92,1.82-5.92,6.38,0,2.73,1.75,5.39,4.78,5.39,1.82,0,2.66-.68,2.66-1.29s-.68-1.06-2.05-1.06c-1.75,0-2.28-.76-2.28-1.52a1.52,1.52,0,0,1,1.67-1.52c1.9,0,3.42,1.9,3.42,4,0,4.4-3.95,6.68-8.12,6.68-4.71,0-9.72-3-9.72-9.26,0-4.86,3.72-10.1,12.52-10.1h27.41c8.8,0,12.52,5.24,12.52,10.1,0,6.3-5,9.26-9.71,9.26C193,21,189,18.67,189,14.27c0-2.12,1.51-4,3.41-4a1.52,1.52,0,0,1,1.67,1.52c0,.76-.53,1.52-2.28,1.52-1.36,0-2.05.53-2.05,1.06s.84,1.29,2.66,1.29c3,0,4.78-2.66,4.78-5.39,0-4.56-2.73-6.38-5.92-6.38h-4.17c-.46,5-.61,10-.61,15,0,12.07,1.06,24.14,2.13,36.13Z"/><path class="cls-1" d="M199.44,54.88C207.11,37.12,215.68,16,217.81,1.59h15.56a373,373,0,0,0,19.06,53.29H236.86c-2.27-8.42-8.8-12.67-14.8-12.67s-11.23,4.17-11.23,12.67Zm24.44-15.33A17,17,0,0,1,233,41.9c-3.19-10.55-8.5-25-12.75-35.14a169.82,169.82,0,0,0-8.88,37.5C214.17,41.07,219.1,39.55,223.88,39.55Z"/><path class="cls-1" d="M251.21,27.78C251.21,8.05,265.41,0,277.48,0c9,0,16.85,4.48,16.85,12.07,0,4.78-3.57,9.19-9.71,9.19-6.38,0-9.34-4-9.34-7.75,0-3.19,2.12-6.3,5.77-6.3,1.14,0,1.67.61,1.67,1.22a1.13,1.13,0,0,1-1.14,1.14c-1.14,0-1.52-.54-2.89-.54-.83,0-1.29.84-1.29,1.75a2.86,2.86,0,0,0,3.12,2.66c1.89,0,3.94-1.45,3.94-4.79,0-3-2-6.22-5.69-6.22-8,0-12.37,11.54-12.37,23.76,0,20,8,27.4,13.89,27.4,3.49,0,6.3-2.65,6.3-6.83s-2.28-6.37-3.8-6.37c-.75,0-1.36.53-1.36,1.59,0,1.21,2.2,1.59,2.2,3.72A1.72,1.72,0,0,1,282,47.52c-1,0-2-.83-2-2.58a8.35,8.35,0,0,1,7.89-8.65,7.21,7.21,0,0,1,7.52,7.51c0,7.37-6.76,12.22-17.46,12.22C263.74,56,251.21,47.14,251.21,27.78Z"/><path class="cls-1" d="M312.71,55c1.06-12,2.12-24.06,2.12-36.13,0-5-.15-9.95-.6-15h-4.64c-3.18,0-5.92,1.82-5.92,6.38,0,2.73,1.75,5.39,4.79,5.39,1.82,0,2.65-.68,2.65-1.29s-.68-1.06-2.05-1.06c-1.74,0-2.27-.76-2.27-1.52a1.52,1.52,0,0,1,1.67-1.52c1.89,0,3.41,1.9,3.41,4,0,4.4-3.95,6.68-8.12,6.68C299,21,294,18,294,11.69c0-4.86,3.72-10.1,12.53-10.1H334c8.81,0,12.53,5.24,12.53,10.1,0,6.3-5,9.26-9.72,9.26-4.17,0-8.12-2.28-8.12-6.68,0-2.12,1.52-4,3.42-4a1.52,1.52,0,0,1,1.67,1.52c0,.76-.54,1.52-2.28,1.52-1.37,0-2,.53-2,1.06s.83,1.29,2.66,1.29c3,0,4.78-2.66,4.78-5.39,0-4.56-2.73-6.38-5.92-6.38h-4.18c-.45,5-.61,10-.61,15,0,12.07,1.07,24.14,2.13,36.13Z"/></g></g></svg>