<svg xmlns="http://www.w3.org/2000/svg" viewBox="0 0 245.53 55.84"><defs><style>.cls-1{fill:#516f3c;}</style></defs><title>Asset 37</title><g id="Layer_2" data-name="Layer 2"><g id="Layer_1-2" data-name="Layer 1"><path class="cls-1" d="M0,43.36c0-5,3.94-9.69,10.37-9.69,4.31,0,8.24,2.35,8.24,6.74,0,2.12-1.51,4-3.4,4a1.52,1.52,0,0,1-1.67-1.52c0-.75.53-1.51,2.27-1.51,1.37,0,1.82-.53,1.82-1.06,0-1-1.06-1.59-2.34-1.59-1.9,0-4.09,1.29-4.09,4.92A9.94,9.94,0,0,0,21.26,53.88c3.79,0,7.27-4,7.27-8.78C28.53,35.64,1.74,26,1.74,15.44,1.74,3.93,14.53,0,24.74,0c8.63,0,16.5,3.41,16.5,10.14,0,5.3-5.37,8.17-10.75,8.17-6.12,0-8.62-3.71-8.62-6.88,0-2.27,1.28-4.24,3.48-4.24a1.71,1.71,0,0,1,1.89,1.74,1.77,1.77,0,0,1-2,1.74c-1.13,0-1.66.6-1.66,1.36a2.42,2.42,0,0,0,2.65,2.2c1.81,0,3.86-1.44,3.86-5.07,0-4.92-3.94-7.42-7.72-7.42C18.92,1.74,14,3.93,14,9c0,8.93,27.69,16.73,27.69,31.18,0,10.37-11.88,15.66-22.92,15.66C5.52,55.84,0,49.34,0,43.36Z"/><path class="cls-1" d="M62.88,54.78c1.06-12,2.12-24,2.12-36,0-5-.15-9.92-.61-14.91H59.78c-3.18,0-5.91,1.81-5.91,6.35,0,2.73,1.74,5.38,4.77,5.38,1.82,0,2.65-.68,2.65-1.29s-.68-1.06-2-1.06c-1.74,0-2.27-.75-2.27-1.51a1.51,1.51,0,0,1,1.66-1.52c1.89,0,3.41,1.9,3.41,4,0,4.38-3.94,6.65-8.1,6.65-4.69,0-9.69-2.95-9.69-9.23C44.26,6.81,48,1.59,56.75,1.59H84.06c8.78,0,12.49,5.22,12.49,10.06,0,6.28-5,9.23-9.69,9.23-4.16,0-8.09-2.27-8.09-6.65,0-2.12,1.51-4,3.4-4a1.52,1.52,0,0,1,1.67,1.52c0,.76-.53,1.51-2.27,1.51-1.36,0-2,.53-2,1.06s.84,1.29,2.65,1.29c3,0,4.77-2.65,4.77-5.38,0-4.54-2.72-6.35-5.9-6.35H76.88c-.46,5-.61,9.91-.61,14.91,0,12,1.06,24.06,2.12,36Z"/><path class="cls-1" d="M96.77,28.07C96.77,9.38,110.7,0,124.77,0c13.85,0,27.85,9.31,27.85,28s-14,27.84-27.92,27.84S96.77,46.61,96.77,28.07Zm41.4,6.06c0-14.53-6.13-31.86-16.88-31.86-7,0-10.29,9.31-10.29,20,0,14.45,6,31.32,17,31.32C134.91,53.57,138.17,44.57,138.17,34.13Z"/><path class="cls-1" d="M156.1,54.71a198.56,198.56,0,0,0,1.81-27.54c0-8.93-.53-19.22-1.81-25.58C165.48,1.59,174.33,0,181,0c10.59,0,16.72,6.13,16.72,12.33,0,6.36-6.43,12.72-18.08,12.72v.37c12.11,2.73,19.6,8.1,19.6,29.29H183.49c0-10.52-1.52-17-3.48-21.42-3.11-7.18-7.19-8.85-7.19-13.24,0-3.33,2.27-4.61,3.78-4.61,1.82,0,2.5,1.13,2.5,2.11s-.53,1.9-1.44,1.9c-2,0-3.1,1.06-3.1,2s.91,1.74,2.65,1.74c3.78,0,7.56-3.55,7.56-10.89,0-6.21-3.48-9.38-9.15-9.38a19.92,19.92,0,0,0-4,.45c-.76,8.17-1.14,16.57-1.14,25.73,0,8.85.38,17.7,1.14,25.65Z"/><path class="cls-1" d="M210.27,54a30.28,30.28,0,0,0-6.28.68q1.14-13.29,1.14-26.56T204,1.59c7.79,0,20-1.59,25.27-1.59C240.31,0,243,4.62,243,9.31s-3.33,9.38-10.52,9.38c-5.6,0-7.57-3-7.57-5.6,0-2.12,1.51-4,3.41-4A1.51,1.51,0,0,1,230,10.59c0,.76-.53,1.52-2.27,1.52-1.36,0-2,.53-2,1.06s.83,1.28,2.65,1.28a4.72,4.72,0,0,0,5.07-4.92c0-5-3.71-7-8.71-7a23.65,23.65,0,0,0-6.28.91c0,5.06,0,15.81-.07,22.47h2.27c5,0,11.42-.91,15.21-4.54V32.69c-3.79-3.63-10.22-4.54-15.21-4.54h-2.27c0,8.1.38,16.42,1.13,24.52a44.39,44.39,0,0,0,6.81.68c4.32,0,8.4-1.21,8.4-6.13,0-2.65-1.66-5.15-5.45-5.15-1.81,0-2.64.68-2.64,1.29s.68,1.06,2,1.06c1.74,0,2.27.75,2.27,1.51a1.51,1.51,0,0,1-1.67,1.51c-1.89,0-3.4-1.89-3.4-4,0-4.69,4.46-7.18,9.23-7.18,6.66,0,10.44,4.46,10.44,9.15,0,5.07-4.54,10.44-14.9,10.44C222.38,55.84,216.63,54,210.27,54Z"/></g></g></svg>