<svg xmlns="http://www.w3.org/2000/svg" viewBox="0 0 399.43 55.84"><defs><style>.cls-1{fill:#516f3c;}</style></defs><title>Asset 38</title><g id="Layer_2" data-name="Layer 2"><g id="Layer_1-2" data-name="Layer 1"><path class="cls-1" d="M0,54.71Q1.14,41.42,1.14,28.15T0,1.59A50.72,50.72,0,0,0,6.43,2c7.8,0,13.47-2,21.42-2,6.5,0,8.92,3.93,8.92,8,0,6.21-6.05,9.38-11.27,9.38s-7.42-2.72-7.42-5.29a3.85,3.85,0,0,1,3.86-3.94c1.21,0,1.74.68,1.74,1.36a1.32,1.32,0,0,1-1.43,1.29c-2.27,0-3.26.53-3.26,1.67,0,.83.84,1.28,1.89,1.28a5.47,5.47,0,0,0,5.38-5.6c0-2.65-1.82-5.37-6.81-5.37a19.83,19.83,0,0,0-3.94.45c-.68,7.34-1.06,15.29-1.13,22.63h3.1c4.92,0,9.84-.91,13.62-4.54V32.69c-3.78-3.63-8.7-4.54-13.62-4.54h-3.1q0,13.27,1.13,26.56Z"/><path class="cls-1" d="M39.57,54.71a196.92,196.92,0,0,0,1.82-27.54c0-8.93-.53-19.22-1.82-25.58C49,1.59,57.81,0,64.47,0,75.06,0,81.19,6.13,81.19,12.33c0,6.36-6.43,12.72-18.08,12.72v.37c12.1,2.73,19.59,8.1,19.59,29.29H67c0-10.52-1.51-17-3.48-21.42-3.1-7.18-7.18-8.85-7.18-13.24,0-3.33,2.27-4.61,3.78-4.61,1.82,0,2.5,1.13,2.5,2.11s-.53,1.9-1.44,1.9c-2,0-3.1,1.06-3.1,2s.9,1.74,2.64,1.74c3.79,0,7.57-3.55,7.57-10.89,0-6.21-3.48-9.38-9.15-9.38a19.94,19.94,0,0,0-4,.45C54.33,11.5,54,19.9,54,29.06c0,8.85.38,17.7,1.13,25.65Z"/><path class="cls-1" d="M85.88,54.71C93.52,37,102.07,16,104.19,1.59H119.7a373.93,373.93,0,0,0,19,53.12H123.18c-2.27-8.4-8.77-12.64-14.75-12.64s-11.2,4.16-11.2,12.64Zm24.36-15.29a16.9,16.9,0,0,1,9.08,2.35c-3.17-10.52-8.47-24.9-12.71-35C102.3,19.14,99,31.86,97.76,44.11,100.56,40.94,105.48,39.42,110.24,39.42Z"/><path class="cls-1" d="M141.64,54.71c3-17.71,2.27-35.42.76-53.12h16a492.18,492.18,0,0,0,26.25,47.75c.84-18-3.78-35.72-7.94-47.75h12.1c-3,13.62-2.27,35.41-.75,53.12h-16.8c-8.17-15.29-15.13-30.72-25.5-46-.76,16.42,2.27,36.4,8,46Z"/><path class="cls-1" d="M193.17,27.69C193.17,8,207.32,0,219.35,0c8.93,0,16.8,4.46,16.8,12,0,4.77-3.56,9.16-9.68,9.16-6.36,0-9.31-4-9.31-7.72,0-3.18,2.12-6.28,5.75-6.28,1.13,0,1.66.6,1.66,1.21a1.11,1.11,0,0,1-1.13,1.13c-1.14,0-1.52-.53-2.88-.53-.83,0-1.28.84-1.28,1.75a2.84,2.84,0,0,0,3.1,2.64c1.89,0,3.93-1.43,3.93-4.76,0-3-2-6.21-5.67-6.21-7.95,0-12.34,11.5-12.34,23.69,0,19.9,7.95,27.31,13.85,27.31,3.48,0,6.28-2.65,6.28-6.81s-2.27-6.36-3.78-6.36c-.76,0-1.36.54-1.36,1.59,0,1.21,2.19,1.59,2.19,3.71a1.72,1.72,0,0,1-1.66,1.82c-1,0-2-.83-2-2.57a8.32,8.32,0,0,1,7.87-8.63,7.18,7.18,0,0,1,7.49,7.49c0,7.34-6.73,12.18-17.4,12.18C205.66,55.84,193.17,47,193.17,27.69Z"/><path class="cls-1" d="M241.07,54.71a312,312,0,0,0,0-53.12h15.51q-1,12.15-1.14,24.29h17.18q-.12-12.15-1.14-24.29H287a310,310,0,0,0,0,53.12H271.48q1.14-13.29,1.14-26.56H255.44q0,13.27,1.14,26.56Z"/><path class="cls-1" d="M292.74,54.71a310,310,0,0,0,0-53.12h15.52a310,310,0,0,0,0,53.12Z"/><path class="cls-1" d="M312.19,43.36c0-5,3.93-9.69,10.37-9.69,4.31,0,8.24,2.35,8.24,6.74,0,2.12-1.51,4-3.4,4a1.52,1.52,0,0,1-1.67-1.52c0-.75.53-1.51,2.27-1.51,1.37,0,1.82-.53,1.82-1.06,0-1-1.06-1.59-2.34-1.59-1.9,0-4.09,1.29-4.09,4.92a9.94,9.94,0,0,0,10.06,10.22c3.79,0,7.27-4,7.27-8.78,0-9.46-26.79-19.15-26.79-29.66,0-11.51,12.79-15.44,23-15.44,8.63,0,16.5,3.41,16.5,10.14,0,5.3-5.37,8.17-10.75,8.17-6.12,0-8.62-3.71-8.62-6.88,0-2.27,1.28-4.24,3.48-4.24a1.71,1.71,0,0,1,1.89,1.74,1.77,1.77,0,0,1-2,1.74c-1.13,0-1.66.6-1.66,1.36a2.42,2.42,0,0,0,2.65,2.2c1.81,0,3.86-1.44,3.86-5.07,0-4.92-3.94-7.42-7.72-7.42-3.48,0-8.4,2.19-8.4,7.26,0,8.93,27.69,16.73,27.69,31.18,0,10.37-11.88,15.66-22.92,15.66C317.71,55.84,312.19,49.34,312.19,43.36Z"/><path class="cls-1" d="M364.17,54a30.28,30.28,0,0,0-6.28.68Q359,41.42,359,28.15T357.89,1.59c7.8,0,20-1.59,25.27-1.59,11,0,13.78,4.62,13.78,9.31s-3.33,9.38-10.52,9.38c-5.6,0-7.57-3-7.57-5.6,0-2.12,1.51-4,3.41-4a1.51,1.51,0,0,1,1.66,1.51c0,.76-.53,1.52-2.27,1.52-1.36,0-2,.53-2,1.06s.83,1.28,2.65,1.28a4.72,4.72,0,0,0,5.07-4.92c0-5-3.71-7-8.71-7a23.65,23.65,0,0,0-6.28.91c0,5.06,0,15.81-.07,22.47h2.27c5,0,11.42-.91,15.21-4.54V32.69c-3.79-3.63-10.22-4.54-15.21-4.54h-2.27c0,8.1.38,16.42,1.13,24.52a44.39,44.39,0,0,0,6.81.68c4.32,0,8.4-1.21,8.4-6.13,0-2.65-1.66-5.15-5.45-5.15-1.81,0-2.64.68-2.64,1.29s.68,1.06,2,1.06c1.74,0,2.27.75,2.27,1.51a1.51,1.51,0,0,1-1.67,1.51c-1.89,0-3.4-1.89-3.4-4,0-4.69,4.46-7.18,9.23-7.18,6.66,0,10.44,4.46,10.44,9.15,0,5.07-4.54,10.44-14.9,10.44C376.28,55.84,370.53,54,364.17,54Z"/></g></g></svg>