<svg xmlns="http://www.w3.org/2000/svg" viewBox="0 0 353.13 55.84"><defs><style>.cls-1{fill:#516f3c;}</style></defs><title>Asset 47</title><g id="Layer_2" data-name="Layer 2"><g id="Layer_1-2" data-name="Layer 1"><path class="cls-1" d="M0,54.71Q1.14,41.42,1.14,28.15T0,1.59C8.63,1.59,16.57,0,24.06,0,39,0,48.81,10.06,48.81,27.32c0,20.12-13.4,28.37-26.64,28.37C12,55.69,9.84,54.71,0,54.71ZM33.29,27.32c0-17.48-6.43-25-17.78-24.07-.45,8.1-.75,16.58-.75,25s.3,17,.75,25.05C25.73,53.8,33.29,44.87,33.29,27.32Z"/><path class="cls-1" d="M60.08,54a30.21,30.21,0,0,0-6.28.68q1.13-13.29,1.13-26.56T53.8,1.59c7.79,0,20-1.59,25.27-1.59C90.12,0,92.84,4.62,92.84,9.31s-3.33,9.38-10.52,9.38c-5.59,0-7.56-3-7.56-5.6,0-2.12,1.51-4,3.4-4a1.52,1.52,0,0,1,1.67,1.51c0,.76-.53,1.52-2.27,1.52-1.36,0-2,.53-2,1.06s.84,1.28,2.65,1.28a4.72,4.72,0,0,0,5.07-4.92c0-5-3.71-7-8.7-7a23.54,23.54,0,0,0-6.28.91c0,5.06,0,15.81-.08,22.47h2.27c5,0,11.43-.91,15.21-4.54V32.69c-3.78-3.63-10.21-4.54-15.21-4.54H68.17c0,8.1.38,16.42,1.14,24.52a44.39,44.39,0,0,0,6.81.68c4.31,0,8.4-1.21,8.4-6.13,0-2.65-1.67-5.15-5.45-5.15-1.82,0-2.65.68-2.65,1.29s.68,1.06,2,1.06c1.74,0,2.27.75,2.27,1.51a1.51,1.51,0,0,1-1.67,1.51c-1.89,0-3.4-1.89-3.4-4,0-4.69,4.46-7.18,9.23-7.18,6.66,0,10.44,4.46,10.44,9.15,0,5.07-4.54,10.44-14.91,10.44C72.19,55.84,66.43,54,60.08,54Z"/><path class="cls-1" d="M107.9,53.65a36.42,36.42,0,0,0-8.55,1.06c1.28-5.9,1.81-14.53,1.81-23.69A238.21,238.21,0,0,0,99.35,1.59h15.51c-1.74,5-2.42,14.07-2.42,23.3,0,11,1,22.25,2.27,26.79a19.24,19.24,0,0,0,3.93.46c6.81,0,9.84-4.62,9.84-8.25s-2-5-3.63-5c-1.89,0-2.95.91-2.95,1.67s.68,1.21,2.12,1.21c2,0,2.72,1.13,2.72,2.12a2.27,2.27,0,0,1-2.5,2.19,4.12,4.12,0,0,1-4.39-4.16c0-2.65,2.42-5.6,8-5.6,4.92,0,10.21,3,10.21,9.76,0,4.09-2.87,9.76-11.12,9.76C120.31,55.84,115.09,53.65,107.9,53.65Z"/><path class="cls-1" d="M140.28,54.71a310,310,0,0,0,0-53.12h15.51a312,312,0,0,0,0,53.12Z"/><path class="cls-1" d="M176.45,54.71c-1.66-14.38-10.21-40-17.55-53.12h16.57C175.47,12,182.88,32.08,190,49c6.43-19.3,10.29-34.43,10.29-47.37h9.08C201.5,20.28,194.84,39,193.85,54.71Z"/><path class="cls-1" d="M218.75,54a30.14,30.14,0,0,0-6.28.68q1.13-13.29,1.13-26.56T212.47,1.59c7.79,0,20-1.59,25.27-1.59,11,0,13.77,4.62,13.77,9.31s-3.33,9.38-10.52,9.38c-5.6,0-7.56-3-7.56-5.6,0-2.12,1.51-4,3.4-4a1.52,1.52,0,0,1,1.67,1.51c0,.76-.53,1.52-2.27,1.52-1.37,0-2,.53-2,1.06s.84,1.28,2.65,1.28a4.72,4.72,0,0,0,5.07-4.92c0-5-3.71-7-8.7-7a23.54,23.54,0,0,0-6.28.91c0,5.06,0,15.81-.08,22.47h2.27c5,0,11.43-.91,15.21-4.54V32.69c-3.78-3.63-10.21-4.54-15.21-4.54h-2.27c0,8.1.38,16.42,1.14,24.52a44.39,44.39,0,0,0,6.81.68c4.31,0,8.4-1.21,8.4-6.13,0-2.65-1.67-5.15-5.45-5.15-1.82,0-2.65.68-2.65,1.29s.68,1.06,2,1.06c1.75,0,2.27.75,2.27,1.51a1.5,1.5,0,0,1-1.66,1.51c-1.89,0-3.41-1.89-3.41-4,0-4.69,4.47-7.18,9.24-7.18,6.66,0,10.44,4.46,10.44,9.15,0,5.07-4.54,10.44-14.91,10.44C230.85,55.84,225.1,54,218.75,54Z"/><path class="cls-1" d="M258,54.71a198.56,198.56,0,0,0,1.81-27.54c0-8.93-.53-19.22-1.81-25.58C267.4,1.59,276.25,0,282.91,0c10.59,0,16.72,6.13,16.72,12.33,0,6.36-6.43,12.72-18.08,12.72v.37c12.11,2.73,19.6,8.1,19.6,29.29H285.41c0-10.52-1.51-17-3.48-21.42-3.11-7.18-7.19-8.85-7.19-13.24,0-3.33,2.27-4.61,3.78-4.61,1.82,0,2.5,1.13,2.5,2.11s-.53,1.9-1.44,1.9c-2,0-3.1,1.06-3.1,2s.91,1.74,2.65,1.74c3.78,0,7.56-3.55,7.56-10.89,0-6.21-3.48-9.38-9.15-9.38a19.92,19.92,0,0,0-4,.45c-.76,8.17-1.14,16.57-1.14,25.73,0,8.85.38,17.7,1.14,25.65Z"/><path class="cls-1" d="M320.59,54.71a76.73,76.73,0,0,0,1.82-17.86c-4.85-11.73-12.18-23.53-20.05-35.26h15.43a149.12,149.12,0,0,0,16,30.64A135.5,135.5,0,0,0,345,1.59h8.17c-7.42,11.73-12.56,20.81-18.46,35.26,0,4.54-.31,10.29,1.43,17.86Z"/></g></g></svg>